<svg width="201" height="83" viewBox="0 0 201 83" fill="none" xmlns="http://www.w3.org/2000/svg">
<path fill-rule="evenodd" clip-rule="evenodd" d="M54.4872 10.0905H180.681C191.856 10.0905 201 19.2341 201 30.4097V48.591C201 59.7669 191.856 68.9103 180.681 68.9103H54.4872C43.3116 68.9103 34.168 59.7669 34.168 48.591V30.4097C34.168 19.2341 43.3116 10.0905 54.4872 10.0905Z" fill="#F5F5F5"/>
<path fill-rule="evenodd" clip-rule="evenodd" d="M64.8625 18.4331H67.0611C66.1758 19.6488 66.1758 19.111 65.526 19.814C64.6597 20.7648 64.5802 20.8359 62.787 21.2076C62.5824 22.0071 61.8704 22.921 60.4583 23.1425C59.6943 23.2629 59.0028 23.2148 58.0534 23.3776C56.8077 23.5874 57.0728 23.5966 56.1251 23.3087L54.8777 24.5969C54.3405 25.0017 53.8086 25.1438 53.4829 25.6509C53.0221 26.3758 53.8414 26.4501 53.1901 27.1729C52.8418 27.5593 52.951 27.3047 52.672 27.8346C52.2996 28.5514 51.3865 28.8759 50.6692 29.4586C50.0713 29.9462 50.2586 30.304 49.6919 30.7743C49.1912 31.1917 48.4548 31.2274 48.1449 31.7389C47.7861 32.3283 48.1899 32.942 48.4635 33.4066C49.1635 33.9972 50.0488 33.7653 50.0732 34.8813C50.0871 35.5994 49.5171 36.205 48.7216 36.4882L48.9002 37.2245C48.8915 37.5561 48.7183 37.4815 48.6801 37.9759C48.9124 38.5482 49.9831 38.906 50.4266 40.3545C51.3448 43.3435 50.8598 41.6587 50.6483 43.1464C50.5427 43.8884 50.7072 43.8506 49.8184 44.2966C48.9124 44.7509 48.1362 45.564 47.5972 46.2797C47.0948 46.9484 47.0462 46.6926 46.2165 47.0871L46.2928 48.2582C46.1351 48.7777 45.9131 48.522 46.0778 49.2766C46.1593 49.6551 46.2078 49.4739 46.206 49.9294C46.2008 51.0029 46.6027 50.8664 46.7172 51.4227C46.7952 51.7918 46.388 51.9673 47.0099 52.3493C47.7394 52.8001 47.3548 52.2186 48.0634 52.8918C48.9124 53.6993 49.1151 53.5547 50.333 53.9607C50.3815 54.5217 50.5237 54.9725 50.3226 55.3428C49.9052 56.0997 50.184 55.9611 50.035 56.6584C49.9017 57.2868 49.6452 57.56 49.3939 58.0875C49.323 58.24 49.342 58.2606 49.2883 58.3925C49.174 58.6748 49.1947 58.6563 48.9626 58.8869C47.4205 60.3997 44.9708 59.4247 43.9207 59.723C43.0077 59.9811 43.186 59.9696 42.15 60.074C40.4592 60.2448 41.2473 61.2071 38.9724 59.894L38.7732 59.7769C38.1929 59.4465 36.8864 58.958 36.1623 58.9338C35.3426 58.9052 34.8402 59.0176 34.3552 59.1598C34.2339 58.4282 34.168 57.686 34.168 56.9337V38.7524C34.168 27.5765 47.9802 18.4331 64.8625 18.4331Z" fill="white"/>
<path fill-rule="evenodd" clip-rule="evenodd" d="M23.0639 1.98705L23.3768 2.4934C22.433 3.92665 22.8991 3.45983 22.8537 4.40196C22.8184 5.13758 22.777 5.64412 22.0724 5.82904C22.0418 5.83714 22.0148 5.84119 21.9848 5.84948L21.7207 5.93856L21.7997 6.39516C21.8295 6.40461 21.8743 6.37376 21.8923 6.40673C21.9396 6.49312 22.3755 6.41329 22.5137 6.50083C22.9512 6.7783 22.3874 8.32666 22.2836 8.59064C22.0081 9.29213 21.9669 10.0648 21.2165 10.439L20.8242 10.5964L20.5592 11.5078L20.8417 11.8083C20.4981 12.0692 20.6752 12.1203 20.6611 13.0271C20.1368 13.3387 20.384 12.8836 20.1243 13.411C19.9612 13.7427 20.0988 13.8015 19.7162 13.9933L19.2038 14.1842C18.9147 14.3435 18.7859 14.608 18.5871 14.8502C18.6527 15.3558 18.9657 15.4532 19.2908 15.7463C19.1864 16.1096 18.8214 16.1707 18.7586 16.5791C18.6797 17.0924 18.7812 18.0831 18.2418 18.4905L17.2828 19.9394C17.014 20.3268 16.8665 20.1494 16.4966 20.4643C15.8669 21.0001 16.2081 21.5589 15.5329 22.2295C15.2829 22.4777 15.2703 22.7384 15.198 23.2C14.688 26.4493 15.0662 24.58 13.9563 25.999C13.4965 26.5869 13.4612 26.515 12.9146 26.8742C12.5078 27.1415 12.5334 27.8254 12.3443 28.3333C12.097 28.9984 12.1043 28.6334 11.6935 29.0809C11.4382 29.3593 11.4687 29.6083 11.2632 29.9598C11.1238 30.1979 10.8872 30.4538 10.7086 30.7195C9.54092 32.4568 9.08511 31.1354 8.11472 31.8437C6.05203 33.3492 2.02413 36.8111 0 38.4694L0.48176 38.0306L1.27585 38.2001C1.76352 37.4762 1.5525 37.073 2.53968 36.8507C4.00308 36.5211 4.34842 37.5578 5.63134 37.6667C6.45043 37.7363 6.1339 37.4635 6.73758 37.4052L8.05597 38.7276C8.5944 38.8207 8.84587 38.6757 9.3053 38.888C9.68422 39.0631 9.93817 39.3551 10.2371 39.4769C10.8548 39.7286 11.5004 39.7006 11.3335 41.2877C11.2354 42.2215 11.3193 41.8191 11.6086 42.4369C12.2084 43.7182 11.36 44.7614 12.115 46.1796C12.4229 46.7579 12.1251 46.8001 11.9957 47.2218L11.8568 48.3668C11.8412 48.7551 12.0104 48.4038 11.8001 48.8384C11.5968 49.2588 11.3022 50.0796 11.2726 50.5135L11.1528 51.6168C11.1274 52.2674 11.297 52.2269 11.1413 52.9361C11.0299 53.4436 10.8691 53.5267 10.5386 53.8412C9.75444 54.7388 10.3139 54.6561 9.05555 54.8614C8.98057 55.4206 9.28222 55.4135 9.83992 56.0729C10.3009 55.9358 10.0412 55.7689 10.6336 55.7982C10.9944 55.8159 11.198 55.9547 11.2856 56.2349L10.3518 57.4165L11.107 57.4223C11.3966 58.4564 11.3405 57.8932 11.8681 58.2773C12.1911 58.5127 12.3428 58.9107 12.4912 59.2821C12.6957 59.2672 12.6872 59.0356 12.869 59.2859C12.9991 59.4653 12.9999 59.7524 13.1363 59.9477C13.3313 60.2273 13.2784 59.9564 13.5381 60.338C13.7194 60.6039 13.6179 60.6476 13.8922 60.8929C14.2706 61.2313 14.3902 61.3025 14.6817 61.8123C14.8804 62.1596 15.1786 62.464 15.4522 62.782C16.248 62.7434 15.9978 62.1916 17.2224 61.9937C17.9653 61.8736 17.5738 61.7197 19.3608 61.5591C19.5917 61.7994 19.5295 61.7662 19.787 61.9209C20.1415 62.1335 20.0889 61.9392 20.2331 62.3817C20.4899 63.1686 20.2341 63.0984 20.1087 63.7207C20.0227 64.1472 20.2106 64.5278 19.9143 65.0409C19.6724 65.4599 19.1734 65.3562 18.6427 65.4769C17.6736 65.6971 17.8844 65.7453 17.4191 66.3654C16.8635 67.1056 16.7061 67.5156 16.5078 68.4961C16.3573 69.2408 16.3394 69.1579 16.4407 69.9494C15.4951 71.0402 16.1387 69.5958 15.0257 72.0918L16.0562 72.1055C16.2514 72.3205 16.244 72.5029 16.4403 72.6992C16.7719 73.0311 16.7732 72.7141 17.0001 73.1429C17.2949 73.7002 16.9142 74.2382 17.3414 74.8272C17.9314 75.6411 18.0836 75.0228 18.6842 75.2942C18.9618 75.4198 18.8773 75.5758 19.1597 75.8262L19.7395 76.2126C19.7308 76.7109 19.511 76.8008 19.2066 77.2928C18.8256 77.9091 18.8521 77.0023 18.5654 78.3769C19.0632 78.5925 19.6731 79.0155 20.0582 79.3773C20.3487 79.6501 20.3514 79.8637 20.3632 80.282C20.3856 81.0693 20.871 81.3564 21.2686 81.8963C21.5191 82.2366 21.5265 82.3606 22.1329 82.2948L24.2717 82.3799L24.4369 82.9358L25.0572 83C25.1238 82.4977 25.0347 82.603 25.0183 82.2721C24.9986 81.8737 25.0763 82.0471 25.272 81.6944C25.5096 81.2661 25.3392 81.3992 25.4302 81.0174L25.8156 80.4829C25.8089 80.1038 25.7418 79.7415 25.7761 79.3674C25.8265 78.8198 25.9869 78.9322 25.9766 78.3609C25.9246 75.4684 26.5635 76.1161 26.2968 75.2958C26.1491 74.8413 25.985 74.9151 25.6895 74.6955C25.3674 74.456 25.3707 74.3131 25.3703 73.8002C25.3695 73.0586 25.2909 73.2438 25.1868 72.7642C25.1076 72.3988 25.1898 72.1449 25.0845 71.7544C24.9374 71.2089 24.622 70.874 24.8595 70.3455C24.9679 70.1044 24.9439 70.2242 25.0543 69.9318C25.2556 69.4006 25.4182 69.3457 25.832 68.9961C26.3172 68.5863 26.3849 68.0478 26.6687 67.6068C26.9344 67.1938 26.8039 66.5991 27.0293 66.1475C27.1655 65.8751 27.3509 65.7621 27.4767 65.4884C27.7051 64.9912 27.4441 65.0031 27.7818 64.5833L28.2776 63.8649C28.5402 63.345 28.5572 61.6532 28.8096 60.8555C29.3734 59.0731 28.9059 59.7009 30.3085 58.8353C30.6225 58.6415 30.6815 58.4364 31.0196 58.3473C31.4012 58.2466 31.6339 58.3089 32.0485 58.1628C32.4397 58.0251 32.5122 57.9734 32.9615 57.8758C33.7472 57.7052 34.1994 57.4192 34.7473 56.9322C34.8601 56.8319 34.7693 56.8766 34.9095 56.7933C35.2579 56.5862 35.8284 56.8221 36.2327 56.9111C36.6976 55.6906 36.1924 56.9428 37.2679 55.6347C37.4675 55.3921 38.2545 54.718 38.5579 54.6131L39.799 54.2502C39.9057 54.0232 39.9681 53.644 40.1316 53.4639C40.3939 53.1748 40.3949 53.439 40.7164 52.9421L41.5574 51.645L41.8877 51.7855C42.112 50.7753 42.8216 51.214 43.2341 51.1359C44.0278 50.9853 44.2333 50.5667 45.1186 50.6139C45.5072 50.6348 46.2109 51.0362 46.5227 51.3075L46.6289 51.4028C47.855 52.4834 47.4301 51.6918 48.3409 51.5513C48.8983 51.4655 48.8019 51.4755 49.2934 51.2622C49.858 51.0173 51.1777 51.8193 52.0071 50.576C52.1338 50.386 52.1214 50.4007 52.183 50.1695C52.2118 50.0615 52.2005 50.0447 52.2397 49.919C52.3738 49.4854 52.5131 49.2605 52.5848 48.7449C52.6647 48.1713 52.5167 48.2854 52.7393 47.6626C52.8481 47.3591 52.7718 46.9873 52.7443 46.5278C52.0895 46.1937 51.9806 46.3136 51.5242 45.6501C51.1428 45.0958 51.3498 45.574 50.9575 45.2047C50.6223 44.8892 50.8423 44.7475 50.8001 44.4421C50.737 43.9853 50.521 44.0987 50.5236 43.215C50.5248 42.8407 50.4986 42.9903 50.4542 42.678C50.3662 42.058 50.4857 42.2678 50.5713 41.8415L50.5294 40.8805C50.9745 40.5548 51.0022 40.7663 51.2729 40.2164C51.5629 39.6273 51.9804 38.959 52.469 38.5855C52.9479 38.2195 52.8575 38.2498 52.9145 37.641C53.029 36.4195 53.2896 37.8044 52.7958 35.3463C52.5568 34.156 51.9815 33.8619 51.8543 33.3916C51.8754 32.9844 51.9701 33.048 51.9745 32.775L51.8773 32.1699C52.3064 31.9372 52.6136 31.4389 52.6052 30.8493C52.5924 29.9328 52.117 30.1225 51.7383 29.638C51.5921 29.2558 51.3746 28.7508 51.5671 28.2668C51.7348 27.8457 52.1313 27.816 52.4001 27.4745C52.705 27.0871 52.6039 26.7931 52.9273 26.3916C53.3119 25.9142 53.8034 25.6469 54.0051 25.059C54.1545 24.6236 54.0969 24.8336 54.2844 24.5153C54.6343 23.921 54.1917 23.8589 54.4414 23.2642C54.6164 22.8473 54.9018 22.7291 55.1913 22.3984L55.8631 21.3402C56.3736 21.577 56.2313 21.5685 56.9021 21.3952C57.4114 21.2637 57.7851 21.3013 58.1957 21.2033C58.9543 21.0225 59.3382 20.2707 59.4491 19.6143C60.4149 19.3069 60.4566 19.2502 60.9247 18.4695C61.3246 17.8021 61.2656 18.4882 62 16.7746C61.3812 15.8195 61.5625 15.99 61.8516 14.863L60.2344 14.8149C60.4942 15.2951 60.5553 14.8967 60.8997 15.7079C60.6887 15.753 60.2815 15.6547 59.9417 15.6373C59.1358 15.5963 60.1291 15.4137 58.8324 15.5168L58.1461 15.5346L57.9675 15.0646C57.7061 15.0579 57.3778 15.0816 57.1345 15.0639C56.8693 15.0446 57.0046 15.0552 56.7886 14.9999C56.5686 14.9434 55.8327 15.0766 55.8321 14.6618L55.9892 14.2995C54.5231 14.6225 54.7169 13.4762 53.9292 13.3204C53.3106 13.1979 53.3278 13.4216 52.7865 12.9754C52.059 12.3754 51.4337 12.4328 50.5906 12.1501C50.1697 12.009 49.919 11.8767 49.4754 11.7774C48.2192 11.4963 48.2944 11.6257 47.0943 11.6868C47.8288 12.6399 47.5905 12.1328 47.5123 12.5894C47.4791 12.7818 47.7153 12.5537 47.4583 12.6671L47.2786 12.7186L47.3734 13.1773C46.9399 12.536 47.3933 13.6584 46.7772 12.572L46.5206 12.2307C46.3944 12.5296 46.6062 12.3549 46.5011 12.7228C46.4975 12.7355 46.4837 12.7654 46.4797 12.7778L46.4204 12.9924C45.935 12.9326 45.8184 12.8543 45.4601 12.5691C45.276 12.8125 45.2842 12.9629 45.135 13.2365L45.0944 13.0846C45.0879 13.0618 45.0596 12.955 45.0493 12.9234L44.9171 12.5886C44.8977 12.6064 44.8757 12.6143 44.8677 12.6503C44.792 12.993 44.3241 13.0257 44.0845 13.1844L43.514 13.8969L43.1131 13.2409C42.8678 13.4575 42.9111 13.562 42.6985 13.7328C42.0905 14.222 42.3328 13.9891 41.8818 15.1599C41.1586 14.9937 41.7921 14.8861 40.6544 16.027L40.766 15.0907L40.2359 15.2532C39.912 15.2881 39.8645 15.5835 39.7759 15.7145L39.5954 15.2646L39.3522 15.6138C39.3856 15.1906 40.2556 14.7035 40.6795 14.5165C40.7017 14.5066 40.7286 14.4966 40.7511 14.4873C40.774 14.4779 40.8015 14.4694 40.8246 14.4603C41.0173 14.3844 41.043 14.4426 41.2233 14.2604C41.4902 13.9908 41.3471 13.6962 41.6101 13.4314C42.1141 12.9245 42.6083 13.1538 41.6217 12.3181C41.8863 12.1615 41.9323 12.2163 42.184 12.1156L41.9783 11.8563C41.5087 11.9494 40.3964 12.3904 39.837 12.5562C39.683 12.9544 39.5094 13.0016 39.1272 13.1867L39.2831 14.1412C39.1171 14.1638 39.5342 14.2494 39.1255 14.04C39.058 14.6306 38.9519 14.5138 38.8491 14.8994C38.5732 15.9343 39.1847 16.564 37.934 17.4194C37.4156 17.7738 37.6757 17.8085 37.3822 18.0717C36.9907 18.4224 37.2023 17.9628 36.7427 18.6432L35.6612 19.9897L35.3485 19.9708L35.6132 19.6972L35.4212 19.1043C35.9678 18.7211 35.7507 19.0233 36.2109 18.4111L36.8726 17.4917L36.2832 17.2811C36.2603 16.6579 36.2798 16.6122 36.5055 16.1707C36.7472 15.6979 36.619 15.5943 36.7108 15.0739C36.8413 14.3335 37.2073 13.8743 37.5366 13.2297C37.4072 13.1586 37.357 13.1987 37.2427 13.2297C37.5673 12.5298 37.5763 13.6335 37.9384 11.7655L37.8014 11.6129L39.0112 11.8117C39.5458 10.8413 38.7077 10.1934 38.1021 9.56689C37.6883 9.76569 37.8313 9.75393 37.564 10.0584C36.7928 10.9365 36.7022 10.0414 36.5452 12.0549L36.532 11.4866L36.118 11.6145L36.5212 10.7988L36.2451 10.8127C36.2336 10.8123 36.2046 10.8141 36.1926 10.8127C35.6885 10.7576 35.8324 10.7242 35.16 10.7728C35.3708 10.8709 35.4945 10.6139 35.9446 10.5672C35.9604 10.5655 35.9923 10.5667 36.007 10.5645L36.1083 10.541C36.1281 10.5341 36.1716 10.5038 36.1903 10.494C36.1997 10.4892 36.2222 10.4718 36.2319 10.4666C36.2426 10.461 36.2674 10.4456 36.2786 10.4396C36.5933 10.2778 36.4095 10.4502 36.7083 10.2034C37.0081 9.95562 37.0338 9.64074 37.2731 9.3515L37.9912 8.67181C37.8067 8.52314 37.4873 8.5322 37.2254 8.52526L37.9704 8.34246C38.1492 7.52895 37.8737 7.522 37.237 7.28792L37.7329 6.84867C37.7129 6.83999 37.6762 6.81493 37.6686 6.83729L37.3389 6.9902L37.3925 6.62654C37.0571 6.743 37.0527 6.85638 36.7425 6.54498L37.0706 5.85737L36.699 5.7008C36.5377 5.97075 36.5002 6.24321 36.2722 6.59935C35.6733 6.4395 36.2185 6.38108 35.2295 6.47614L36.0951 5.83577L35.5966 5.63678C35.4204 5.91194 35.4323 5.93315 35.1106 6.11382C35.3096 5.83693 34.978 6.3427 35.2535 5.99138C35.4516 5.73898 35.3838 5.65953 35.36 5.48098L35.3338 5.34793C35.2207 4.75732 35.3577 4.90309 34.9952 4.42162L34.9498 4.98581L34.1788 4.83464C34.1746 4.82095 34.1791 4.782 34.1797 4.79183C34.1801 4.80205 34.1809 4.75327 34.1818 4.74613C34.2604 4.13662 34.5233 3.6941 34.7637 3.12874C34.0725 3.36707 33.9702 3.96115 33.7537 4.58146L33.2998 4.48679L33.8111 4.24634C33.7878 4.2259 33.7462 4.17287 33.7332 4.1962L33.435 4.01206C33.3242 3.87573 33.3831 3.98121 33.4902 3.7047L32.6827 3.5973C32.653 3.59788 32.7493 3.53887 32.4089 3.61793C32.3933 3.62159 32.3618 3.63123 32.3454 3.63509C32.3288 3.63914 32.2971 3.64589 32.2803 3.64994C32.2637 3.6538 32.2323 3.65842 32.216 3.66247C31.9623 3.72649 31.8808 3.85105 31.6864 4.00261C31.1447 4.42489 31.3699 4.62967 31.4868 5.32942L30.6857 5.94356C30.0982 5.80646 30.194 5.59397 30.3394 5.0747L29.925 4.39944C30.2123 3.6964 30.4405 3.37285 30.9043 2.79728L30.385 2.09039C30.2239 2.37153 30.2121 2.9068 29.9068 3.12218C29.5418 3.37999 29.5457 2.7645 29.4396 4.08591L29.3047 3.81249C29.2957 3.804 29.2694 3.78761 29.2595 3.78009C29.2495 3.77257 29.2213 3.76042 29.2108 3.75387C28.995 3.61793 28.8933 3.57531 28.6371 3.65264L29.1562 3.42395C29.2717 2.55278 29.2578 2.59558 29.7838 1.89467C29.3671 1.99571 29.0792 2.60966 28.7972 2.9633L28.8954 2.18969L28.5833 2.38155C28.6588 2.1197 28.6606 1.95946 28.5722 1.70513L28.2805 2.16906L27.9542 1.76953L27.3784 2.57823C26.9253 2.00825 27.1489 1.17005 27.1781 0.504233C26.8373 0.60103 26.9264 0.729257 26.6709 1.26897C26.3122 2.02676 26.391 1.52118 26.1008 2.06918L25.9719 1.51771C25.952 1.53198 25.9167 1.55396 25.8936 1.57131L25.6195 1.81755C25.6321 1.78631 25.6582 1.71419 25.6572 1.69992L25.6412 1.61527C25.551 1.35053 25.4819 1.67505 25.5702 1.28381C25.6302 1.01887 25.5821 0.801177 25.4743 0.510015L25.0996 1.50903C25.0807 1.48763 25.057 1.42226 25.0475 1.44058C25.0381 1.45832 25.0074 1.3889 24.9944 1.37502C24.8492 1.22192 24.6481 1.14016 24.5569 0.986095L24.945 0.548388L24.8286 0C24.1721 0.219625 24.4907 0.349586 24.0097 0.907615C23.5011 1.49765 23.4814 1.13304 23.0639 1.98705Z" fill="url(#paint0_linear_1099_14)"/>
<path d="M118.518 24.0368V50H113.455V33.1128L106.694 50H102.86L96.0628 33.1128V50H91V24.0368H96.7492L104.777 43.3415L112.805 24.0368H118.518ZM138.985 45.053H128.932L127.269 50H121.953L131.029 24H136.923L146 50H140.648L138.985 45.053ZM137.61 40.8872L133.958 30.0252L130.306 40.8872H137.61Z" fill="#E86000"/>
<defs>
<linearGradient id="paint0_linear_1099_14" x1="31" y1="0" x2="31" y2="83" gradientUnits="userSpaceOnUse">
<stop stop-color="#071B42"/>
<stop offset="1" stop-color="#5E75A2"/>
</linearGradient>
</defs>
</svg>
