<svg width="202" height="64" viewBox="0 0 202 64" fill="none" xmlns="http://www.w3.org/2000/svg">
<path fill-rule="evenodd" clip-rule="evenodd" d="M65 0H183C193.45 0 202 9.6377 202 21.4178V40.5822C202 52.3623 193.45 62 183 62H65C54.5497 62 46 52.3623 46 40.5822V21.4178C46 9.6377 54.5497 0 65 0Z" fill="#F5F5F5"/>
<path fill-rule="evenodd" clip-rule="evenodd" d="M51.3626 50.7817C48.2803 47.2783 46.4609 42.9966 46.4609 38.3841V19.2538C46.4609 16.2286 47.2453 13.3453 48.6539 10.7302C48.7665 10.8171 48.8837 10.9354 49.0067 11.1443L49.7911 12.8241C49.9229 13.1644 49.8296 12.9508 49.84 13.2308L49.9096 13.67L51.4561 13.8426C52.5398 13.8004 52.3753 12.7782 54.0834 13.5132C54.6409 13.7557 54.4954 13.7749 55.044 13.4298C56.0864 14.4159 55.5304 13.9211 56.979 14.2579C57.5839 15.6444 57.4372 15.0289 57.1064 15.776C56.8708 16.3227 56.8442 16.7895 56.4511 17.3628L55.5127 18.2015C55.3035 19.0607 55.2117 18.6131 54.8307 19.1911C55.2221 20.1698 54.8989 19.8513 55.0129 20.375C55.1154 20.8468 55.5097 21.0389 55.5689 21.4865C55.188 21.741 54.9226 21.921 54.6897 22.2576C54.5535 22.4556 54.5535 22.2721 54.4436 22.5906L55.8344 23.2412C55.2591 23.7589 54.8186 24.2031 54.4969 24.886C54.2137 25.487 54.2434 25.4847 54.6231 25.8961C54.792 26.0795 54.9966 26.6444 55.1421 26.7469C55.5304 27.0234 56.3133 26.9123 56.5713 27.3142C56.7995 27.6715 57.0412 27.7354 57.5172 27.9394C57.9056 28.1058 58.4083 28.2687 58.7759 28.445L58.8695 29.6035L57.7367 30.0548C59.5884 31.3557 59.3778 30.7631 59.5751 32.6121L60.3921 32.8776C61.1602 32.9595 61.7517 32.5637 62.4351 32.5131L62.7168 33.0647C63.4464 32.9524 64.3612 32.9257 64.9527 32.5758C65.3559 32.3406 65.6705 32.2766 66.1477 32.1304L66.6963 32.6361L67.2656 32.2633L68.0175 32.5107L68.1108 31.7384C68.511 31.6465 69.1117 31.5562 68.7364 31.0769C68.3791 30.6123 68.2399 31.1542 67.6007 30.7597L68.9826 29.9666L68.6698 29.1388L69.8929 29.0398L69.5652 29.8086L70.6758 29.4647L70.8138 29.6035C70.9901 29.7494 70.8819 29.7351 71.1577 29.8207C71.5002 29.9269 71.5402 29.9027 71.8708 29.7894C72.3468 29.624 72.3142 29.3294 72.808 29.1993L73.3758 29.8822L75.2601 29.3958C75.9912 29.221 75.5878 29.2474 75.8725 28.9662C76.2862 28.5584 77.2395 28.1204 77.8888 27.8367C79.093 27.3068 80.3131 27.6063 81.4311 27.0209C82.0286 26.7084 82.5935 26.6975 83.111 27.1175L84.896 29.1509L84.9967 29.3114C85.2859 29.4694 86.1547 29.4864 86.3905 29.5203C87.1675 29.6289 87.7916 29.1894 89.5767 29.2102C89.8747 29.2148 90.2574 29.2015 90.5687 29.2028C91.1055 29.2052 90.7971 29.1245 91.1647 29.2353L91.5531 30.5266L90.6531 31.4354C90.5776 32.1028 90.5346 32.0206 89.8614 32.2574C89.2476 32.4709 88.4321 32.7943 87.6553 32.664C87.3455 32.6109 87.7694 32.448 87.1512 32.6109C86.429 32.8003 86.8413 32.8425 85.8774 32.8847C85.3365 32.9077 85.0503 33.2165 84.6736 33.3627C84.2037 33.5474 83.7559 33.557 83.3169 33.7622L82.2569 34.3461L82.0952 36.2506C81.892 36.8612 81.5066 36.3798 81.219 37.3523C81.5763 37.6071 82.19 38.2298 82.4347 38.3142C82.6379 38.3819 82.6038 38.3201 82.807 38.4651C83.068 38.652 83.4608 38.9344 83.563 39.1709L81.9323 39.4062C81.4829 39.4003 81.0039 38.9344 80.626 38.8934C79.2278 40.1701 79.8875 39.48 78.7905 39.8976L79.4043 40.3284L79.1922 40.4405C79.1656 40.4563 79.1226 40.4768 79.0945 40.4936C78.8335 40.6494 78.697 40.8266 78.6214 41.1575C78.0639 40.9281 78.1158 41.0706 78.0772 41.0777C77.7629 41.1283 77.8103 41.0392 77.5035 40.8424L77.2143 41.4132L75.5745 42.0322C74.7116 41.9574 75.2794 41.9586 74.5116 42.3231C74.301 42.4245 74.117 42.4739 73.9123 42.5295L73.3474 42.6744C72.9695 43.9281 73.5343 43.6143 73.6025 44.1345C73.6055 44.1358 73.5921 44.4037 73.5892 44.4217C73.5284 44.8742 73.5995 44.7767 73.34 45.1024C70.6669 45.5285 72.2712 45.2219 70.8568 44.8972L69.7121 44.7367C68.2115 44.4567 66.3183 44.0343 64.895 44.7898C63.9029 45.3184 64.8342 45.1145 62.7613 45.4959C62.6131 46.2151 62.324 46.6171 62.2127 47.3592L61.0636 47.4471C60.5745 47.6935 60.8636 47.8382 60.0437 47.7634L60.6293 47.3012C60.0141 46.2356 60.4424 46.7037 59.5469 46.1729C59.464 46.1223 59.28 46.068 59.2386 45.928C59.2267 45.888 59.1956 45.8796 59.1674 45.864L59.065 46.0485C58.7211 46.6472 58.5522 46.4299 58.0228 46.7232C59.1808 47.4847 59.2786 47.3676 59.2104 47.7985C58.6588 47.7066 58.3505 47.6814 57.7841 47.9096C55.9321 48.6552 53.1136 49.8537 51.3626 50.7817Z" fill="white"/>
<path fill-rule="evenodd" clip-rule="evenodd" d="M15.3243 14.6449L13.8495 15.3999L12.8022 17.0385C12.7051 18.2233 13.536 18.7591 12.607 19.5773C12.1644 19.9671 12.2827 19.963 11.9906 20.5624C11.6364 20.8792 10.9507 20.7238 10.6289 21.1799C10.1001 21.93 10.5495 22.152 11.0435 22.8466C10.8731 23.7416 10.0959 23.486 9.70246 24.1669C9.48605 24.5417 9.56405 24.8626 9.29592 25.1634C8.57927 25.9678 8.49279 25.3577 8.1191 26.6905C8.04174 26.9662 7.85479 27.3354 7.72591 27.6901C7.55253 28.1683 6.74135 28.7536 6.32039 29.0768L3.7387 30.5851C3.39596 30.7189 3.0051 30.7289 2.75329 30.9905C2.40949 31.3478 2.72404 31.3171 2.08434 31.6155C1.78695 31.7545 1.29435 31.8166 1.09532 32.0216C0.921722 32.2001 0.997605 32.2599 0.829307 32.4553C0.557995 32.7704 0.0643339 32.8445 0.0660307 33.3871C0.0677264 33.949 -0.114349 32.9699 0.119021 33.6224C0.289439 34.0993 0.877423 33.2471 1.28863 33.1144C1.98281 32.8907 2.2024 33.2505 2.93091 33.2895C3.51466 33.3205 4.14758 33.5194 4.63106 33.2831L6.01136 33.4982C6.41197 33.5093 6.57878 33.4047 7.00695 33.444C7.4385 33.4836 7.55106 33.6461 7.96438 33.5526C8.82347 33.3584 8.4591 33.3145 9.48712 33.8936C10.3867 33.4117 9.63465 32.4853 10.8761 32.5394C11.8956 32.584 12.1318 33.3764 12.6064 33.5378C13.0716 33.696 13.4021 33.4321 13.8281 33.596C14.3525 33.7979 13.8646 34.0869 14.6883 34.0329C15.4905 33.9805 15.7512 34.7089 16.7583 34.2027C17.5817 33.7887 18.0782 33.9886 18.8029 34.3958C19.7054 34.9027 19.3802 34.8937 20.6637 35.2248C21.3104 35.3916 22.2356 35.5429 22.82 35.7617L24.0129 37.2445C24.3474 37.4553 24.9417 36.8622 26.0691 37.103C26.5509 37.2061 26.5191 37.3029 27.0679 37.2809C28.0304 37.0704 27.5387 36.6875 28.5137 37.2383C28.9313 37.4741 28.8051 37.2612 29.1604 37.2246C29.799 37.1584 29.9213 37.49 30.8887 37.1366C31.9481 36.7498 32.08 36.5905 32.2251 37.0893C32.319 37.4114 32.1007 37.182 32.3428 37.4767C32.7358 37.9556 32.7567 37.222 32.8837 38.4246C33.413 38.6799 34.1019 38.8351 34.678 39.0265C34.8149 39.7166 35.2393 39.8247 35.5402 40.5622C35.7077 40.9723 35.6651 41.1264 35.7609 41.5462L36.2615 42.3027C36.2079 42.6715 36.1178 42.7922 35.9964 43.1086L36.099 43.9073C35.9603 44.0683 35.8756 44.0496 35.8067 44.2406C35.473 45.1619 36.7736 45.3661 36.4354 46.7344C36.1759 47.7843 35.6742 47.4825 36.3743 48.1418C37.456 49.1603 37.0229 49.2536 37.8725 50.0439C38.2061 50.3543 38.0798 50.1827 38.4178 50.3924L38.7655 51.7299C38.9223 51.9123 38.9605 51.8769 39.0692 52.0441C39.502 52.7101 38.987 52.2864 39.9357 53.1463C39.8545 53.6699 39.5955 53.9306 39.2254 54.2817C39.3388 54.8905 39.7621 54.414 38.9482 55.4406C38.9995 55.8379 39.0775 55.782 39.116 56.0672C39.1934 56.7337 39.1485 56.9371 39.8889 57.0561C40.4249 57.1422 40.355 56.9838 40.7679 56.9743C41.1409 56.9658 41.6746 57.204 41.915 56.8052L42.0596 56.4597C42.9704 57.1467 42.5259 56.9131 43.8049 56.8042C44.7886 56.7203 43.4746 57.3201 45.5353 56.918L45.8331 57.2297L46.5593 56.9598C47.0479 57.4782 46.5566 57.2391 47.4979 57.6469C46.8959 58.5408 47.0167 58.1457 46.965 59.0878C46.9385 59.573 46.9196 59.1188 46.833 59.5724C46.7081 60.227 46.848 60.0998 46.4766 60.7559L47.4515 61.5828C47.5167 61.4227 47.5477 61.3953 47.6251 61.2615L48.2154 60.1771C48.9918 60.447 48.8788 60.5648 49.2447 60.7437C49.3827 60.8112 49.3752 60.7763 49.5461 60.8437C49.8786 60.9751 49.9768 60.9011 50.3113 60.8229L50.7244 62.8207C50.9062 63.4717 51.7329 63.2437 52.2229 63.1275L51.7119 64C52.1354 63.8746 52.0474 63.7104 52.3452 63.4218C53.4248 62.3764 52.8754 63.1483 53.752 61.2799C52.8406 61.3446 53.652 61.7494 52.0413 61.2151C52.0712 61.1068 52.2594 61.0194 52.351 60.7328L52.9824 60.7536C52.8898 60.9336 52.7418 60.9762 52.6021 61.1571C53.0206 61.302 53.8216 60.8749 54.0435 60.626C56.1642 58.2469 57.4887 57.5103 60.2298 55.8392C61.3316 55.1672 61.633 54.3936 62.8304 53.9621C63.0699 53.431 62.7098 52.859 63.7346 52.1618C64.935 51.3454 67.0431 50.23 68.4033 49.5499C68.7997 49.3515 69.0152 49.3737 69.3987 49.4538C69.4478 49.0807 69.3798 49.1815 68.5707 48.5237C68.9402 48.2679 69.0585 48.4554 69.2982 47.9363L69.3688 47.7764C69.39 47.7901 69.4116 47.7984 69.4201 47.8323C69.4495 47.953 69.5776 48.0016 69.6367 48.0453C70.2607 48.5053 69.9614 48.0986 70.3919 49.022L69.9811 49.424C70.5558 49.4876 70.3531 49.3624 70.6952 49.1496L71.4973 49.0738C71.574 48.4293 71.7784 48.0817 71.882 47.4568C73.3299 47.1263 72.6786 47.3042 73.3736 46.8461C74.3677 46.1906 75.6916 46.556 76.7391 46.7996L77.537 46.9373C78.5268 47.2203 77.406 47.4864 79.2742 47.1165C79.455 46.8333 79.4065 46.9187 79.4478 46.5254C79.4493 46.51 79.4582 46.2795 79.4578 46.2769C79.4092 45.828 79.0146 46.0997 79.2791 45.0105L79.674 44.8855C79.8177 44.8386 79.9451 44.7939 80.0928 44.7068C80.6286 44.391 80.2316 44.3889 80.8351 44.4533L81.9805 43.9178L82.1828 43.4231C82.3968 43.592 82.3648 43.671 82.5834 43.6273C82.6111 43.6217 82.5759 43.4965 82.9651 43.6973C83.0172 43.4094 83.1137 43.2557 83.2943 43.1212C83.3157 43.1056 83.3437 43.0885 83.3638 43.0744L83.5109 42.9765L83.083 42.6034C83.8484 42.2421 83.388 42.8402 84.3641 41.7337C84.6294 41.7692 84.9635 42.1725 85.2783 42.1781L86.4173 41.9745C86.3455 41.7701 86.0718 41.5235 85.8893 41.3617C85.7471 41.2356 85.7711 41.291 85.6282 41.2302C85.4571 41.1573 85.0288 40.6187 84.7782 40.3971C84.98 39.5524 85.2492 39.9705 85.3921 39.4416L85.5042 37.7897L86.2459 37.2841C86.5509 37.107 86.8654 37.0976 87.194 36.9383C87.4551 36.8114 87.6563 36.5445 88.0346 36.5237C88.7091 36.4863 88.4212 36.4507 88.9236 36.2859C89.3566 36.144 89.0594 36.2865 89.2771 36.3317C89.8198 36.4445 90.3893 36.1641 90.8177 35.9794C91.2901 35.7756 91.3179 35.8454 91.3726 35.2674L92 34.4801L91.7293 33.3597C91.4712 33.2634 91.6857 33.3336 91.313 33.3312C91.0943 33.3299 90.8289 33.3421 90.6197 33.3387C89.3717 33.3192 88.9365 33.6998 88.3928 33.6061C88.2275 33.5776 87.6217 33.5616 87.4197 33.425L87.3496 33.2869L86.1011 31.5241C85.7389 31.1587 85.3452 31.1682 84.9272 31.4394C84.1455 31.9467 83.2932 31.6864 82.4515 32.1466C81.9994 32.3939 81.3319 32.774 81.0437 33.1262C80.8449 33.3691 81.1272 33.3462 80.6151 33.4986L79.2994 33.9214L78.9022 33.3295C78.5571 33.4419 78.5794 33.6968 78.247 33.8398C78.0166 33.9389 77.9882 33.9584 77.7489 33.8677C77.5548 33.7938 77.6317 33.8058 77.5084 33.6793L77.4125 33.5579L76.6359 33.857L76.8646 33.1902L76.011 33.2762L76.2279 33.9931L75.2643 34.6807C75.7088 35.0227 75.8071 34.5542 76.0579 34.9542C76.3192 35.3712 75.9 35.4504 75.6204 35.5296L75.5555 36.2003L75.0292 35.9851L74.632 36.3077L74.248 35.8681C73.913 35.9967 73.6945 36.0517 73.4141 36.2564C72.9984 36.5599 72.3594 36.5817 71.8515 36.6791L71.6529 36.2011C71.1773 36.2457 70.7624 36.5886 70.2253 36.5173L69.6547 36.2876C69.518 34.6854 69.6643 35.197 68.3711 34.07L69.1626 33.6778L69.0962 32.6749C68.8389 32.521 68.4889 32.3799 68.217 32.2357C67.8844 32.0591 67.7168 32.0038 67.5561 31.6935C67.3751 31.3443 66.8288 31.4407 66.5569 31.202C66.4575 31.1146 66.3121 30.6225 66.1944 30.4641C65.9291 30.1064 65.9079 30.1105 66.1067 29.5873C66.3312 28.9969 66.6396 28.6121 67.0419 28.1619L66.0679 27.5979C66.1467 27.3215 66.1455 27.4816 66.2409 27.3104C66.4043 27.0173 66.5887 26.8613 66.856 26.6419C66.8142 26.2536 66.5382 26.087 66.4672 25.6786C66.3884 25.2248 66.6141 25.4999 66.3398 24.6518C66.6052 24.1498 66.6714 24.5389 66.8172 23.7934L67.4715 23.0664C67.7464 22.5692 67.7636 22.1635 67.9317 21.6911C68.1621 21.0438 68.2634 21.5772 67.8407 20.3733C66.8293 20.0822 67.2182 20.5116 66.4889 19.6562C66.1046 19.9553 66.208 19.9377 65.8161 19.7286C64.6234 19.0924 64.7395 19.9778 63.9818 20.0135L62.9022 19.8626L62.8522 19.4846C62.8444 19.241 62.9107 19.4253 62.8185 19.1324L62.2706 17.6751C61.9047 16.9022 61.6135 17.5574 61.2759 15.6747C61.1743 15.1088 61.3859 15.2914 61.1008 14.8527C60.9602 14.6363 60.6949 14.4784 60.4963 14.3221C60.5414 13.4755 60.8297 13.3393 61.0999 12.895C61.3172 12.5379 61.162 12.4516 61.3937 12.1796C61.7907 11.7131 61.9861 11.9158 61.6059 10.7282C61.3977 10.0779 60.7496 9.85852 59.9365 9.30753C59.8142 7.02885 61.208 7.15431 60.0083 6.02407C59.3339 5.38874 59.3544 5.44718 58.4752 4.96939C58.3205 4.29489 58.5928 3.83659 57.7172 4.14869C56.9132 4.43489 57.0934 4.2555 56.459 4.84139C55.9304 4.71102 55.8091 3.82953 54.6029 4.14526C53.4356 4.45094 54.1989 4.80564 53.9161 5.22819L53.2874 5.67922L52.7217 4.73115C52.4449 5.75178 52.9928 5.2922 51.8908 6.09043L50.1906 4.58109L50.2029 5.80187C49.8 6.12724 49.6044 5.58653 48.7148 5.62185C47.9633 5.6516 47.8222 5.87915 47.0981 5.82135C46.0972 5.74108 46.5824 6.29036 45.6235 6.10969L43.9316 6.19874C43.4352 6.38455 43.3638 8.74841 43.3186 9.26216C42.4328 8.95027 42.4303 8.89804 42.5004 7.71429L41.861 6.01551L40.2721 7.81105C39.795 7.58179 39.9493 7.51693 39.6979 7.08132C38.7962 5.51911 38.8801 5.38489 39.7034 4.17054C38.8206 3.90575 38.9725 4.38353 37.7294 3.95755C36.9879 3.70346 36.6289 3.38965 35.7806 3.56283C34.4421 3.83618 32.5893 3.83661 31.3716 3.25372C30.7554 2.95875 29.785 3.10217 29.0538 3.07691C27.3504 3.01826 28.0573 1.63329 26.5795 2.09352C25.7287 2.35852 25.8968 3.29161 24.4913 3.8015C23.9043 4.01449 23.1756 4.18874 22.6923 4.4912C21.364 5.3224 21.488 6.65705 20.6113 7.40562C20.0651 7.87227 19.5513 7.8498 18.8327 8.11523C17.7712 8.5076 18.1267 8.65787 17.6137 9.39488C15.804 11.9968 16.0832 9.91654 15.3833 12.1571C15.2302 12.6471 15.3061 14.0736 15.3243 14.6449Z" fill="url(#paint0_linear_1099_19)"/>
<path d="M117.576 42C115.776 42 114.156 41.6855 112.714 41.0564C111.272 40.4267 110.132 39.5205 109.294 38.3373C108.456 37.1541 108.025 35.7571 108 34.1455H113.546C113.62 35.228 113.996 36.0838 114.674 36.7135C115.351 37.3426 116.281 37.6579 117.464 37.6579C118.672 37.6579 119.621 37.3617 120.311 36.7701C121.002 36.1785 121.347 35.4044 121.347 34.4479C121.347 33.6678 121.113 33.0257 120.645 32.5219C120.176 32.018 119.591 31.6218 118.888 31.3324C118.186 31.0432 117.219 30.7218 115.986 30.3691C114.31 29.8661 112.948 29.3691 111.901 28.8775C110.853 28.3866 109.953 27.6446 109.201 26.6499C108.45 25.6552 108.074 24.3277 108.074 22.6658C108.074 21.1055 108.456 19.7459 109.22 18.5879C109.984 17.4298 111.056 16.5421 112.437 15.9252C113.817 15.3085 115.394 15 117.169 15C119.831 15 121.994 15.6611 123.657 16.9825C125.321 18.3047 126.24 20.1482 126.412 22.5147H120.718C120.669 21.6087 120.293 20.8596 119.591 20.268C118.888 19.6764 117.958 19.3811 116.799 19.3811C115.789 19.3811 114.981 19.6452 114.378 20.1734C113.774 20.7025 113.472 21.4704 113.472 22.4773C113.472 23.1818 113.7 23.7674 114.156 24.2331C114.612 24.6988 115.179 25.0766 115.857 25.366C116.534 25.6552 117.489 25.9888 118.722 26.3668C120.398 26.8698 121.766 27.3736 122.826 27.8775C123.885 28.3805 124.797 29.1363 125.562 30.1431C126.326 31.15 126.708 32.4714 126.708 34.1082C126.708 35.5174 126.35 36.8266 125.636 38.035C124.921 39.2435 123.874 40.2068 122.493 40.9236C121.113 41.6413 119.473 42 117.576 42ZM150 23.5347C150 24.9447 149.673 26.2661 149.02 27.4996C148.367 28.7332 147.344 29.7271 145.951 30.4829C144.559 31.2378 142.802 31.6158 140.683 31.6158H136.357V41.7359H131.181V15.378H140.683C142.679 15.378 144.38 15.7306 145.785 16.4352C147.19 17.1398 148.244 18.1092 148.946 19.3429C149.649 20.5765 150 21.9735 150 23.5347ZM140.461 27.3485C141.891 27.3485 142.95 27.0149 143.641 26.3478C144.331 25.6806 144.676 24.743 144.676 23.5347C144.676 20.9667 143.271 19.6826 140.461 19.6826H136.357V27.3485L140.461 27.3485Z" fill="#E86000"/>
<defs>
<linearGradient id="paint0_linear_1099_19" x1="46" y1="2" x2="46" y2="64" gradientUnits="userSpaceOnUse">
<stop stop-color="#071B42"/>
<stop offset="1" stop-color="#5E75A2"/>
</linearGradient>
</defs>
</svg>
