<svg width="230" height="70" viewBox="0 0 230 70" fill="none" xmlns="http://www.w3.org/2000/svg">
<path fill-rule="evenodd" clip-rule="evenodd" d="M91.3327 6.4873H210.727C221.301 6.4873 229.951 15.138 229.951 25.7117V42.9135C229.951 53.487 221.3 62.1377 210.727 62.1377H91.3327C87.2225 62.1377 83.4033 60.8301 80.2692 58.6109L80.4655 58.5507C80.3032 58.4399 80.5658 58.5927 80.315 58.441C80.198 58.3705 80.0859 58.3722 79.9664 58.3913L79.7522 58.231C79.7142 57.8265 79.5197 58.328 79.4141 57.7035C79.2615 56.8015 80.0281 56.6237 80.8698 56.1537C80.8804 55.6056 80.66 55.6378 80.9703 55.0799C81.2982 54.4904 82.0633 54.6194 82.3355 54.1181C82.5293 53.7611 82.6105 53.8528 83.3689 53.6628C83.3813 53.6395 83.4639 53.4592 83.4783 53.4401L84.0207 53.0749L83.8618 52.5186L83.5421 52.9111C83.0012 52.8866 83.0774 52.9037 82.7832 53.3196C82.0648 53.4248 81.9723 52.8684 81.6277 52.4919C81.1084 51.9245 80.6367 52.5272 80.4575 50.2605C80.4311 49.9273 80.4129 49.2584 80.4948 48.9454C80.5494 48.7367 80.6427 48.7622 80.9004 47.9592C81.0369 47.5334 81.4197 46.6502 81.9791 46.835L82.3268 46.9735C82.5899 46.6438 82.8638 46.0832 83.2301 45.8064C83.5942 45.5311 83.5216 45.8126 83.9275 45.5113C84.3906 45.1675 84.1026 44.592 85.3523 43.7819L86.6308 42.9552C86.5596 42.4909 86.2608 42.5842 86.7572 42.1189L89.2014 40.4114C90.3534 39.7882 91.7827 39.3025 93.0266 38.7617C95.6061 37.6399 98.861 37.2596 101.562 36.2625C102.144 36.0478 102.94 35.6693 103.421 35.3832C103.784 35.1669 103.827 34.9607 105.047 34.2722C106.176 33.6344 107.842 33.3303 108.037 31.8197C108.154 30.9128 107.885 30.261 107.688 29.4909C107.588 29.0988 107.574 28.7662 107.472 28.3899C106.624 25.2605 106.646 25.7438 107.007 22.3793L106.247 22.2941C106.391 22.1839 106.648 22.1622 106.836 22.1271L106.224 21.4971C106.142 21.5363 106.254 21.5437 105.994 21.6303C105.873 21.1336 105.366 19.951 105.429 19.3955C105.527 18.5226 106.77 17.812 107.222 16.8658C107.549 16.1784 107.349 16.5035 107.859 16.0967C108.487 15.5957 108.42 14.5749 108.498 13.8203L107.983 13.2617C106.927 13.7277 107.808 12.306 106.897 12.3519C106.142 12.3899 106.552 12.7231 105.879 12.0571C105.213 11.3984 104.583 11.6295 103.772 11.7738C103.611 12.0238 103.692 11.9885 103.388 12.1155C103.193 12.197 102.978 12.2198 102.696 12.2256C101.513 12.25 101.333 11.6577 100.856 11.6195C100.559 11.5958 100.535 11.7789 100.34 11.8993C99.6471 12.3255 99.2859 11.6408 98.6245 11.4566C98.4274 11.4017 98.3299 11.2894 98.0624 11.2266C95.6603 10.6616 95.8565 11.7094 95.2846 11.3804L94.3977 10.599C94.3904 10.5954 93.9135 10.5215 93.6511 10.4087C93.636 10.4262 93.6167 10.4331 93.6096 10.4644C93.5898 10.551 93.4615 10.6234 93.4022 10.6767L92.4012 10.4045L92.0749 10.4993C91.8411 10.0151 92.0134 10.3603 91.7765 10.1569C91.6255 10.0275 91.5734 9.91052 91.4941 9.73402C91.1742 9.75467 91.1058 9.86412 90.8776 9.7913L89.4141 9.04736L89.1712 9.22629C88.7796 8.6675 88.8453 8.82513 88.0237 9.00473L88.2772 8.51476L87.6321 8.47391C88.1231 6.9465 87.7131 7.78502 87.686 7.26331C87.6722 7.00156 87.8423 7.02842 88.0272 6.94362C88.0013 6.88478 87.9791 6.83239 87.9597 6.78577C89.0556 6.58974 90.1827 6.4873 91.3327 6.4873ZM72.1123 25.3899C72.1238 24.7103 72.1705 24.039 72.2513 23.3778C72.4158 23.4218 72.5556 23.5386 72.8807 23.8134C73.0538 23.9599 73.1755 23.9426 73.2226 24.2226C73.3502 24.9825 72.9819 24.9385 72.4673 25.1719C72.2411 25.2744 72.1918 25.3208 72.1123 25.3899ZM73.2674 19.1544C73.3309 18.9805 73.3971 18.8076 73.4654 18.6362L73.566 18.7263L73.2674 19.1544Z" fill="#F5F5F5"/>
<path fill-rule="evenodd" clip-rule="evenodd" d="M79.8718 0.794102C79.8551 1.11979 79.8389 1.01122 79.7743 1.30072C79.7153 1.56624 79.7754 1.78425 79.7859 1.85729L79.2559 2.51687C79.1194 3.05657 79.3341 2.73155 79.0253 3.19732L78.8157 3.981C78.7091 4.15972 78.5957 4.11754 78.3999 4.55711C77.9632 4.38905 77.9263 4.42546 77.4037 4.39305C76.6735 4.34776 76.9451 4.44189 76.4469 4.60573C76.0615 4.73227 75.6863 4.59663 75.3564 4.67788L74.7494 5.22113L73.8452 5.72331C73.9884 5.99527 74.3114 6.20595 74.5092 6.30253C74.9006 6.49367 74.6608 6.48235 74.9836 6.66329C75.3291 6.85666 75.4012 6.92259 75.6881 7.21697L75.5522 7.26248C75.4643 7.29556 75.4427 7.2909 75.3622 7.3353C75.2201 7.41367 74.6153 8.32767 74.4153 8.54257C74.293 8.674 74.1724 8.9484 74.0836 9.12956L73.4531 9.07339C73.22 9.62086 73.2784 9.83221 72.8772 10.2414C72.6175 10.5064 72.5072 10.8754 72.3191 11.1998C72.4592 11.62 72.5897 11.4347 72.5362 11.8267C72.5822 12.2476 72.7651 12.0518 72.7613 13.1179C72.542 13.2203 71.9701 13.6523 71.8212 13.8381C71.6973 14.103 71.7719 14.1176 71.7306 14.4277L71.5066 14.9337C71.7048 15.3082 71.7983 15.0383 71.6977 15.4456C71.6067 15.8137 71.739 16.1099 71.5512 16.2928C71.541 16.3028 71.5206 16.3215 71.5092 16.3328C71.4975 16.3443 71.4786 16.3619 71.4666 16.3745C71.4542 16.3872 71.4362 16.4047 71.424 16.418L71.1425 16.7593L71.5183 17.0081C71.4369 17.2275 71.3778 17.3149 71.0774 17.3265C70.6769 17.3423 70.9045 17.1802 70.5078 17.249C70.3308 17.5416 70.528 17.5771 70.3464 17.9969L70.0913 18.6676C70.3028 18.8259 70.4629 18.8717 70.6265 19.0597C70.6374 19.0726 70.6514 19.0934 70.6627 19.1056L71.0077 19.4145L70.2567 20.491C69.2206 20.5918 70.0085 20.4652 69.5625 21.1179C69.3675 21.403 69.2397 21.3253 69.0578 21.6143C68.9519 21.7826 69.1573 21.5928 68.9171 21.797C68.6405 22.0324 68.1365 22.3616 68.0344 22.89C67.9838 23.1522 68.0635 23.0556 68.1274 23.1348L68.2153 23.2314L67.9929 23.691L68.5457 23.6965L68.6786 24.0744C69.784 24.0526 69.6171 23.9052 70.3224 24.5015C70.4955 24.648 70.6172 24.6307 70.6643 24.9107C70.7919 25.6706 70.4236 25.6267 69.909 25.86C69.5578 26.0192 69.6328 26.0434 69.3602 26.2261C68.7248 26.6521 68.4409 26.1584 67.8332 26.4323C67.3653 26.6432 67.2227 26.8548 66.6635 27.0843C66.182 27.2819 65.7755 27.3421 65.248 27.5785C64.0352 28.1218 62.5812 28.5949 61.4266 29.3162C61.1872 29.4658 60.3394 29.7242 60.0184 29.8295C58.2068 30.4229 57.8088 31.0745 54.6947 31.9612C54.2063 32.1001 54.2342 32.21 53.9263 32.5204C53.3267 33.1251 52.5758 33.3893 51.7964 33.7046C51.4589 33.8411 51.4261 33.9872 51.2223 34.1355C50.8886 34.3779 51.0598 34.0804 50.5656 34.2134L49.8616 34.5256L50.031 35.014C49.9313 35.1177 49.3505 35.6269 49.1301 35.692C48.7762 35.7966 48.9103 35.6312 48.54 35.5954L47.8134 35.5521L47.2894 36.1982L46.797 35.2628L47.3771 34.092C46.8465 34.1739 46.8452 34.1615 46.3768 33.8722C45.8946 34.062 45.8859 34.2802 45.3313 34.1608C44.9663 34.082 44.8336 34.2063 44.5854 33.8174C44.2342 33.267 44.0328 33.578 43.3246 33.6158L42.3116 33.4586C42.126 33.4784 42.094 33.5145 41.9639 33.5132C41.474 33.5077 41.9051 33.4764 41.6127 33.4315C41.5246 33.4178 41.4411 33.4364 41.3081 33.5006C40.9958 33.6515 41.1971 33.531 41.0166 33.7206C40.5975 34.1606 39.1031 35.077 38.4775 35.174L37.7345 35.2629C37.3484 35.3184 37.2969 35.1532 37.0851 34.9041C36.7636 35.0577 37.0236 35.125 35.7577 35.6076C35.7431 35.5925 35.7233 35.5455 35.7164 35.5599L35.587 35.4318C35.2817 35.184 35.2809 35.1472 35.0941 34.7698C34.7381 34.9054 34.5622 35.2482 34.2645 35.5008L33.5179 35.0357C33.0213 35.1905 32.9937 35.4369 32.7711 35.66L32.4394 35.2446C31.9159 35.2768 31.5773 35.5261 31.1948 35.8378C30.9104 35.8079 30.7359 35.7175 30.5743 35.5506L30.192 35.0262C29.825 35.1794 29.8133 35.2184 29.5009 35.3938C29.2461 35.537 28.9233 35.5805 28.6486 35.7106C28.0292 36.0041 28.3895 35.8565 27.8114 35.9009C27.7482 35.9058 27.4886 35.9635 27.3918 36.0137C27.2418 36.0918 27.2487 36.1871 27.0846 36.3027C26.8619 36.4597 24.9025 37.0718 24.6121 37.2218L23.8113 37.6161C23.5687 37.5029 23.461 37.3146 23.0889 37.413C22.7135 37.5122 23.0854 37.4569 22.7794 37.5548C22.5656 37.6234 22.5568 37.5742 22.3312 37.6132C21.617 37.7367 22.4358 38.0013 21.2185 37.9898C21.1128 38.2444 20.889 38.2571 20.7518 38.4378C20.4852 38.7892 20.8686 38.9062 20.1524 39.0969C19.6893 39.2201 19.9817 39.4366 19.0999 39.4253C18.762 40.1024 18.52 39.8078 18.0736 40.0535C17.5614 40.3357 18.1597 40.3777 16.9396 40.4329L16.7957 39.8804C16.2327 39.79 16.1279 39.935 15.6357 40.1157C15.4284 40.1916 15.401 40.2209 15.1799 40.2245C14.6589 40.2329 14.3798 40.0318 13.8819 40.3524L13.5242 40.5455C12.8551 40.044 13.3282 40.0686 11.6196 40.2451C11.3117 41.0475 11.6194 40.7018 10.7021 41.3179C10.5293 41.4337 10.264 41.5399 10.0716 41.6848L9.54207 42.1539C9.12803 42.1471 9.3063 42.0887 9.24081 42.0811C8.98772 42.0523 9.20773 42.1899 8.17273 42.0165C7.93585 41.9768 7.69054 42.0121 7.43367 42.1166C7.20856 42.2085 6.70571 42.853 6.51101 43.103C6.02549 43.7262 4.97162 43.1876 4.3984 42.9691C4.12778 43.1152 4.16285 43.1945 3.97681 43.3022C3.59785 43.5219 3.12453 43.414 2.71004 43.6935L2.32197 44.1413C2.83925 44.4348 4.43192 44.1928 4.53095 45.9396L4.72165 47.0525L5.82547 47.6129L5.72001 48.3024L6.62069 48.2172L6.6571 49.6011C7.13131 49.6622 7.32446 49.7255 7.79977 49.6882L8.13167 50.0469C8.32237 49.8847 8.36211 49.7042 8.48311 49.4797L9.18953 49.559L9.60868 50.1979C9.90306 50.223 10.0554 50.2703 10.2887 50.4379L10.8695 49.5594C11.182 49.7108 10.8726 49.7805 11.3623 49.7883C11.5692 49.7914 11.7857 49.6715 11.9802 49.5727L13.0904 49.5914C12.8897 48.6163 13.5127 48.8144 14.2073 48.8439C14.014 49.4395 14.0983 48.9236 14.2708 49.7448L14.6058 49.1247C15.3087 49.1376 15.1029 49.1922 15.7068 49.3552C16.0604 49.4506 16.0191 49.5055 16.1541 49.5474L16.6767 49.4331C17.2297 49.7268 16.676 49.6948 17.4322 49.6276C17.4715 49.6242 17.6284 49.6171 17.6631 49.6209C18.0052 49.66 17.8052 49.6684 17.9763 49.7341C17.997 49.7421 18.0154 49.7539 18.0369 49.761L18.4188 49.8121C18.6705 50.3034 18.3529 49.9601 18.7851 50.2616L18.8692 50.7432C19.1721 50.9228 19.1743 50.8246 19.3645 51.0793C19.6476 51.458 19.4791 51.6088 19.3201 51.9262C19.0575 52.4517 19.129 52.2932 18.5071 52.5481L18.5547 53.0702L17.8382 53.0502C17.376 53.6426 17.3365 53.7442 17.0861 54.4436C17.3429 54.535 17.4535 54.432 17.4664 54.6713C17.4815 54.9488 17.2817 54.886 17.1156 54.9677C16.2971 55.5971 17.4084 55.3267 15.316 56.1352L15.1835 55.9028C14.0501 56.1459 14.2384 56.5748 13.0957 56.195C12.3647 55.9519 12.5547 56.4247 12.2261 56.6985L11.4502 57.0899C10.8011 55.8604 10.9602 55.8546 10.0425 56.5062L9.21927 57.1458C9.09895 57.1922 8.03909 56.7842 7.29558 57.4093C7.1384 57.5417 7.14551 57.5161 6.95302 57.6489C6.28811 58.1082 6.87377 57.9333 5.72577 58.1007C5.28997 58.7196 5.25001 58.3071 4.74872 58.3873C4.72386 58.3913 3.92597 58.8355 3.88201 58.8846C3.57364 59.2298 3.9213 59.6585 3.24019 59.6876C2.97245 59.6989 2.89474 59.5939 2.67806 59.7573C2.54575 59.8572 2.65475 59.7313 2.52999 59.9509C2.35305 60.2626 2.55929 60.2741 2.48447 60.8032C2.41698 61.282 2.24626 61.4143 2.12727 61.8701C1.87729 62.829 2.0378 62.3821 2.06444 62.8789C2.09685 63.4761 1.85953 64.0143 1.76273 64.5691C1.3549 64.6854 0.543248 65.0228 0.378077 65.3514C0.216234 65.6731 0.175606 66.0101 0 66.3114L0.403387 66.8799C0.919775 66.8857 1.17908 66.9092 1.43971 67.2613L1.50965 67.3572C1.63797 67.5346 1.66461 67.7682 1.72033 67.9793C2.01427 67.9391 2.00161 67.8554 2.24382 67.9567C2.25981 67.9633 2.63144 68.2106 2.6421 68.2219L3.10654 69.237C3.13984 69.3411 3.52147 69.5111 3.60317 69.5782L4.14953 70L4.2865 69.8288C4.29672 69.8175 4.3147 69.7986 4.3258 69.7871C4.3369 69.7753 4.35488 69.7576 4.36643 69.7458C4.73496 69.3688 4.98471 69.5482 5.50355 69.6022L5.64297 69.3042C5.98175 69.4234 5.76152 69.5063 6.16246 69.4019C6.638 69.2245 6.58516 69.0294 7.0627 69.288L7.31556 69.4388C7.54623 69.5888 7.61216 69.7363 7.73782 69.9605C8.08415 69.732 8.00001 70.1043 8.43181 69.5831C8.79635 69.1428 8.63006 69.2887 8.77392 68.7512C8.89603 68.2943 9.04211 68.5021 9.34981 68.2593C9.73743 67.9531 9.51099 68.0208 10.0411 67.9555C9.92303 67.7764 9.76696 67.5175 9.52142 67.484L8.2249 67.4525C8.24266 67.0697 8.47821 66.7643 8.65715 66.4583L7.9545 66.4768C7.80043 66.7536 7.90899 66.7629 7.61083 66.9421C7.10066 67.2485 7.16238 67.5104 6.7863 67.9496C6.68284 68.0705 6.66553 68.1938 6.6178 68.3696L6.25371 68.0384C6.66797 67.6203 6.96857 67.0604 7.29403 66.5527C6.99143 66.6051 7.12442 66.6268 6.82604 66.5995C6.60448 66.5793 6.65798 66.4821 6.36582 66.6029C6.05434 66.7316 6.11406 66.8111 5.52508 66.9885C5.64008 66.5183 5.73021 66.7221 6.12627 66.0161C6.69905 66.1011 6.56207 65.9653 7.03561 66.1857L7.08201 65.5912L6.38957 65.3066C6.26258 65.5013 6.291 65.6012 6.15802 65.7302L5.381 66.2772C5.3659 66.2874 5.34814 66.3036 5.33326 66.314C5.13568 66.4521 4.99271 66.4661 4.69588 66.4961C4.60064 66.023 4.43725 65.7335 4.61174 65.3428C4.70432 65.1358 4.83086 65.0548 5.05775 64.8814L4.89769 64.4705C5.28798 64.1635 5.02556 64.4196 5.31772 63.6406C5.02623 63.3407 5.17764 63.0146 5.30685 62.6458C5.38877 62.4118 5.48933 62.1718 5.63586 61.9711C5.73421 61.8366 5.6201 61.9247 5.77905 61.7829C5.98707 61.5977 6.24283 61.6257 6.53432 61.546C6.95724 61.4301 7.51759 61.4579 7.96582 61.4374L8.13166 61.7391C8.57279 61.5242 8.9331 61.1952 9.45659 60.9899C10.8137 60.4573 10.9241 60.0188 12.1087 60.8618L11.9526 60.3951L12.3693 60.1187L12.0792 59.9897C12.5374 59.3042 11.7706 59.8792 12.7117 58.6865C13.0223 58.7409 12.271 58.5378 12.9403 58.8306C13.1834 58.9367 13.0886 58.8546 13.3595 58.897L13.637 59.375C13.6801 59.3483 13.7364 59.2922 13.7826 59.2536L14.4402 58.7321L13.9815 58.7849L14.1618 58.1431C14.8527 58.2869 14.4242 57.9775 15.2712 58.4961L15.0707 58.994C15.3205 59.1374 15.485 59.0509 15.8126 59.0349C15.5918 59.4769 15.574 59.5872 15.1906 59.8441C14.5858 60.2495 15.0152 59.7175 14.2542 60.6535C14.7954 61.0738 15.1344 60.6593 15.8819 60.2868L15.8111 60.8467C16.2016 60.7972 16.133 60.7663 16.3925 60.5374C16.601 60.3536 16.5757 60.3187 16.8441 60.2521C16.8716 60.2453 16.9584 60.2293 16.9871 60.2239C17.4768 60.1347 17.5552 60.3813 17.9821 60.5705L17.3747 61.6201L18.5848 61.2332C18.8302 61.3977 18.6637 61.3089 18.7649 61.4665L18.8337 61.5831C19.2307 61.3275 19.1598 61.5016 19.3315 61.0889C19.7954 61.0665 19.8574 61.2392 20.3305 61.076C20.5889 60.9868 21.0325 60.7124 21.211 60.4577C21.3737 60.2255 21.2589 60.3591 21.3271 60.237C21.4527 60.0117 21.4099 60.118 21.6166 59.9558C21.9385 59.4267 21.2785 58.7616 22.7956 58.7676L22.5179 59.7011C23.1957 59.8383 22.8856 59.4787 23.5682 58.8313C23.9221 58.4956 23.7711 58.7099 24.2225 58.4974C24.6565 58.2932 24.5202 58.4033 25.0281 58.3169C25.7184 58.1995 26.6614 58.4526 27.1563 57.9342C27.5581 57.5135 27.5579 57.6542 28.3145 57.5647L28.0181 58.2683C28.5243 58.3882 29.0109 57.9135 29.4321 57.9939C29.7438 58.0532 31.0052 58.8797 31.2328 59.0384L32.171 59.823C32.6654 59.785 32.6869 59.4287 33.1378 59.9535C33.4402 60.3056 33.1103 60.1318 33.573 60.2637C33.9777 60.3791 34.1422 60.5008 34.5338 60.7215C34.9616 60.9626 35.3785 61.3717 35.7881 61.6943C35.7191 61.8499 35.7064 61.9063 35.7577 62.1783C36.1991 62.0857 35.8874 62.1376 36.1935 61.8346C36.2865 61.7427 36.5494 61.5626 36.6282 61.5367C36.9765 61.4214 36.9026 61.5733 37.2365 61.3806C37.4545 61.2549 37.4163 61.1928 37.7829 61.1011C39.11 60.769 40.4871 60.3729 41.8989 60.4884C42.1797 60.5112 42.3169 60.5652 42.5662 60.5903C43.0129 60.6355 42.9738 60.6307 43.2535 60.4337C43.8789 59.9931 43.9926 60.3361 44.5066 60.1172C44.8935 60.0006 45.5846 60.0965 45.7949 59.7333C46.1485 59.1228 46.5111 59.4531 46.7086 58.6202L46.151 58.8777C46.1618 58.8504 46.1805 58.7853 46.1869 58.7973C46.1931 58.8084 46.2293 58.7076 46.2515 58.6364C46.3088 58.4519 46.2848 58.1846 46.26 57.9679L46.5452 57.7495L46.3055 57.5001C45.7585 56.9394 44.7816 58.0696 45.3713 56.7538C45.1031 56.623 44.8942 56.4241 44.6617 56.2369L44.7801 55.864C44.1735 55.8371 44.1755 56.0387 43.7524 55.4768C43.6039 55.2794 43.4216 54.4786 43.4851 54.2065C43.5852 53.7784 44.0439 53.6621 44.3094 53.4405C44.6391 53.1655 44.4038 53.3084 44.8032 53.1937L45.2154 52.8125C45.7052 52.7525 45.9931 52.6582 46.341 52.4857L47.582 52.4033C47.6608 52.3711 47.8799 51.7662 48.5839 51.581C48.8825 51.5026 49.6722 51.8285 49.9739 51.9122C50.0649 52.4251 50.3604 53.179 49.8751 53.5229C49.6922 53.6526 49.3572 53.7493 49.2051 53.9398L48.7766 54.5963C48.8486 54.7528 48.9753 54.8323 49.1116 54.9282C48.9287 55.1715 48.9247 55.199 48.6441 55.3729C48.1543 55.6759 48.3952 55.7094 48.1692 56.2265C47.9332 56.7657 47.6102 56.3675 47.8031 57.0073L47.3751 56.9147C47.443 57.4442 47.5061 57.1845 47.3327 57.7017C47.586 57.6593 47.7383 57.6527 47.9297 57.7626L48.351 57.9983C48.3237 58.9474 47.6695 58.0585 47.5916 58.3611C47.5416 58.5553 47.6337 58.4561 47.7523 58.602L47.9372 58.9154C48.595 58.9603 49.378 58.9356 49.7781 59.5189C50.7172 59.4995 51.1406 59.2715 52.2322 59.4181C53.415 59.577 53.4952 59.3603 54.5293 59.248C55.279 59.1663 56.1517 59.1206 56.9103 59.0899C57.9251 59.0489 58.3651 59.0165 59.4017 59.0771C59.6323 58.6353 59.458 58.6712 60.1079 58.564C60.4817 58.5023 60.8949 58.4461 61.233 58.4175C62.8863 58.2774 67.0953 58.4175 68.8598 58.4514C69.7316 58.4681 76.2005 58.6959 76.8469 59.302C77.108 59.5466 76.9619 59.5495 77.4872 59.9609L77.3518 59.409L77.9072 59.2389C77.745 59.1281 78.0076 59.2809 77.7567 59.1292C77.5749 59.0193 77.4048 59.0848 77.2004 59.1175C77.2059 58.3717 76.9746 59.0944 76.8558 58.3917C76.7033 57.4897 77.4699 57.3119 78.3115 56.8419C78.3222 56.2938 78.1017 56.326 78.4121 55.7681C78.74 55.1786 79.505 55.3076 79.7772 54.8063C79.971 54.4493 80.0523 54.541 80.8106 54.351C80.8231 54.3277 80.9057 54.1474 80.9201 54.1283L81.4625 53.7631L81.3035 53.2068L80.9838 53.5993C80.443 53.5748 80.5191 53.5919 80.225 54.0078C79.5066 54.113 79.414 53.5566 79.0694 53.1801C78.5502 52.6127 78.0784 53.2154 77.8992 50.9487C77.8728 50.6155 77.8546 49.9466 77.9365 49.6336C77.9912 49.4249 78.0844 49.4504 78.3421 48.6474C78.4787 48.2216 78.8614 47.3385 79.4209 47.5232L79.7685 47.6617C80.0316 47.332 80.3056 46.7715 80.6719 46.4946C81.036 46.2193 80.9634 46.5008 81.3692 46.1996C81.8323 45.8557 81.5444 45.2802 82.7941 44.4701L84.0726 43.6434C84.0013 43.1792 83.7025 43.2724 84.1989 42.8071L86.6432 41.0996C87.7952 40.4765 89.2245 39.9907 90.4684 39.4499C93.0478 38.3281 96.3027 37.9478 99.0039 36.9508C99.5855 36.7361 100.382 36.3576 100.862 36.0714C101.226 35.8552 101.269 35.6489 102.488 34.9605C103.618 34.3226 105.284 34.0185 105.478 32.508C105.596 31.6011 105.327 30.9492 105.13 30.1791C105.029 29.7871 105.015 29.4545 104.913 29.0782C104.066 25.9488 104.088 26.4321 104.449 23.0676L103.689 22.9823C103.832 22.8722 104.09 22.8505 104.278 22.8154L103.666 22.1853C103.583 22.2246 103.695 22.2319 103.436 22.3185C103.315 21.8219 102.807 20.6393 102.87 20.0838C102.969 19.2109 104.212 18.5002 104.663 17.5541C104.991 16.8667 104.79 17.1917 105.301 16.785C105.929 16.284 105.862 15.2632 105.94 14.5086L105.424 13.95C104.369 14.416 105.25 12.9943 104.339 13.0402C103.583 13.0782 103.994 13.4114 103.321 12.7454C102.655 12.0867 102.025 12.3178 101.214 12.4621C101.053 12.7121 101.134 12.6768 100.83 12.8038C100.635 12.8853 100.42 12.9081 100.138 12.9139C98.9546 12.9383 98.7747 12.346 98.2979 12.3078C98.001 12.2841 97.9768 12.4672 97.7815 12.5876C97.0888 13.0138 96.7276 12.3291 96.0662 12.1449C95.8691 12.09 95.7716 11.9777 95.5041 11.9149C93.102 11.3499 93.2983 12.3977 92.7264 12.0687L91.8395 11.2873C91.8321 11.2837 91.3553 11.2098 91.0929 11.097C91.0778 11.1145 91.0584 11.1214 91.0513 11.1527C91.0316 11.2393 90.9033 11.3117 90.844 11.365L89.843 11.0928L89.5166 11.1876C89.2828 10.7034 89.4551 11.0486 89.2182 10.8452C89.0673 10.7158 89.0151 10.5988 88.9358 10.4223C88.6159 10.443 88.5476 10.5524 88.3193 10.4796L86.8559 9.73566L86.613 9.9146C86.2214 9.3558 86.2871 9.51343 85.4654 9.69303L85.719 9.20306L85.0738 9.16221C85.5649 7.63481 85.1548 8.47333 85.1278 7.95161C85.114 7.68987 85.284 7.71673 85.469 7.63192C85.1275 6.85623 85.3924 7.19745 85.4714 6.85201C85.5536 6.49303 85.4022 6.87488 85.4033 6.47416C85.4048 5.95311 85.7227 6.26902 85.5522 5.63431C85.4135 5.11703 85.2348 4.82665 84.9739 4.38552L85.3769 4.10934C85.4008 3.7437 85.3007 3.52036 85.3216 3.33409C85.3436 3.13518 85.4679 2.99287 85.4756 2.78929L84.8915 2.8701C84.793 2.30043 84.8429 1.94123 84.8329 1.36334C84.3257 1.27565 84.7124 1.36867 84.4231 1.19373C83.5711 0.678229 83.5864 1.11203 83.0655 1.05298C82.6699 1.00813 82.6215 0.748605 82.4173 0.5377L81.718 0L81.3166 0.0202026C80.8974 0.716194 80.6812 0.784556 79.8718 0.794102Z" fill="url(#paint0_linear_1099_25)"/>
<path d="M143.489 48.6825L136.435 36.3363H133.413V48.6825H127V17H139.001C141.474 17 143.58 17.4312 145.321 18.2938C147.062 19.1562 148.367 20.3207 149.237 21.7889C150.107 23.256 150.542 24.8977 150.542 26.7136C150.542 28.8011 149.932 30.6849 148.711 32.3649C147.489 34.0441 145.672 35.2013 143.26 35.8371L150.909 48.6825H143.489ZM133.413 31.5705H138.771C140.512 31.5705 141.81 31.1538 142.665 30.3225C143.519 29.4903 143.947 28.3322 143.947 26.8494C143.947 25.3969 143.519 24.27 142.665 23.468C141.81 22.6661 140.512 22.2651 138.771 22.2651H133.413V31.5705ZM175 17.0001V39.2414C175 42.3282 174.099 44.7258 172.298 46.4353C170.496 48.1456 168.084 49 165.061 49C162.008 49 159.542 48.1227 157.664 46.3675C155.786 44.6121 154.848 42.1613 154.848 39.0148H161.259C161.29 40.3766 161.619 41.4353 162.245 42.1915C162.871 42.9484 163.779 43.3265 164.97 43.3265C166.13 43.3265 167.016 42.9632 167.626 42.2373C168.237 41.5106 168.542 40.5123 168.542 39.2414V17.0001H175Z" fill="#E86000"/>
<defs>
<linearGradient id="paint0_linear_1099_25" x1="52.9699" y1="0" x2="52.9699" y2="70" gradientUnits="userSpaceOnUse">
<stop stop-color="#071B42"/>
<stop offset="1" stop-color="#5E75A2"/>
</linearGradient>
</defs>
</svg>
