<svg width="241" height="61" viewBox="0 0 241 61" fill="none" xmlns="http://www.w3.org/2000/svg">
<path fill-rule="evenodd" clip-rule="evenodd" d="M88.9121 0.0889893H219.391C230.946 0.0889893 240.4 9.54283 240.4 21.0983V39.897C240.4 51.4524 230.946 60.9063 219.391 60.9063H88.9121C77.3567 60.9063 67.9028 51.4525 67.9028 39.897V21.0983C67.9028 9.54287 77.3567 0.0889893 88.9121 0.0889893Z" fill="#F5F5F5"/>
<path fill-rule="evenodd" clip-rule="evenodd" d="M68.7212 48.3511C68.1889 46.6268 67.9028 44.8171 67.9028 42.9529V24.1543C67.9028 18.2284 70.7735 12.8564 75.3658 9.0271C75.6394 9.03996 75.9172 9.0863 76.203 9.18359C76.7477 9.36725 77.7973 9.72196 78.4048 9.73846C79.0999 9.75762 79.2217 9.87384 79.7074 9.90805C80.1766 9.94129 80.5804 9.90101 81.0991 9.9556C81.6394 10.0114 81.7393 10.188 82.1513 10.3006C83.3472 10.6327 84.4035 10.7417 85.6103 11.0763C86.3862 11.2932 86.222 11.1248 86.7681 11.1117C86.9294 11.1059 89.7098 11.9443 89.9 12.0203C90.9811 12.4388 91.0864 12.0652 91.6872 12.976C92.2153 13.773 92.4492 13.5631 93.2758 14.0789C93.4428 14.1869 93.797 14.6042 93.9653 14.7716C94.2145 15.0169 94.2623 15.202 94.5018 15.5091C95.3119 16.5563 94.9424 17.5702 95.6511 18.2924C95.9769 18.6256 96.0288 18.5853 96.542 18.5615C96.836 19.1273 96.7431 19.2908 96.8649 19.4985C96.9949 19.7236 97.2931 19.7758 97.3998 20.1342C97.5709 20.7033 97.4491 20.9037 98.0525 21.3519C98.1265 21.4089 98.184 21.4339 98.266 21.4812C98.6246 21.6922 98.4698 22.1311 98.6273 22.4667C98.9242 22.8522 98.7449 22.7763 98.8366 23.253C98.9596 23.8887 99.5592 23.9408 99.5742 24.632C99.5866 25.11 99.4141 25.1408 99.678 25.5761C99.9476 26.0208 99.6892 26.7596 100.026 27.2031C100.306 27.5779 100.313 27.3906 100.629 27.6136C100.48 28.331 100.258 28.8953 100.44 29.1692C100.752 29.6331 100.422 29.5489 100.923 30.2795C101.33 30.8688 100.714 32.0499 101.238 32.6583C101.514 32.9784 101.529 32.7258 101.904 32.9167C101.93 35.9065 102.056 34.698 102.832 35.3752C103.073 35.5838 103.466 36.2384 103.444 36.5907C103.423 36.9061 103.233 37.4005 103.499 37.6912L103.773 37.9011L103.828 41.2832L104.453 42.251C104.765 42.775 105.209 42.456 105.643 42.7241C105.733 43.4415 105.888 44.0713 105.922 44.8184C106.009 46.6268 106.097 46.5628 107.307 46.9197C107.435 47.1521 107.584 47.5626 107.675 47.8186C107.814 48.2242 107.965 49.3852 107.973 49.8762L106.497 50.5036C105.882 50.5415 106.076 50.5711 105.751 50.8331C104.989 51.4452 104.575 50.8581 103.812 50.3234L103.505 50.5C103.018 50.7775 102.736 51.7085 101.961 51.8793C100.161 52.2752 100.236 51.2992 99.7343 50.8807C98.9092 51.5602 99.2144 51.1393 98.4659 51.4367C97.8186 51.6917 97.6803 51.6158 96.8581 51.6243C95.9357 51.6325 95.9262 51.6124 95.4788 51.1534C94.2296 49.8726 93.6247 50.2307 92.5191 49.9568C92.5041 49.9522 92.4781 49.9461 92.4643 49.9403C92.4492 49.9378 92.4218 49.9342 92.4109 49.9284C92.0826 49.85 92.0072 49.7636 91.6488 49.8549C90.8853 50.0504 90.9139 49.7445 90.0917 49.7387C89.1023 49.735 89.0873 49.9936 88.7001 50.1465C87.255 49.2168 87.9079 49.4303 86.4204 49.1292C85.7404 48.9904 85.4749 48.822 84.7306 48.9465C84.4487 48.9926 84.2912 49.1493 84.1134 49.2784C83.5442 49.6923 83.2664 49.5062 82.4604 49.7078C81.7367 49.8869 81.5123 49.8845 80.7186 49.9308C79.6691 49.9924 76.4658 50.2984 75.6135 50.0541C75.0455 49.8927 75.3452 50.0504 74.8211 50.0114C73.5772 49.9189 74.0617 49.4266 73.7866 49.1457L72.2474 47.8923L71.6384 47.7024C69.7009 48.7485 70.7997 48.069 68.992 48.3167L68.7212 48.3511Z" fill="#F5F5F5"/>
<path fill-rule="evenodd" clip-rule="evenodd" d="M26.7963 2.63557L25.6762 6.25082C24.9138 6.67467 24.3549 6.20787 24.169 7.34648C24.0647 7.98627 23.374 8.18861 23.167 8.96256C23.0843 9.27214 23.0236 9.72802 22.9132 10.0041C22.7892 10.3135 22.4818 10.5321 22.5733 10.9232C22.7548 11.6986 22.7123 11.2196 22.5289 11.9618L22.7298 13.0652L21.2542 14.2106C20.8803 14.4664 20.8114 14.3729 20.6256 14.8638C20.383 15.5048 20.5014 15.3424 20.5263 15.9652C20.5508 16.5742 19.7725 16.9095 19.6796 17.797C19.6379 18.1942 19.4722 19.0111 19.0401 19.0506L18.4447 19.0365C17.9687 19.8828 18.1996 19.9485 17.1605 20.4032C16.587 20.6541 16.7374 20.5612 16.5816 21.1806C16.4754 21.6027 16.6219 21.2873 16.2897 21.5384C15.8979 21.8347 15.8528 22.5654 15.5233 22.8602C15.3862 22.9827 15.2727 22.9779 15.0941 23.0735C14.8932 23.1805 14.861 23.2557 14.6829 23.386C13.9888 23.8945 14.2132 23.8477 14.0448 25.4087L15.1822 25.4426C15.1756 26.278 13.7192 27.4568 13.3662 28.0178C13.085 28.4652 13.2704 29.4575 13.0112 29.9107L11.8959 31.0503L11.8894 31.6056C11.4488 31.8262 10.8961 31.9324 10.5516 32.2755C10.2961 32.53 9.62309 33.0472 9.50712 33.2387C9.13615 33.8508 9.79874 33.9884 9.0049 34.7478C8.66329 35.0743 8.24623 35.316 7.8185 35.5831L6.77378 35.167C6.6532 35.339 6.73351 35.3778 6.54111 35.5047C5.97751 35.8767 5.77492 35.084 5.56846 34.6907C4.78432 34.675 4.13167 35.3669 4.10887 35.4069L4.00551 35.9388C3.63722 36.1921 3.53241 36.152 3.32958 36.549L3.05275 37.5789C2.88996 37.8368 2.51535 37.9445 2.1934 38.5724C1.68293 38.5988 1.44832 38.618 1.56817 39.1595L1.73607 39.5077C1.57933 39.9116 1.47622 39.9776 1.15305 40.1518C0.892482 40.2923 0.982736 40.4447 0.699117 40.663C0.537776 40.7875 0.197385 40.9272 0.244693 41.158L0.423017 41.7582C-0.454289 42.4521 0.209028 42.7343 0.82722 43.1846C1.4573 42.8978 0.911408 42.6224 2.1934 43.194L3.43172 42.5402C3.31041 42.775 2.87952 43.1722 2.66821 43.4459L2.81014 44.3972L3.7202 44.2754C4.40535 45.1701 4.37575 44.6323 5.15771 44.7984L5.94258 46.0326L6.43194 46.1129C7.29154 46.1333 7.10278 46.2527 7.65765 46.9912L8.20135 47.0024L8.35978 47.3937C9.22957 47.0012 9.14368 46.6659 10.3296 46.8828C11.6014 47.1154 10.2401 47.3845 12.3989 47.1453C12.6786 47.5429 12.5321 47.9061 13.0559 47.9442C13.513 47.9775 13.6809 47.6463 13.8349 47.3093C13.9844 46.9823 13.9441 47.1669 14.1579 46.8954C14.6967 46.2117 14.1639 46.7192 14.9917 45.8834L15.2113 45.6702C15.4974 45.9237 15.4467 46.0683 15.4704 46.3032L15.5328 46.6076C15.8768 46.5742 15.7553 46.5744 15.9615 46.4458L16.1119 46.3393C15.969 45.6197 16.1204 45.8339 16.256 45.2696C17.3068 45.2077 17.0911 45.4064 17.5933 44.4889C17.9709 44.5769 17.7091 44.4704 18.096 45.1265C18.6643 45.1502 18.6152 44.9952 18.9209 44.7453L19.7667 44.4093L19.7141 43.4808L20.5149 43.7314C21.1004 43.0647 20.695 43.917 21.5839 42.1168C21.6261 42.0282 21.5919 42.0047 21.6062 41.8904C21.7004 41.1322 22.839 41.3902 23.373 41.3969L23.3206 40.3646L22.971 40.18L23.2842 39.9097L23.0139 39.5863L23.5343 39.234C23.5734 38.7687 23.4686 38.684 23.8378 38.4877C25.2465 37.7395 24.8559 38.7131 26.3841 38.5163C26.9383 38.445 26.4586 38.3601 27.0596 38.1774C27.4075 38.0714 27.679 38.1578 27.9936 37.9882C28.9195 37.4893 28.4832 37.5643 29.6056 37.798L29.7563 37.4491C29.9331 37.4321 30.2726 37.4476 30.3985 37.4241C30.9167 37.3273 30.1893 37.1955 31.8454 37.2416C32.0112 36.8949 31.9738 36.4796 32.2875 36.3357C32.9147 36.1794 33.6362 36.5669 33.9053 35.9397C34.3107 34.9943 34.4667 35.9812 35.2952 35.1629C35.59 34.8715 36.1165 34.715 36.5061 34.5362C37.3012 35.0168 37.3228 34.5515 37.6865 33.87C39.2455 34.6364 38.4735 34.1655 39.158 34.2077L39.9838 34.5197C40.0069 35.0544 40.1141 35.7175 40.1675 36.1566C40.2716 37.0128 39.6927 36.4934 40.4368 37.4983L39.5003 38.3213C39.3484 39.448 38.7562 38.8565 38.0101 39.4012C37.1578 40.0237 37.3286 40.5759 37.1054 41.0915L35.903 41.0757C35.5888 41.5687 35.877 41.7281 35.2278 41.9957C34.7214 42.2041 34.5548 42.2794 34.3507 42.7352C34.2107 43.0487 34.3012 43.0953 34.2454 43.4393C34.2212 43.5885 33.979 43.9908 33.8667 44.264C33.7886 44.4544 33.7997 44.3343 33.7376 44.5367C33.6112 44.9486 33.7117 44.9761 33.8929 45.1815C34.2483 45.5845 33.9121 45.7148 33.824 46.3148C33.535 48.2866 34.4126 47.5134 31.2595 48.7505C31.3243 49.1816 31.3743 48.889 31.4116 49.2493C31.4294 49.4201 31.3704 49.7319 31.3561 49.898C31.3158 50.3678 31.3876 50.2224 31.4408 50.533C31.4956 50.8523 31.4138 50.9612 31.4286 51.2448C31.4478 51.618 31.5034 51.4726 31.6152 51.7245C31.7797 52.0949 31.6586 51.8853 31.5718 52.2308L31.2719 53.2527C32.5786 53.119 32.698 52.9613 34.0923 53.0048C35.1295 53.037 35.8702 52.8839 36.8693 52.8119C36.8832 53.5948 36.4166 53.179 37.4625 53.9752L37.2558 54.9392C37.7743 55.444 37.6178 55.3839 37.7081 56.1624C38.0892 56.367 38.0946 56.521 38.6725 56.5467C39.3523 56.5771 39.3945 56.6302 39.8926 56.3136C40.4497 55.9594 40.8966 55.4353 41.2622 54.8824C42.2213 54.8855 43.4688 54.3651 44.144 53.8192C44.4196 53.5963 44.9095 53.0412 45.2897 53.3008L45.7674 54.8589C45.9513 55.1859 46.0791 54.9955 46.2296 55.4892C46.716 55.1236 46.9288 54.8579 47.6726 54.5369C47.9238 54.4284 49.3178 53.9257 49.5386 53.9253C49.7679 53.9248 51.4068 55.3028 51.4461 55.6648L51.5126 56.9206L52.5762 56.8532C52.5211 57.2246 52.3421 57.8195 52.2113 58.1099C52.0973 58.3637 51.9939 58.435 51.9109 58.6114C51.809 58.8278 51.8134 59.0343 51.7561 59.2718C51.4992 60.3338 52.1446 60.4277 53.1044 61L53.7648 59.43L56.108 59.6738C56.3251 59.2895 57.2818 58.215 57.1687 57.7237C56.9256 56.6683 57.6493 57.3314 58.137 56.8013C58.9243 55.9463 58.6251 57.3367 59.0764 54.6172C58.9546 54.5342 58.7639 54.4607 58.6363 54.3455C58.3932 54.1254 58.5989 54.1465 58.2615 54.0017C57.7236 53.7707 57.908 53.8777 57.4972 53.3318C57.5999 52.9759 57.7481 53.0955 57.8575 52.6658C58.1428 51.544 57.9611 52.1046 58.3527 50.9896L58.539 50.056C58.8486 50.0026 58.8624 50.0412 59.0599 50.1428C59.5095 50.3748 59.848 50.705 60.2119 51.0624L60.9463 50.9418L60.7432 49.0098C60.3589 48.6815 60.3524 48.8938 59.9579 48.6818L59.6366 47.8867L58.3852 47.3052C58.3163 46.2663 58.122 46.0894 58.5519 45.1658C58.8867 44.4464 58.8848 44.6344 59.074 43.8289C59.082 43.7947 59.1356 43.6002 59.1414 43.5834L59.2475 43.3301L61.1612 43.3556L62.1405 41.5173C63.4455 41.7395 62.2581 42.4028 64.712 41.1441C64.956 41.3411 65.0732 41.4955 65.2511 41.7C65.8127 42.3466 65.2474 43.6065 65.0465 44.3382L66.2494 44.6226L66.2836 45.4972C66.7691 45.527 68.3168 45.3473 68.8474 45.2628C70.4132 45.0137 69.4607 45.6952 71.1406 44.6483L71.6673 44.8382L73.0032 46.0909C73.2388 46.3718 72.8205 46.8639 73.8965 46.9573C74.3531 46.9971 74.0945 46.8364 74.5838 46.9988C75.3241 47.244 78.1001 46.9369 79.0089 46.8758C79.6968 46.8294 79.893 46.8316 80.5185 46.6521C81.2182 46.4509 81.4591 46.6373 81.9526 46.2226C82.1067 46.0931 82.2418 45.9385 82.4876 45.8915C83.1318 45.768 83.3627 45.9342 83.9523 46.0729C85.2391 46.3762 84.6748 46.1627 85.9265 47.0919C86.2635 46.9388 86.2751 46.6807 87.132 46.6855C87.8446 46.6894 87.8208 46.9961 88.4815 46.8001C88.792 46.7081 88.8575 46.7954 89.1426 46.8748C89.1543 46.8779 89.1768 46.8833 89.1889 46.8867C89.2016 46.8903 89.2236 46.8976 89.237 46.9012C90.1946 47.1768 90.7177 46.8166 91.8024 48.0983C92.1909 48.5573 92.1977 48.5784 92.9968 48.5687C93.7104 48.56 93.8297 48.6379 94.3902 48.3807C95.0392 48.0828 94.7745 48.5057 95.489 47.8246C95.9262 48.2446 95.8585 49.2194 97.419 48.8235C98.0923 48.6527 98.3371 47.7222 98.7585 47.4449L99.0249 47.2688C99.6849 47.8043 100.044 48.3914 100.706 47.7778C100.988 47.5163 100.819 47.4859 101.351 47.4478L102.63 46.8216C102.624 46.3296 102.491 45.1692 102.371 44.7647C102.295 44.5076 102.165 44.0978 102.053 43.8641C101.004 43.507 100.929 43.5713 100.854 41.7643C100.822 41.0165 100.69 40.3862 100.61 39.6685C100.234 39.4007 99.8498 39.7192 99.581 39.1966L99.0395 38.2274L98.9905 34.846L98.753 34.6366C98.5225 34.3453 98.6882 33.8493 98.7049 33.5361C98.7238 33.1821 98.3842 32.5293 98.1765 32.3206C97.5037 31.6456 97.3931 32.8519 97.37 29.8631C97.0474 29.6712 97.0333 29.925 96.7931 29.6021C96.3404 28.9936 96.8736 27.8137 96.5214 27.2244C96.0851 26.4946 96.3722 26.5795 96.1038 26.1142C95.9451 25.8391 96.1361 25.2777 96.2656 24.5585C95.992 24.3343 95.9869 24.5229 95.7416 24.1495C95.4507 23.7065 95.6746 22.9643 95.4417 22.521C95.2127 22.0853 95.3604 22.0547 95.3517 21.5782C95.3391 20.8855 94.8184 20.8336 94.7124 20.198C94.6333 19.7224 94.7879 19.7976 94.5321 19.4116C94.3953 19.0749 94.528 18.6374 94.2179 18.4266C94.1466 18.3781 94.0974 18.3538 94.0316 18.297C93.5114 17.8482 93.6158 17.6485 93.4673 17.0791C93.3739 16.7212 93.1167 16.6693 93.0029 16.4432C92.8986 16.2355 92.9784 16.0725 92.7237 15.5057C92.2787 15.5307 92.2338 15.5707 91.9514 15.2384C91.3371 14.5151 91.6581 13.5015 90.9547 12.4553C90.7478 12.1474 90.7065 11.9616 90.4901 11.7163C90.3438 11.5498 90.0386 11.1311 89.8913 11.0246C89.1768 10.5075 88.9723 10.7194 88.5152 9.9209C87.9948 9.01132 87.9045 9.38277 86.9671 8.96377C86.8013 8.88977 84.3912 8.05152 84.2536 8.05565C83.7805 8.06948 83.921 8.23737 83.2497 8.02168C82.2033 7.68541 81.2874 7.57697 80.2526 7.24627C79.895 7.13224 79.8079 6.9561 79.3384 6.90079C78.8901 6.84814 78.5387 6.88599 78.1326 6.85251C77.7129 6.81781 77.6071 6.70354 77.0049 6.68364C76.4775 6.66593 75.5664 6.31219 75.0975 6.12902C74.3291 5.8289 73.6393 6.01741 72.895 6.13751C72.0259 6.2775 72.5667 6.15182 72.0012 6.44466C71.6906 6.60552 71.301 6.52376 70.9567 6.6931C70.2519 7.04005 70.1092 7.34672 69.2164 7.44279C68.4771 7.52237 67.4926 7.44037 66.7199 7.44352C66.1038 7.44619 66.0442 7.35084 65.5827 7.29358L64.6317 7.60074C64.1537 7.59467 64.8211 7.16839 62.8615 7.22492C61.9238 7.25185 61.1197 6.58077 60.2626 6.66811C59.6391 6.73168 58.9592 6.32384 58.3973 6.67927L57.8815 7.26034C57.2459 7.20988 56.6522 7.12909 56.0333 6.98546L55.953 7.38263C55.5107 7.38554 53.0335 7.15214 52.6975 6.91073C52.4064 6.70135 52.6694 6.71082 52.2271 6.50629C51.9869 6.39541 51.7634 6.26319 51.5773 6.19525C51.1154 6.02639 50.6886 5.86554 50.3259 5.51107C49.8055 5.0023 49.1342 3.88626 48.6293 3.50704C48.2477 3.22051 47.6848 3.45343 47.2437 3.20862L46.0689 2.45262C45.7744 2.59989 45.8584 2.73891 45.4995 2.77652C44.7229 2.8578 45.3649 2.50794 44.2037 3.16083C43.2953 3.67178 42.9921 2.65666 42.2921 2.61809L40.8888 2.92209C40.9378 3.06087 40.9563 3.14627 40.9259 3.28772C40.3351 3.28214 40.3691 2.95485 40.0452 2.61445C39.7684 2.32355 39.4248 2.161 39.1473 1.90455L37.8364 0C36.8298 0.0543464 33.562 1.02239 32.3402 1.33682C30.539 1.80071 28.6742 2.24155 26.7963 2.63557Z" fill="url(#paint0_linear_1099_6)"/>
<path d="M145.504 41L140.155 31.6609H137.863V41H133V17.0339H142.101C143.976 17.0339 145.574 17.3601 146.894 18.0126C148.214 18.6651 149.204 19.5458 149.863 20.6564C150.523 21.7663 150.853 23.008 150.853 24.3816C150.853 25.9607 150.39 27.3857 149.464 28.6567C148.537 29.9269 147.16 30.8021 145.331 31.2832L151.131 40.9999L145.504 41ZM137.863 28.0557H141.927C143.247 28.0557 144.231 27.7406 144.879 27.1116C145.527 26.4821 145.852 25.6062 145.852 24.4845C145.852 23.3857 145.527 22.5334 144.879 21.9267C144.231 21.3201 143.247 21.0168 141.927 21.0168H137.863V28.0557ZM176 41H171.138L160.127 24.5533V41H155.264V17H160.127L171.138 33.4808V17H176V41Z" fill="#E86000"/>
<defs>
<linearGradient id="paint0_linear_1099_6" x1="51.315" y1="0" x2="51.315" y2="61" gradientUnits="userSpaceOnUse">
<stop stop-color="#071B42"/>
<stop offset="1" stop-color="#5E75A2"/>
</linearGradient>
</defs>
</svg>
