<svg width="114" height="35" viewBox="0 0 114 35" fill="none" xmlns="http://www.w3.org/2000/svg">
<g clip-path="url(#clip0_1078_80)">
<path fill-rule="evenodd" clip-rule="evenodd" d="M110.549 32.7688H112.312L111.427 30.9007L110.549 32.7688ZM109.258 34.3967L111.22 30.1782H111.634L113.619 34.3967H113.078L112.535 33.262H110.322L109.792 34.3967H109.258Z" fill="#6B7488"/>
<path fill-rule="evenodd" clip-rule="evenodd" d="M110.549 32.7688H112.312L111.427 30.9007L110.549 32.7688ZM109.258 34.3967L111.22 30.1782H111.634L113.619 34.3967H113.078L112.535 33.262H110.322L109.792 34.3967H109.258Z" stroke="#6B7488" stroke-width="0.23" stroke-miterlimit="2.61"/>
<path d="M103.708 30.1546H103.203V34.3968H103.708V30.1546Z" fill="#6B7488"/>
<path d="M103.708 30.1546H103.203V34.3968H103.708V30.1546Z" stroke="#6B7488" stroke-width="0.23" stroke-miterlimit="2.61"/>
<path fill-rule="evenodd" clip-rule="evenodd" d="M96.9545 33.051L97.3556 33.3642C97.1721 33.7308 96.9199 34.0142 96.6001 34.2107C96.2821 34.4077 95.919 34.5068 95.5115 34.5068C94.9124 34.5068 94.4171 34.2982 94.0258 33.8823C93.6356 33.4663 93.4399 32.9379 93.4399 32.2975C93.4399 31.656 93.6356 31.1263 94.027 30.7097C94.4194 30.2938 94.9135 30.0846 95.5103 30.0846C95.8803 30.0846 96.2186 30.1691 96.5233 30.34C96.8281 30.5109 97.0757 30.7547 97.2662 31.0703L96.8489 31.3835C96.7236 31.1318 96.5418 30.9335 96.3052 30.7912C96.0685 30.6489 95.8036 30.5772 95.5115 30.5772C95.0619 30.5772 94.6896 30.7401 94.3946 31.0649C94.1003 31.3896 93.9525 31.8007 93.9525 32.2963C93.9525 32.7931 94.0997 33.2042 94.3946 33.5277C94.6896 33.8513 95.0619 34.013 95.5115 34.013C95.8261 34.013 96.1049 33.9309 96.3484 33.7679C96.5926 33.605 96.794 33.366 96.9539 33.0504L96.9545 33.051Z" fill="#6B7488"/>
<path fill-rule="evenodd" clip-rule="evenodd" d="M96.9545 33.051L97.3556 33.3642C97.1721 33.7308 96.9199 34.0142 96.6001 34.2107C96.2821 34.4077 95.919 34.5068 95.5115 34.5068C94.9124 34.5068 94.4171 34.2982 94.0258 33.8823C93.6356 33.4663 93.4399 32.9379 93.4399 32.2975C93.4399 31.6572 93.6356 31.1263 94.027 30.7097C94.4194 30.2938 94.9135 30.0846 95.5103 30.0846C95.8803 30.0846 96.2186 30.1691 96.5233 30.34C96.8281 30.5109 97.0757 30.7547 97.2662 31.0703L96.8489 31.3835C96.7236 31.1318 96.5418 30.9335 96.3052 30.7912C96.0685 30.6489 95.8036 30.5772 95.5115 30.5772C95.0619 30.5772 94.6896 30.7401 94.3946 31.0649C94.1003 31.3896 93.9525 31.8007 93.9525 32.2963C93.9525 32.7919 94.0997 33.2042 94.3946 33.5277C94.6896 33.8513 95.0619 34.013 95.5115 34.013C95.8261 34.013 96.1049 33.9309 96.3484 33.7679C96.5926 33.605 96.794 33.366 96.9539 33.0504L96.9545 33.051Z" stroke="#6B7488" stroke-width="0.23" stroke-miterlimit="2.61"/>
<path fill-rule="evenodd" clip-rule="evenodd" d="M85.1355 32.7688H86.8989L86.0134 30.9007L85.1355 32.7688ZM83.8438 34.3967L85.8062 30.1782H86.2201L88.2051 34.3967H87.6636L87.1199 33.262H84.9075L84.3777 34.3967H83.8438Z" fill="#6B7488"/>
<path fill-rule="evenodd" clip-rule="evenodd" d="M85.1355 32.7688H86.8989L86.0134 30.9007L85.1355 32.7688ZM83.8438 34.3967L85.8062 30.1782H86.2201L88.2051 34.3967H87.6636L87.1199 33.262H84.9075L84.3777 34.3967H83.8438Z" stroke="#6B7488" stroke-width="0.23" stroke-miterlimit="2.61"/>
<path fill-rule="evenodd" clip-rule="evenodd" d="M78.205 33.051L78.6061 33.3642C78.4232 33.7308 78.1704 34.0142 77.8506 34.2107C77.5326 34.4077 77.1695 34.5068 76.762 34.5068C76.1629 34.5068 75.6676 34.2982 75.2763 33.8823C74.8867 33.4663 74.6904 32.9379 74.6904 32.2975C74.6904 31.6572 74.8861 31.1263 75.2774 30.7097C75.6699 30.2938 76.164 30.0846 76.7608 30.0846C77.1308 30.0846 77.4691 30.1691 77.7738 30.34C78.0786 30.5109 78.3262 30.7547 78.5167 31.0703L78.0994 31.3835C77.9741 31.1318 77.7923 30.9335 77.5556 30.7912C77.319 30.6489 77.0541 30.5772 76.762 30.5772C76.3129 30.5772 75.9401 30.7401 75.6451 31.0649C75.3502 31.3896 75.203 31.8007 75.203 32.2963C75.203 32.7919 75.3502 33.2042 75.6451 33.5277C75.9401 33.8513 76.3124 34.013 76.762 34.013C77.0766 34.013 77.3554 33.9309 77.5989 33.7679C77.8431 33.605 78.0445 33.366 78.2044 33.0504L78.205 33.051Z" fill="#6B7488"/>
<path fill-rule="evenodd" clip-rule="evenodd" d="M78.205 33.051L78.6061 33.3642C78.4232 33.7308 78.1704 34.0142 77.8506 34.2107C77.5326 34.4077 77.1695 34.5068 76.762 34.5068C76.1629 34.5068 75.6676 34.2982 75.2763 33.8823C74.8867 33.4663 74.6904 32.9379 74.6904 32.2975C74.6904 31.6572 74.8861 31.1263 75.2774 30.7097C75.6699 30.2938 76.164 30.0846 76.7608 30.0846C77.1308 30.0846 77.4691 30.1691 77.7738 30.34C78.0786 30.5109 78.3262 30.7547 78.5167 31.0703L78.0994 31.3835C77.9741 31.1318 77.7923 30.9335 77.5556 30.7912C77.319 30.6489 77.0541 30.5772 76.762 30.5772C76.3129 30.5772 75.9401 30.7401 75.6451 31.0649C75.3502 31.3896 75.203 31.8007 75.203 32.2963C75.203 32.7919 75.3502 33.2042 75.6451 33.5277C75.9401 33.8513 76.3124 34.013 76.762 34.013C77.0766 34.013 77.3554 33.9309 77.5989 33.7679C77.8431 33.605 78.0445 33.366 78.2044 33.0504L78.205 33.051Z" stroke="#6B7488" stroke-width="0.23" stroke-miterlimit="2.61"/>
<path fill-rule="evenodd" clip-rule="evenodd" d="M67.1074 34.0136C67.557 34.0136 67.9293 33.8519 68.2254 33.5283C68.5198 33.2048 68.6676 32.7937 68.6676 32.2969C68.6676 31.8001 68.5198 31.3866 68.2266 31.0631C67.9334 30.7395 67.5593 30.5778 67.1074 30.5778C66.6554 30.5778 66.2855 30.7408 65.9894 31.0655C65.695 31.3902 65.5472 31.8013 65.5472 32.2969C65.5472 32.7925 65.6944 33.2048 65.9894 33.5283C66.2855 33.8519 66.6577 34.0136 67.1074 34.0136ZM67.1062 34.5068C66.5059 34.5068 66.0107 34.2982 65.6205 33.8823C65.2303 33.4663 65.0347 32.9379 65.0347 32.2975C65.0347 31.6572 65.2303 31.1263 65.6228 30.7097C66.0142 30.2938 66.5083 30.0846 67.1062 30.0846C67.7042 30.0846 68.2023 30.2932 68.5971 30.7122C68.9908 31.1299 69.1876 31.6578 69.1876 32.2969C69.1876 32.936 68.9908 33.4657 68.5983 33.8817C68.2058 34.2976 67.7082 34.5062 67.1062 34.5062V34.5068Z" fill="#6B7488"/>
<path fill-rule="evenodd" clip-rule="evenodd" d="M67.1074 34.0136C67.557 34.0136 67.9293 33.8519 68.2254 33.5283C68.5198 33.2048 68.6676 32.7937 68.6676 32.2969C68.6676 31.8001 68.5198 31.3866 68.2266 31.0631C67.9334 30.7395 67.5593 30.5778 67.1074 30.5778C66.6554 30.5778 66.2855 30.7408 65.9894 31.0655C65.695 31.3902 65.5472 31.8013 65.5472 32.2969C65.5472 32.7925 65.6944 33.2048 65.9894 33.5283C66.2855 33.8519 66.6577 34.0136 67.1074 34.0136ZM67.1062 34.5068C66.5059 34.5068 66.0107 34.2982 65.6205 33.8823C65.2303 33.4663 65.0347 32.9379 65.0347 32.2975C65.0347 31.6572 65.2303 31.1263 65.6228 30.7097C66.0142 30.2938 66.5083 30.0846 67.1062 30.0846C67.7042 30.0846 68.2023 30.2932 68.5971 30.7122C68.9908 31.1299 69.1876 31.6578 69.1876 32.2969C69.1876 32.936 68.9908 33.4657 68.5983 33.8817C68.2058 34.2976 67.7082 34.5062 67.1062 34.5062V34.5068Z" stroke="#6B7488" stroke-width="0.23" stroke-miterlimit="2.61"/>
<path fill-rule="evenodd" clip-rule="evenodd" d="M57.9176 34.3967H57.6059L55.6758 30.1782H56.2166L57.7618 33.5593L59.3069 30.1782H59.8582L57.9176 34.3967Z" fill="#6B7488"/>
<path fill-rule="evenodd" clip-rule="evenodd" d="M57.9176 34.3967H57.6059L55.6758 30.1782H56.2166L57.7618 33.5593L59.3069 30.1782H59.8582L57.9176 34.3967Z" stroke="#6B7488" stroke-width="0.23" stroke-miterlimit="2.61"/>
<path fill-rule="evenodd" clip-rule="evenodd" d="M48.4048 30.6635H47.1851V33.9114H48.4048C48.8977 33.9114 49.2861 33.7655 49.5684 33.4742C49.8518 33.1823 49.9932 32.7882 49.9932 32.2914C49.9932 31.8019 49.8495 31.4084 49.5609 31.1111C49.2734 30.8125 48.8873 30.6635 48.4042 30.6635H48.4048ZM48.4048 30.1782C49.0351 30.1782 49.5424 30.374 49.9274 30.7669C50.3124 31.1597 50.5058 31.6699 50.5058 32.2993C50.5058 32.9336 50.3164 33.442 49.9372 33.8245C49.5574 34.207 49.0472 34.3973 48.4042 34.3973H46.687V30.1788H48.4042L48.4048 30.1782Z" fill="#6B7488"/>
<path fill-rule="evenodd" clip-rule="evenodd" d="M48.4048 30.6635H47.1851V33.9114H48.4048C48.8977 33.9114 49.2861 33.7655 49.5684 33.4742C49.8518 33.1823 49.9932 32.7882 49.9932 32.2914C49.9932 31.7946 49.8495 31.4084 49.5609 31.1111C49.2734 30.8125 48.8873 30.6635 48.4042 30.6635H48.4048ZM48.4048 30.1782C49.0351 30.1782 49.5424 30.374 49.9274 30.7669C50.3124 31.1597 50.5058 31.6699 50.5058 32.2993C50.5058 32.9287 50.3164 33.442 49.9372 33.8245C49.5574 34.207 49.0472 34.3973 48.4042 34.3973H46.687V30.1788H48.4042L48.4048 30.1782Z" stroke="#6B7488" stroke-width="0.23" stroke-miterlimit="2.61"/>
<path fill-rule="evenodd" clip-rule="evenodd" d="M38.0628 32.7688H39.8261L38.9407 30.9007L38.0628 32.7688ZM36.771 34.3967L38.7335 30.1782H39.1467L41.1317 34.3967H40.5909L40.0472 33.262H37.8348L37.3049 34.3967H36.771Z" fill="#6B7488"/>
<path fill-rule="evenodd" clip-rule="evenodd" d="M38.0628 32.7688H39.8261L38.9407 30.9007L38.0628 32.7688ZM36.771 34.3967L38.7335 30.1782H39.1467L41.1317 34.3967H40.5909L40.0472 33.262H37.8348L37.3049 34.3967H36.771Z" stroke="#6B7488" stroke-width="0.23" stroke-miterlimit="2.61"/>
<path d="M40.4491 9.04082C39.8892 8.43939 39.6092 7.526 39.6092 6.30005C39.6092 4.99442 39.873 4.02935 40.4 3.40481C40.9276 2.78089 41.7835 2.46832 42.9685 2.46832C44.0231 2.46832 45.0124 2.669 45.9365 3.06974V1.0429C44.9801 0.676815 43.9365 0.493164 42.8058 0.493164C41.0228 0.493164 39.6716 0.997291 38.7533 2.00494C37.8344 3.01258 37.3755 4.44469 37.3755 6.30005C37.3755 8.05263 37.8482 9.42454 38.7942 10.4152C39.7403 11.4058 41.0828 11.9014 42.8225 11.9014C43.9423 11.9014 44.9858 11.7354 45.9538 11.4027V9.35825C45.0516 9.74805 44.0675 9.94265 43.002 9.94265C41.8603 9.94265 41.0101 9.64163 40.4496 9.04021L40.4491 9.04082Z" fill="#071B42"/>
<path d="M49.9114 0.664612H47.71V11.7299H55.0808V9.94322H49.9114V0.664612Z" fill="#071B42"/>
<path d="M61.2902 0.493164C59.5725 0.493164 58.2922 0.954115 57.4495 1.87602C56.6068 2.79852 56.186 4.25557 56.186 6.24896C56.186 10.0174 57.8876 11.902 61.2902 11.902C64.6928 11.902 66.3949 10.0174 66.3949 6.24896C66.3949 4.25557 65.9736 2.79852 65.1309 1.87602C64.2882 0.954115 63.0085 0.493164 61.2902 0.493164ZM63.4587 9.02379C62.9912 9.62521 62.268 9.92562 61.2896 9.92562C60.3113 9.92562 59.588 9.62521 59.1205 9.02379C58.653 8.42236 58.4192 7.49742 58.4192 6.24896C58.4192 4.88557 58.6472 3.91563 59.1043 3.33671C59.5609 2.75839 60.2893 2.46893 61.2896 2.46893C62.2899 2.46893 63.0183 2.75839 63.4749 3.33671C63.9314 3.91502 64.1594 4.88557 64.1594 6.24896C64.1594 7.49742 63.9257 8.42236 63.4582 9.02379H63.4587Z" fill="#071B42"/>
<path d="M72.5548 0.664671H68.1514V11.7293H72.5548C74.1635 11.7293 75.3594 11.2854 76.1427 10.3975C76.9254 9.5103 77.3167 8.12684 77.3167 6.24837C77.3167 4.36991 76.9254 2.8551 76.1427 1.97881C75.36 1.10251 74.1635 0.664062 72.5548 0.664062V0.664671ZM74.7643 8.51664C74.5525 9.05482 74.2448 9.4276 73.8431 9.63314C73.4408 9.83929 72.9081 9.94267 72.2449 9.94267H70.3534V2.58935H72.2449C72.9513 2.58935 73.506 2.68969 73.9078 2.88976C74.3101 3.09044 74.6067 3.45409 74.7966 3.98072C74.9871 4.50734 75.0824 5.26323 75.0824 6.24837C75.0824 7.23352 74.9762 7.97785 74.7643 8.51664Z" fill="#071B42"/>
<path d="M83.8517 0.493164C82.134 0.493164 80.8537 0.954115 80.011 1.87602C79.1683 2.79852 78.7476 4.25557 78.7476 6.24896C78.7476 10.0174 80.4491 11.902 83.8517 11.902C87.2543 11.902 88.9565 10.0174 88.9565 6.24896C88.9565 4.25557 88.5351 2.79852 87.6924 1.87602C86.8497 0.954115 85.57 0.493164 83.8517 0.493164ZM86.0208 9.02379C85.5533 9.62521 84.8306 9.92562 83.8517 9.92562C82.8728 9.92562 82.1501 9.62521 81.6826 9.02379C81.2151 8.42236 80.9813 7.49742 80.9813 6.24896C80.9813 4.88557 81.2093 3.91563 81.6664 3.33671C82.123 2.75839 82.8514 2.46893 83.8517 2.46893C84.852 2.46893 85.5804 2.75839 86.037 3.33671C86.4935 3.91502 86.7215 4.88557 86.7215 6.24896C86.7215 7.49742 86.4878 8.42236 86.0202 9.02379H86.0208Z" fill="#071B42"/>
<path d="M97.5953 8.03556L92.621 0.664612H90.7134V11.7299H92.9148V4.35891L97.8885 11.7299H99.7967V0.664612H97.5953V8.03556Z" fill="#071B42"/>
<path d="M104.081 0.664612H101.88V11.7292H104.081V0.664612Z" fill="#071B42"/>
<path d="M108.366 9.94322V0.664612H106.165V11.7299H113.536V9.94322H108.366Z" fill="#071B42"/>
<path d="M42.7807 21.5406L39.8076 15.1268H37.6685V25.8004H39.792V18.8564L42.1671 23.9609H43.3943L45.7538 18.8564V25.8004H47.8779V15.1268H45.7538L42.7807 21.5406Z" fill="#071B42"/>
<path d="M54.5617 14.9614C52.9045 14.9614 51.6699 15.4059 50.8572 16.2956C50.0445 17.1852 49.6382 18.5912 49.6382 20.5134C49.6382 24.1481 51.2792 25.9664 54.5617 25.9664C57.8442 25.9664 59.4852 24.1488 59.4852 20.5134C59.4852 18.5906 59.0788 17.1846 58.2661 16.2956C57.4534 15.4059 56.2182 14.9614 54.5617 14.9614ZM56.6534 23.1898C56.2027 23.7699 55.5054 24.06 54.5611 24.06C53.6168 24.06 52.9201 23.7699 52.4688 23.1898C52.018 22.6096 51.7923 21.7175 51.7923 20.5128C51.7923 19.1975 52.0122 18.2616 52.4532 17.7034C52.8936 17.1451 53.596 16.8666 54.5611 16.8666C55.5262 16.8666 56.2286 17.1451 56.669 17.7034C57.11 18.2616 57.3299 19.1975 57.3299 20.5128C57.3299 21.7169 57.1042 22.6096 56.6534 23.1898Z" fill="#071B42"/>
<path d="M67.884 22.2369L63.0863 15.1268H61.2456V25.8004H63.3691V18.6904L68.1674 25.8004H70.0075V15.1268H67.884V22.2369Z" fill="#071B42"/>
<path d="M71.4541 16.8508H74.5687V25.8004H76.6922V16.8508H79.7911V15.1268H71.4541V16.8508Z" fill="#071B42"/>
<path d="M81.2373 25.8004H88.5048V24.0771H83.3608V21.3253H87.923V19.6019H83.3608V16.8673H88.5048V15.1268H81.2373V25.8004Z" fill="#071B42"/>
<path d="M92.3886 15.1268H90.2651V25.8004H92.3886V15.1268Z" fill="#071B42"/>
<path d="M102.18 20.5628C102.531 20.0434 102.707 19.4244 102.707 18.7068C102.707 17.5794 102.426 16.7012 101.865 16.0712C101.304 15.4418 100.457 15.1268 99.3249 15.1268H94.4644V25.8004H96.5879V22.2703H98.2548C98.5382 22.2703 98.7454 22.3172 98.8765 22.4108C99.0075 22.5051 99.1258 22.679 99.2303 22.9332L100.426 25.8004H102.628L101.401 22.817C101.286 22.53 101.178 22.3056 101.079 22.1463C100.979 21.9857 100.851 21.8343 100.693 21.6908C101.334 21.4585 101.829 21.0827 102.18 20.5634L102.18 20.5628ZM100.095 20.0076C99.7919 20.2782 99.3509 20.4138 98.7743 20.4138H96.5879V16.9828H98.9001C99.456 16.9828 99.8704 17.1208 100.143 17.3969C100.415 17.6736 100.552 18.1096 100.552 18.7068C100.552 19.304 100.4 19.7369 100.096 20.0076H100.095Z" fill="#071B42"/>
<path d="M112.78 16.295C111.968 15.4053 110.732 14.9608 109.076 14.9608C107.419 14.9608 106.184 15.4053 105.371 16.295C104.558 17.1847 104.152 18.5906 104.152 20.5129C104.152 24.1476 105.793 25.9659 109.076 25.9659C112.358 25.9659 113.999 24.1482 113.999 20.5129C113.999 18.59 113.593 17.1841 112.78 16.295ZM111.168 23.1898C110.717 23.77 110.02 24.06 109.076 24.06C108.132 24.06 107.435 23.77 106.984 23.1898C106.533 22.6097 106.307 21.7176 106.307 20.5129C106.307 19.1975 106.527 18.2617 106.968 17.7034C107.408 17.1452 108.111 16.8666 109.076 16.8666C110.041 16.8666 110.743 17.1452 111.184 17.7034C111.624 18.2617 111.845 19.1975 111.845 20.5129C111.845 21.717 111.619 22.6097 111.168 23.1898Z" fill="#071B42"/>
<path fill-rule="evenodd" clip-rule="evenodd" d="M3.21533 3.33449H26.471L28.1237 1.20001H29.3964L26.9127 4.44308L4.23626 4.41207V30.5421H26.9561V31.6197H3.21533V3.33449Z" fill="#839797"/>
<path d="M29.2951 0.614949L29.6137 0.19165H28.3444L28.0229 0.614949" fill="#839797"/>
<path fill-rule="evenodd" clip-rule="evenodd" d="M5.93821 8.70272L6.75494 8.00278L16.4813 20.6011L32.2567 0.00364868H33.1692L33.0434 35H0V0.00364868L30.3121 0L29.4521 1.15359L1.05281 1.17062V33.833H31.9906L32.0252 1.99461L16.4952 22.3409L16.4588 22.1834L16.423 22.2831L5.93821 8.70272Z" fill="#E86000"/>
</g>
<defs>
<clipPath id="clip0_1078_80">
<rect width="114" height="35" fill="white"/>
</clipPath>
</defs>
</svg>
