<svg width="1270" height="30" viewBox="0 0 1270 30" fill="none" xmlns="http://www.w3.org/2000/svg">
<path d="M0.739258 28.6733L26.2393 0.67334" stroke="#E3E8F7" stroke-width="2"/>
<path d="M108.739 28.6733L134.239 0.67334" stroke="#E3E8F7" stroke-width="2"/>
<path d="M204.739 28.6733L230.239 0.67334" stroke="#E3E8F7" stroke-width="2"/>
<path d="M295.739 28.6733L321.239 0.67334" stroke="#E3E8F7" stroke-width="2"/>
<path d="M391.739 28.6733L417.239 0.67334" stroke="#E3E8F7" stroke-width="2"/>
<path d="M486.739 28.6733L512.239 0.67334" stroke="#E3E8F7" stroke-width="2"/>
<path d="M577.739 28.6733L603.239 0.67334" stroke="#E3E8F7" stroke-width="2"/>
<path d="M670.739 28.6733L696.239 0.67334" stroke="#E3E8F7" stroke-width="2"/>
<path d="M766.739 28.6733L792.239 0.67334" stroke="#E3E8F7" stroke-width="2"/>
<path d="M860.739 28.6733L886.239 0.67334" stroke="#E3E8F7" stroke-width="2"/>
<path d="M951.739 28.6733L977.239 0.67334" stroke="#E3E8F7" stroke-width="2"/>
<path d="M1050.74 28.6733L1076.24 0.67334" stroke="#E3E8F7" stroke-width="2"/>
<path d="M1141.74 28.6733L1167.24 0.67334" stroke="#E3E8F7" stroke-width="2"/>
<path d="M16.7393 28.6733L42.2393 0.67334" stroke="#E3E8F7" stroke-width="2"/>
<path d="M124.739 28.6733L150.239 0.67334" stroke="#E3E8F7" stroke-width="2"/>
<path d="M220.739 28.6733L246.239 0.67334" stroke="#E3E8F7" stroke-width="2"/>
<path d="M311.739 28.6733L337.239 0.67334" stroke="#E3E8F7" stroke-width="2"/>
<path d="M407.739 28.6733L433.239 0.67334" stroke="#E3E8F7" stroke-width="2"/>
<path d="M502.739 28.6733L528.239 0.67334" stroke="#E3E8F7" stroke-width="2"/>
<path d="M593.739 28.6733L619.239 0.67334" stroke="#E3E8F7" stroke-width="2"/>
<path d="M686.739 28.6733L712.239 0.67334" stroke="#E3E8F7" stroke-width="2"/>
<path d="M782.739 28.6733L808.239 0.67334" stroke="#E3E8F7" stroke-width="2"/>
<path d="M876.739 28.6733L902.239 0.67334" stroke="#E3E8F7" stroke-width="2"/>
<path d="M967.739 28.6733L993.239 0.67334" stroke="#E3E8F7" stroke-width="2"/>
<path d="M1066.74 28.6733L1092.24 0.67334" stroke="#E3E8F7" stroke-width="2"/>
<path d="M1157.74 28.6733L1183.24 0.67334" stroke="#E3E8F7" stroke-width="2"/>
<path d="M33.7393 28.6733L59.2393 0.67334" stroke="#E3E8F7" stroke-width="2"/>
<path d="M141.739 28.6733L167.239 0.67334" stroke="#E3E8F7" stroke-width="2"/>
<path d="M237.739 28.6733L263.239 0.67334" stroke="#E3E8F7" stroke-width="2"/>
<path d="M328.739 28.6733L354.239 0.67334" stroke="#E3E8F7" stroke-width="2"/>
<path d="M424.739 28.6733L450.239 0.67334" stroke="#E3E8F7" stroke-width="2"/>
<path d="M519.739 28.6733L545.239 0.67334" stroke="#E3E8F7" stroke-width="2"/>
<path d="M610.739 28.6733L636.239 0.67334" stroke="#E3E8F7" stroke-width="2"/>
<path d="M703.739 28.6733L729.239 0.67334" stroke="#E3E8F7" stroke-width="2"/>
<path d="M799.739 28.6733L825.239 0.67334" stroke="#E3E8F7" stroke-width="2"/>
<path d="M893.739 28.6733L919.239 0.67334" stroke="#E3E8F7" stroke-width="2"/>
<path d="M984.739 28.6733L1010.24 0.67334" stroke="#E3E8F7" stroke-width="2"/>
<path d="M1083.74 28.6733L1109.24 0.67334" stroke="#E3E8F7" stroke-width="2"/>
<path d="M1174.74 28.6733L1200.24 0.67334" stroke="#E3E8F7" stroke-width="2"/>
<path d="M48.7393 28.6733L74.2393 0.67334" stroke="#E3E8F7" stroke-width="2"/>
<path d="M156.739 28.6733L182.239 0.67334" stroke="#E3E8F7" stroke-width="2"/>
<path d="M252.739 28.6733L278.239 0.67334" stroke="#E3E8F7" stroke-width="2"/>
<path d="M343.739 28.6733L369.239 0.67334" stroke="#E3E8F7" stroke-width="2"/>
<path d="M439.739 28.6733L465.239 0.67334" stroke="#E3E8F7" stroke-width="2"/>
<path d="M534.739 28.6733L560.239 0.67334" stroke="#E3E8F7" stroke-width="2"/>
<path d="M625.739 28.6733L651.239 0.67334" stroke="#E3E8F7" stroke-width="2"/>
<path d="M718.739 28.6733L744.239 0.67334" stroke="#E3E8F7" stroke-width="2"/>
<path d="M814.739 28.6733L840.239 0.67334" stroke="#E3E8F7" stroke-width="2"/>
<path d="M908.739 28.6733L934.239 0.67334" stroke="#E3E8F7" stroke-width="2"/>
<path d="M999.739 28.6733L1025.24 0.67334" stroke="#E3E8F7" stroke-width="2"/>
<path d="M1098.74 28.6733L1124.24 0.67334" stroke="#E3E8F7" stroke-width="2"/>
<path d="M1189.74 28.6733L1215.24 0.67334" stroke="#E3E8F7" stroke-width="2"/>
<path d="M1233.74 28.6733L1259.24 0.67334" stroke="#E3E8F7" stroke-width="2"/>
<path d="M63.7393 28.6733L89.2393 0.67334" stroke="#E3E8F7" stroke-width="2"/>
<path d="M171.739 28.6733L197.239 0.67334" stroke="#E3E8F7" stroke-width="2"/>
<path d="M267.739 28.6733L293.239 0.67334" stroke="#E3E8F7" stroke-width="2"/>
<path d="M358.739 28.6733L384.239 0.67334" stroke="#E3E8F7" stroke-width="2"/>
<path d="M454.739 28.6733L480.239 0.67334" stroke="#E3E8F7" stroke-width="2"/>
<path d="M549.739 28.6733L575.239 0.67334" stroke="#E3E8F7" stroke-width="2"/>
<path d="M640.739 28.6733L666.239 0.67334" stroke="#E3E8F7" stroke-width="2"/>
<path d="M733.739 28.6733L759.239 0.67334" stroke="#E3E8F7" stroke-width="2"/>
<path d="M829.739 28.6733L855.239 0.67334" stroke="#E3E8F7" stroke-width="2"/>
<path d="M923.739 28.6733L949.239 0.67334" stroke="#E3E8F7" stroke-width="2"/>
<path d="M1014.74 28.6733L1040.24 0.67334" stroke="#E3E8F7" stroke-width="2"/>
<path d="M1113.74 28.6733L1139.24 0.67334" stroke="#E3E8F7" stroke-width="2"/>
<path d="M1204.74 28.6733L1230.24 0.67334" stroke="#E3E8F7" stroke-width="2"/>
<path d="M1248.74 28.6733L1274.24 0.67334" stroke="#E3E8F7" stroke-width="2"/>
<path d="M78.7393 28.6733L104.239 0.67334" stroke="#E3E8F7" stroke-width="2"/>
<path d="M94.7393 28.6733L120.239 0.67334" stroke="#E3E8F7" stroke-width="2"/>
<path d="M186.739 28.6733L212.239 0.67334" stroke="#E3E8F7" stroke-width="2"/>
<path d="M282.739 28.6733L308.239 0.67334" stroke="#E3E8F7" stroke-width="2"/>
<path d="M373.739 28.6733L399.239 0.67334" stroke="#E3E8F7" stroke-width="2"/>
<path d="M469.739 28.6733L495.239 0.67334" stroke="#E3E8F7" stroke-width="2"/>
<path d="M564.739 28.6733L590.239 0.67334" stroke="#E3E8F7" stroke-width="2"/>
<path d="M655.739 28.6733L681.239 0.67334" stroke="#E3E8F7" stroke-width="2"/>
<path d="M748.739 28.6733L774.239 0.67334" stroke="#E3E8F7" stroke-width="2"/>
<path d="M844.739 28.6733L870.239 0.67334" stroke="#E3E8F7" stroke-width="2"/>
<path d="M938.739 28.6733L964.239 0.67334" stroke="#E3E8F7" stroke-width="2"/>
<path d="M1029.74 28.6733L1055.24 0.67334" stroke="#E3E8F7" stroke-width="2"/>
<path d="M1128.74 28.6733L1154.24 0.67334" stroke="#E3E8F7" stroke-width="2"/>
<path d="M1219.74 28.6733L1245.24 0.67334" stroke="#E3E8F7" stroke-width="2"/>
<path d="M1263.74 28.6733L1289.24 0.67334" stroke="#E3E8F7" stroke-width="2"/>
</svg>
