<svg width="1276" height="13" viewBox="0 0 1276 20" preserveAspectRatio="none" fill="none" xmlns="http://www.w3.org/2000/svg">
<path d="M0.57666 18.817L26.0767 0.816971" stroke="#273459" stroke-width="2"/>
<path d="M108.577 18.817L134.077 0.816971" stroke="#273459" stroke-width="2"/>
<path d="M204.577 18.817L230.077 0.816971" stroke="#273459" stroke-width="2"/>
<path d="M295.577 18.817L321.077 0.816971" stroke="#273459" stroke-width="2"/>
<path d="M391.577 18.817L417.077 0.816971" stroke="#273459" stroke-width="2"/>
<path d="M486.577 18.817L512.077 0.816971" stroke="#273459" stroke-width="2"/>
<path d="M577.577 18.817L603.077 0.816971" stroke="#273459" stroke-width="2"/>
<path d="M670.577 18.817L696.077 0.816971" stroke="#273459" stroke-width="2"/>
<path d="M766.577 18.817L792.077 0.816971" stroke="#273459" stroke-width="2"/>
<path d="M860.577 18.817L886.077 0.816971" stroke="#273459" stroke-width="2"/>
<path d="M951.577 18.817L977.077 0.816971" stroke="#273459" stroke-width="2"/>
<path d="M1050.58 18.817L1076.08 0.816971" stroke="#273459" stroke-width="2"/>
<path d="M1141.58 18.817L1167.08 0.816971" stroke="#273459" stroke-width="2"/>
<path d="M16.5767 18.817L42.0767 0.816971" stroke="#273459" stroke-width="2"/>
<path d="M124.577 18.817L150.077 0.816971" stroke="#273459" stroke-width="2"/>
<path d="M220.577 18.817L246.077 0.816971" stroke="#273459" stroke-width="2"/>
<path d="M311.577 18.817L337.077 0.816971" stroke="#273459" stroke-width="2"/>
<path d="M407.577 18.817L433.077 0.816971" stroke="#273459" stroke-width="2"/>
<path d="M502.577 18.817L528.077 0.816971" stroke="#273459" stroke-width="2"/>
<path d="M593.577 18.817L619.077 0.816971" stroke="#273459" stroke-width="2"/>
<path d="M686.577 18.817L712.077 0.816971" stroke="#273459" stroke-width="2"/>
<path d="M782.577 18.817L808.077 0.816971" stroke="#273459" stroke-width="2"/>
<path d="M876.577 18.817L902.077 0.816971" stroke="#273459" stroke-width="2"/>
<path d="M967.577 18.817L993.077 0.816971" stroke="#273459" stroke-width="2"/>
<path d="M1066.58 18.817L1092.08 0.816971" stroke="#273459" stroke-width="2"/>
<path d="M1157.58 18.817L1183.08 0.816971" stroke="#273459" stroke-width="2"/>
<path d="M33.5767 18.817L59.0767 0.816971" stroke="#273459" stroke-width="2"/>
<path d="M141.577 18.817L167.077 0.816971" stroke="#273459" stroke-width="2"/>
<path d="M237.577 18.817L263.077 0.816971" stroke="#273459" stroke-width="2"/>
<path d="M328.577 18.817L354.077 0.816971" stroke="#273459" stroke-width="2"/>
<path d="M424.577 18.817L450.077 0.816971" stroke="#273459" stroke-width="2"/>
<path d="M519.577 18.817L545.077 0.816971" stroke="#273459" stroke-width="2"/>
<path d="M610.577 18.817L636.077 0.816971" stroke="#273459" stroke-width="2"/>
<path d="M703.577 18.817L729.077 0.816971" stroke="#273459" stroke-width="2"/>
<path d="M799.577 18.817L825.077 0.816971" stroke="#273459" stroke-width="2"/>
<path d="M893.577 18.817L919.077 0.816971" stroke="#273459" stroke-width="2"/>
<path d="M984.577 18.817L1010.08 0.816971" stroke="#273459" stroke-width="2"/>
<path d="M1083.58 18.817L1109.08 0.816971" stroke="#273459" stroke-width="2"/>
<path d="M1174.58 18.817L1200.08 0.816971" stroke="#273459" stroke-width="2"/>
<path d="M48.5767 18.817L74.0767 0.816971" stroke="#273459" stroke-width="2"/>
<path d="M156.577 18.817L182.077 0.816971" stroke="#273459" stroke-width="2"/>
<path d="M252.577 18.817L278.077 0.816971" stroke="#273459" stroke-width="2"/>
<path d="M343.577 18.817L369.077 0.816971" stroke="#273459" stroke-width="2"/>
<path d="M439.577 18.817L465.077 0.816971" stroke="#273459" stroke-width="2"/>
<path d="M534.577 18.817L560.077 0.816971" stroke="#273459" stroke-width="2"/>
<path d="M625.577 18.817L651.077 0.816971" stroke="#273459" stroke-width="2"/>
<path d="M718.577 18.817L744.077 0.816971" stroke="#273459" stroke-width="2"/>
<path d="M814.577 18.817L840.077 0.816971" stroke="#273459" stroke-width="2"/>
<path d="M908.577 18.817L934.077 0.816971" stroke="#273459" stroke-width="2"/>
<path d="M999.577 18.817L1025.08 0.816971" stroke="#273459" stroke-width="2"/>
<path d="M1098.58 18.817L1124.08 0.816971" stroke="#273459" stroke-width="2"/>
<path d="M1189.58 18.817L1215.08 0.816971" stroke="#273459" stroke-width="2"/>
<path d="M1233.58 18.817L1259.08 0.816971" stroke="#273459" stroke-width="2"/>
<path d="M63.5767 18.817L89.0767 0.816971" stroke="#273459" stroke-width="2"/>
<path d="M171.577 18.817L197.077 0.816971" stroke="#273459" stroke-width="2"/>
<path d="M267.577 18.817L293.077 0.816971" stroke="#273459" stroke-width="2"/>
<path d="M358.577 18.817L384.077 0.816971" stroke="#273459" stroke-width="2"/>
<path d="M454.577 18.817L480.077 0.816971" stroke="#273459" stroke-width="2"/>
<path d="M549.577 18.817L575.077 0.816971" stroke="#273459" stroke-width="2"/>
<path d="M640.577 18.817L666.077 0.816971" stroke="#273459" stroke-width="2"/>
<path d="M733.577 18.817L759.077 0.816971" stroke="#273459" stroke-width="2"/>
<path d="M829.577 18.817L855.077 0.816971" stroke="#273459" stroke-width="2"/>
<path d="M923.577 18.817L949.077 0.816971" stroke="#273459" stroke-width="2"/>
<path d="M1014.58 18.817L1040.08 0.816971" stroke="#273459" stroke-width="2"/>
<path d="M1113.58 18.817L1139.08 0.816971" stroke="#273459" stroke-width="2"/>
<path d="M1204.58 18.817L1230.08 0.816971" stroke="#273459" stroke-width="2"/>
<path d="M1248.58 18.817L1274.08 0.816971" stroke="#273459" stroke-width="2"/>
<path d="M78.5767 18.817L104.077 0.816971" stroke="#273459" stroke-width="2"/>
<path d="M94.5767 18.817L120.077 0.816971" stroke="#273459" stroke-width="2"/>
<path d="M186.577 18.817L212.077 0.816971" stroke="#273459" stroke-width="2"/>
<path d="M282.577 18.817L308.077 0.816971" stroke="#273459" stroke-width="2"/>
<path d="M373.577 18.817L399.077 0.816971" stroke="#273459" stroke-width="2"/>
<path d="M469.577 18.817L495.077 0.816971" stroke="#273459" stroke-width="2"/>
<path d="M564.577 18.817L590.077 0.816971" stroke="#273459" stroke-width="2"/>
<path d="M655.577 18.817L681.077 0.816971" stroke="#273459" stroke-width="2"/>
<path d="M748.577 18.817L774.077 0.816971" stroke="#273459" stroke-width="2"/>
<path d="M844.577 18.817L870.077 0.816971" stroke="#273459" stroke-width="2"/>
<path d="M938.577 18.817L964.077 0.816971" stroke="#273459" stroke-width="2"/>
<path d="M1029.58 18.817L1055.08 0.816971" stroke="#273459" stroke-width="2"/>
<path d="M1128.58 18.817L1154.08 0.816971" stroke="#273459" stroke-width="2"/>
<path d="M1219.58 18.817L1245.08 0.816971" stroke="#273459" stroke-width="2"/>
<path d="M1263.58 18.817L1289.08 0.816971" stroke="#273459" stroke-width="2"/>
</svg>
