<svg width="1329" height="15" viewBox="0 0 1329 29" preserveAspectRatio="none" fill="none" xmlns="http://www.w3.org/2000/svg">
<path d="M78.7631 28.5V17M89.3672 28.5V10.5M66.1393 28.5V18.75V9M57.0501 28.5V18.5M45.9411 0V14.25V28.5M35.337 18.75V28.5M22.7132 9V28.5M12.6141 18.5V28.25M1.00009 9V28.5" stroke="#F7F8F9" stroke-opacity="0.1" stroke-width="2"/>
<path d="M99.9712 28.5V17M89.3672 28.5V10.5M112.595 28.5V18.75V9M121.684 28.5V18.5M132.793 0V14.25V28.5M143.397 18.75V28.5M156.021 9V28.5M166.12 18.5V28.25M177.734 9V28.5" stroke="#F7F8F9" stroke-opacity="0.1" stroke-width="2"/>
<path d="M255.13 28.5V17M265.734 28.5V10.5M242.506 28.5V18.75V9M233.417 28.5V18.5M222.308 0V14.25V28.5M211.704 18.75V28.5M199.08 9V28.5M188.981 18.5V28.25M177.367 9V28.5" stroke="#F7F8F9" stroke-opacity="0.1" stroke-width="2"/>
<path d="M276.338 28.5V17M265.734 28.5V10.5M288.962 28.5V18.75V9M298.051 28.5V18.5M309.16 0V14.25V28.5M319.764 18.75V28.5M332.388 9V28.5M342.487 18.5V28.25M354.101 9V28.5" stroke="#F7F8F9" stroke-opacity="0.1" stroke-width="2"/>
<path d="M432.129 28.5V17M442.733 28.5V10.5M419.505 28.5V18.75V9M410.416 28.5V18.5M399.307 0V14.25V28.5M388.703 18.75V28.5M376.079 9V28.5M365.98 18.5V28.25M354.366 9V28.5" stroke="#F7F8F9" stroke-opacity="0.1" stroke-width="2"/>
<path d="M453.337 28.5V17M442.733 28.5V10.5M465.961 28.5V18.75V9M475.051 28.5V18.5M486.16 0V14.25V28.5M496.764 18.75V28.5M509.387 9V28.5M519.487 18.5V28.25M531.1 9V28.5" stroke="#F7F8F9" stroke-opacity="0.1" stroke-width="2"/>
<path d="M609.128 28.5V17M619.732 28.5V10.5M596.505 28.5V18.75V9M587.415 28.5V18.5M576.306 0V14.25V28.5M565.702 18.75V28.5M553.078 9V28.5M542.979 18.5V28.25M531.365 9V28.5" stroke="#F7F8F9" stroke-opacity="0.1" stroke-width="2"/>
<path d="M630.336 28.5V17M619.732 28.5V10.5M642.96 28.5V18.75V9M652.05 28.5V18.5M663.159 0V14.25V28.5M673.763 18.75V28.5M686.386 9V28.5M696.486 18.5V28.25M708.1 9V28.5" stroke="#F7F8F9" stroke-opacity="0.1" stroke-width="2"/>
<path d="M786.128 28.5V17M796.732 28.5V10.5M773.505 28.5V18.75V9M764.415 28.5V18.5M753.306 0V14.25V28.5M742.702 18.75V28.5M730.078 9V28.5M719.979 18.5V28.25M708.365 9V28.5" stroke="#F7F8F9" stroke-opacity="0.1" stroke-width="2"/>
<path d="M807.336 28.5V17M796.732 28.5V10.5M819.96 28.5V18.75V9M829.05 28.5V18.5M840.159 0V14.25V28.5M850.763 18.75V28.5M863.386 9V28.5M873.486 18.5V28.25M885.1 9V28.5" stroke="#F7F8F9" stroke-opacity="0.1" stroke-width="2"/>
<path d="M963.125 28.5V17M973.729 28.5V10.5M950.502 28.5V18.75V9M941.412 28.5V18.5M930.303 0V14.25V28.5M919.699 18.75V28.5M907.075 9V28.5M896.976 18.5V28.25M885.362 9V28.5" stroke="#F7F8F9" stroke-opacity="0.1" stroke-width="2"/>
<path d="M984.334 28.5V17M973.729 28.5V10.5M996.957 28.5V18.75V9M1006.05 28.5V18.5M1017.16 0V14.25V28.5M1027.76 18.75V28.5M1040.38 9V28.5M1050.48 18.5V28.25M1062.1 9V28.5" stroke="#F7F8F9" stroke-opacity="0.1" stroke-width="2"/>
<path d="M1140.13 28.5V17M1150.73 28.5V10.5M1127.5 28.5V18.75V9M1118.41 28.5V18.5M1107.3 0V14.25V28.5M1096.7 18.75V28.5M1084.08 9V28.5M1073.98 18.5V28.25M1062.36 9V28.5" stroke="#F7F8F9" stroke-opacity="0.1" stroke-width="2"/>
<path d="M1161.33 28.5V17M1150.73 28.5V10.5M1173.96 28.5V18.75V9M1183.05 28.5V18.5M1194.16 0V14.25V28.5M1204.76 18.75V28.5M1217.38 9V28.5M1227.48 18.5V28.25M1239.1 9V28.5" stroke="#F7F8F9" stroke-opacity="0.1" stroke-width="2"/>
<path d="M1317.13 28.5V17M1327.73 28.5V10.5M1304.5 28.5V18.75V9M1295.41 28.5V18.5M1284.3 0V14.25V28.5M1273.7 18.75V28.5M1261.08 9V28.5M1250.98 18.5V28.25M1239.36 9V28.5" stroke="#F7F8F9" stroke-opacity="0.1" stroke-width="2"/>
</svg>
