<svg width="103" height="32" viewBox="0 0 103 32" fill="none" xmlns="http://www.w3.org/2000/svg">
<g clip-path="url(#clip0_461_64)">
<path fill-rule="evenodd" clip-rule="evenodd" d="M99.3002 29.4428H100.884L100.089 27.7643L99.3002 29.4428ZM98.1404 30.9055L99.9032 27.1152H100.275L102.058 30.9055H101.572L101.084 29.886H99.0959L98.62 30.9055H98.1404Z" fill="#6B7488"/>
<path fill-rule="evenodd" clip-rule="evenodd" d="M99.3002 29.4428H100.884L100.089 27.7643L99.3002 29.4428ZM98.1404 30.9055L99.9032 27.1152H100.275L102.058 30.9055H101.572L101.084 29.886H99.0959L98.62 30.9055H98.1404Z" stroke="#6B7488" stroke-width="0.23" stroke-miterlimit="2.61"/>
<path d="M93.1553 27.0938H92.7017V30.9053H93.1553V27.0938Z" fill="#6B7488"/>
<path d="M93.1553 27.0938H92.7017V30.9053H93.1553V27.0938Z" stroke="#6B7488" stroke-width="0.23" stroke-miterlimit="2.61"/>
<path fill-rule="evenodd" clip-rule="evenodd" d="M87.0891 29.6965L87.4494 29.9779C87.2845 30.3074 87.058 30.562 86.7707 30.7385C86.4851 30.9155 86.1589 31.0046 85.7929 31.0046C85.2547 31.0046 84.8099 30.8172 84.4584 30.4434C84.1079 30.0697 83.9321 29.5949 83.9321 29.0195C83.9321 28.4431 84.1079 27.9672 84.4594 27.5929C84.812 27.2192 85.2558 27.0312 85.7919 27.0312C86.1242 27.0312 86.428 27.1072 86.7018 27.2607C86.9755 27.4143 87.1979 27.6334 87.369 27.9169L86.9942 28.1983C86.8817 27.9721 86.7184 27.794 86.5058 27.6661C86.2932 27.5383 86.0552 27.4738 85.7929 27.4738C85.389 27.4738 85.0546 27.6203 84.7897 27.912C84.5253 28.2038 84.3925 28.5732 84.3925 29.0185C84.3925 29.4649 84.5247 29.8342 84.7897 30.1249C85.0546 30.4156 85.389 30.5609 85.7929 30.5609C86.0755 30.5609 86.3259 30.4871 86.5447 30.3407C86.764 30.1943 86.9449 29.9795 87.0885 29.696L87.0891 29.6965Z" fill="#6B7488"/>
<path fill-rule="evenodd" clip-rule="evenodd" d="M87.0891 29.6965L87.4494 29.9779C87.2845 30.3074 87.058 30.562 86.7707 30.7385C86.4851 30.9155 86.1589 31.0046 85.7929 31.0046C85.2547 31.0046 84.8099 30.8172 84.4584 30.4434C84.1079 30.0697 83.9321 29.5949 83.9321 29.0195C83.9321 28.4442 84.1079 27.9672 84.4594 27.5929C84.812 27.2192 85.2558 27.0312 85.7919 27.0312C86.1242 27.0312 86.428 27.1072 86.7018 27.2607C86.9755 27.4143 87.1979 27.6334 87.369 27.9169L86.9942 28.1983C86.8817 27.9721 86.7184 27.794 86.5058 27.6661C86.2932 27.5383 86.0552 27.4738 85.7929 27.4738C85.389 27.4738 85.0546 27.6203 84.7897 27.912C84.5253 28.2038 84.3925 28.5732 84.3925 29.0185C84.3925 29.4638 84.5247 29.8342 84.7897 30.1249C85.0546 30.4156 85.389 30.5609 85.7929 30.5609C86.0755 30.5609 86.3259 30.4871 86.5447 30.3407C86.764 30.1943 86.9449 29.9795 87.0885 29.696L87.0891 29.6965Z" stroke="#6B7488" stroke-width="0.23" stroke-miterlimit="2.61"/>
<path fill-rule="evenodd" clip-rule="evenodd" d="M76.4726 29.4428H78.0565L77.2612 27.7643L76.4726 29.4428ZM75.3123 30.9055L77.075 27.1152H77.4468L79.2298 30.9055H78.7435L78.2551 29.886H76.2678L75.7918 30.9055H75.3123Z" fill="#6B7488"/>
<path fill-rule="evenodd" clip-rule="evenodd" d="M76.4726 29.4428H78.0565L77.2612 27.7643L76.4726 29.4428ZM75.3123 30.9055L77.075 27.1152H77.4468L79.2298 30.9055H78.7435L78.2551 29.886H76.2678L75.7918 30.9055H75.3123Z" stroke="#6B7488" stroke-width="0.23" stroke-miterlimit="2.61"/>
<path fill-rule="evenodd" clip-rule="evenodd" d="M70.2473 29.6965L70.6076 29.9779C70.4432 30.3074 70.2162 30.562 69.9289 30.7385C69.6433 30.9155 69.3171 31.0046 68.9511 31.0046C68.4129 31.0046 67.9681 30.8172 67.6166 30.4434C67.2666 30.0697 67.0903 29.5949 67.0903 29.0195C67.0903 28.4442 67.2661 27.9672 67.6176 27.5929C67.9702 27.2192 68.414 27.0312 68.9501 27.0312C69.2824 27.0312 69.5862 27.1072 69.86 27.2607C70.1337 27.4143 70.3561 27.6334 70.5272 27.9169L70.1524 28.1983C70.0399 27.9721 69.8766 27.794 69.664 27.6661C69.4514 27.5383 69.2134 27.4738 68.9511 27.4738C68.5477 27.4738 68.2128 27.6203 67.9479 27.912C67.6829 28.2038 67.5507 28.5732 67.5507 29.0185C67.5507 29.4638 67.6829 29.8342 67.9479 30.1249C68.2128 30.4156 68.5472 30.5609 68.9511 30.5609C69.2337 30.5609 69.4841 30.4871 69.7029 30.3407C69.9222 30.1943 70.1031 29.9795 70.2467 29.696L70.2473 29.6965Z" fill="#6B7488"/>
<path fill-rule="evenodd" clip-rule="evenodd" d="M70.2473 29.6965L70.6076 29.9779C70.4432 30.3074 70.2162 30.562 69.9289 30.7385C69.6433 30.9155 69.3171 31.0046 68.9511 31.0046C68.4129 31.0046 67.9681 30.8172 67.6166 30.4434C67.2666 30.0697 67.0903 29.5949 67.0903 29.0195C67.0903 28.4442 67.2661 27.9672 67.6176 27.5929C67.9702 27.2192 68.414 27.0312 68.9501 27.0312C69.2824 27.0312 69.5862 27.1072 69.86 27.2607C70.1337 27.4143 70.3561 27.6334 70.5272 27.9169L70.1524 28.1983C70.0399 27.9721 69.8766 27.794 69.664 27.6661C69.4514 27.5383 69.2134 27.4738 68.9511 27.4738C68.5477 27.4738 68.2128 27.6203 67.9479 27.912C67.6829 28.2038 67.5507 28.5732 67.5507 29.0185C67.5507 29.4638 67.6829 29.8342 67.9479 30.1249C68.2128 30.4156 68.5472 30.5609 68.9511 30.5609C69.2337 30.5609 69.4841 30.4871 69.7029 30.3407C69.9222 30.1943 70.1031 29.9795 70.2467 29.696L70.2473 29.6965Z" stroke="#6B7488" stroke-width="0.23" stroke-miterlimit="2.61"/>
<path fill-rule="evenodd" clip-rule="evenodd" d="M60.2788 30.5614C60.6827 30.5614 61.0171 30.4161 61.2831 30.1254C61.5475 29.8348 61.6802 29.4654 61.6802 29.019C61.6802 28.5726 61.5475 28.2011 61.2841 27.9104C61.0207 27.6197 60.6848 27.4744 60.2788 27.4744C59.8728 27.4744 59.5405 27.6208 59.2745 27.9126C59.0101 28.2043 58.8774 28.5737 58.8774 29.019C58.8774 29.4643 59.0096 29.8348 59.2745 30.1254C59.5405 30.4161 59.8749 30.5614 60.2788 30.5614ZM60.2778 31.0046C59.7386 31.0046 59.2937 30.8172 58.9432 30.4434C58.5928 30.0697 58.417 29.5949 58.417 29.0195C58.417 28.4442 58.5928 27.9672 58.9453 27.5929C59.2968 27.2192 59.7406 27.0312 60.2778 27.0312C60.8149 27.0312 61.2623 27.2187 61.617 27.5951C61.9706 27.9705 62.1474 28.4447 62.1474 29.019C62.1474 29.5932 61.9706 30.0692 61.618 30.4429C61.2654 30.8166 60.8185 31.004 60.2778 31.004V31.0046Z" fill="#6B7488"/>
<path fill-rule="evenodd" clip-rule="evenodd" d="M60.2788 30.5614C60.6827 30.5614 61.0171 30.4161 61.2831 30.1254C61.5475 29.8348 61.6802 29.4654 61.6802 29.019C61.6802 28.5726 61.5475 28.2011 61.2841 27.9104C61.0207 27.6197 60.6848 27.4744 60.2788 27.4744C59.8728 27.4744 59.5405 27.6208 59.2745 27.9126C59.0101 28.2043 58.8774 28.5737 58.8774 29.019C58.8774 29.4643 59.0096 29.8348 59.2745 30.1254C59.5405 30.4161 59.8749 30.5614 60.2788 30.5614ZM60.2778 31.0046C59.7386 31.0046 59.2937 30.8172 58.9432 30.4434C58.5928 30.0697 58.417 29.5949 58.417 29.0195C58.417 28.4442 58.5928 27.9672 58.9453 27.5929C59.2968 27.2192 59.7406 27.0312 60.2778 27.0312C60.8149 27.0312 61.2623 27.2187 61.617 27.5951C61.9706 27.9705 62.1474 28.4447 62.1474 29.019C62.1474 29.5932 61.9706 30.0692 61.618 30.4429C61.2654 30.8166 60.8185 31.004 60.2778 31.004V31.0046Z" stroke="#6B7488" stroke-width="0.23" stroke-miterlimit="2.61"/>
<path fill-rule="evenodd" clip-rule="evenodd" d="M52.0245 30.9055H51.7445L50.0107 27.1152H50.4965L51.8845 30.1531L53.2724 27.1152H53.7675L52.0245 30.9055Z" fill="#6B7488"/>
<path fill-rule="evenodd" clip-rule="evenodd" d="M52.0245 30.9055H51.7445L50.0107 27.1152H50.4965L51.8845 30.1531L53.2724 27.1152H53.7675L52.0245 30.9055Z" stroke="#6B7488" stroke-width="0.23" stroke-miterlimit="2.61"/>
<path fill-rule="evenodd" clip-rule="evenodd" d="M43.4795 27.5512H42.384V30.4695H43.4795C43.9222 30.4695 44.2712 30.3384 44.5247 30.0766C44.7793 29.8144 44.9063 29.4603 44.9063 29.0139C44.9063 28.5741 44.7772 28.2206 44.518 27.9534C44.2598 27.6851 43.9129 27.5512 43.479 27.5512H43.4795ZM43.4795 27.1152C44.0456 27.1152 44.5014 27.2912 44.8472 27.6441C45.193 27.9971 45.3667 28.4555 45.3667 29.021C45.3667 29.5909 45.1966 30.0477 44.856 30.3914C44.5149 30.735 44.0565 30.9061 43.479 30.9061H41.9365V27.1158H43.479L43.4795 27.1152Z" fill="#6B7488"/>
<path fill-rule="evenodd" clip-rule="evenodd" d="M43.4795 27.5512H42.384V30.4695H43.4795C43.9222 30.4695 44.2712 30.3384 44.5247 30.0766C44.7793 29.8144 44.9063 29.4603 44.9063 29.0139C44.9063 28.5675 44.7772 28.2206 44.518 27.9534C44.2598 27.6851 43.9129 27.5512 43.479 27.5512H43.4795ZM43.4795 27.1152C44.0456 27.1152 44.5014 27.2912 44.8472 27.6441C45.193 27.9971 45.3667 28.4555 45.3667 29.021C45.3667 29.5865 45.1966 30.0477 44.856 30.3914C44.5149 30.735 44.0565 30.9061 43.479 30.9061H41.9365V27.1158H43.479L43.4795 27.1152Z" stroke="#6B7488" stroke-width="0.23" stroke-miterlimit="2.61"/>
<path fill-rule="evenodd" clip-rule="evenodd" d="M34.1896 29.4428H35.7735L34.9782 27.7643L34.1896 29.4428ZM33.0293 30.9055L34.7921 27.1152H35.1633L36.9463 30.9055H36.4605L35.9721 29.886H33.9848L33.5089 30.9055H33.0293Z" fill="#6B7488"/>
<path fill-rule="evenodd" clip-rule="evenodd" d="M34.1896 29.4428H35.7735L34.9782 27.7643L34.1896 29.4428ZM33.0293 30.9055L34.7921 27.1152H35.1633L36.9463 30.9055H36.4605L35.9721 29.886H33.9848L33.5089 30.9055H33.0293Z" stroke="#6B7488" stroke-width="0.23" stroke-miterlimit="2.61"/>
<path d="M36.3331 8.12335C35.8302 7.58298 35.5787 6.76231 35.5787 5.66079C35.5787 4.4877 35.8157 3.62059 36.289 3.05945C36.7629 2.49886 37.5318 2.21802 38.5962 2.21802C39.5434 2.21802 40.4321 2.39833 41.2621 2.75839V0.937292C40.403 0.608368 39.4657 0.443359 38.45 0.443359C36.8484 0.443359 35.6347 0.896313 34.8098 1.80167C33.9844 2.70703 33.5723 3.99377 33.5723 5.66079C33.5723 7.23548 33.9969 8.46812 34.8467 9.35818C35.6964 10.2482 36.9024 10.6936 38.465 10.6936C39.4708 10.6936 40.4082 10.5444 41.2777 10.2455V8.40857C40.4673 8.7588 39.5834 8.93364 38.6263 8.93364C37.6007 8.93364 36.837 8.66318 36.3336 8.12281L36.3331 8.12335Z" fill="#071B42"/>
<path d="M44.8326 0.597656H42.8552V10.5397H49.476V8.9344H44.8326V0.597656Z" fill="#071B42"/>
<path d="M55.0538 0.443359C53.5108 0.443359 52.3609 0.857519 51.6039 1.68584C50.847 2.51471 50.469 3.82384 50.469 5.6149C50.469 9.00084 51.9974 10.6941 55.0538 10.6941C58.1101 10.6941 59.6391 9.00084 59.6391 5.6149C59.6391 3.82384 59.2606 2.51471 58.5037 1.68584C57.7467 0.857519 56.5973 0.443359 55.0538 0.443359ZM57.0017 8.10805C56.5817 8.64843 55.9321 8.91834 55.0533 8.91834C54.1745 8.91834 53.5248 8.64843 53.1049 8.10805C52.6849 7.56768 52.4749 6.73662 52.4749 5.6149C52.4749 4.3899 52.6797 3.51842 53.0904 2.99826C53.5005 2.47864 54.1548 2.21856 55.0533 2.21856C55.9518 2.21856 56.6061 2.47864 57.0162 2.99826C57.4263 3.51787 57.6311 4.3899 57.6311 5.6149C57.6311 6.73662 57.4211 7.56768 57.0011 8.10805H57.0017Z" fill="#071B42"/>
<path d="M65.1722 0.597226H61.2168V10.5387H65.1722C66.6171 10.5387 67.6914 10.1398 68.395 9.34212C69.098 8.54495 69.4495 7.30192 69.4495 5.61414C69.4495 3.92635 69.098 2.56531 68.395 1.77796C67.6919 0.990624 66.6171 0.59668 65.1722 0.59668V0.597226ZM67.1569 7.65215C66.9666 8.1357 66.6902 8.47064 66.3294 8.65532C65.968 8.84054 65.4895 8.93343 64.8938 8.93343H63.1947V2.32654H64.8938C65.5284 2.32654 66.0266 2.41669 66.3874 2.59645C66.7488 2.77676 67.0153 3.1035 67.1859 3.57666C67.357 4.04983 67.4425 4.72899 67.4425 5.61414C67.4425 6.49928 67.3471 7.16806 67.1569 7.65215Z" fill="#071B42"/>
<path d="M75.3196 0.443359C73.7767 0.443359 72.6267 0.857519 71.8698 1.68584C71.1128 2.51471 70.7349 3.82384 70.7349 5.6149C70.7349 9.00084 72.2633 10.6941 75.3196 10.6941C78.376 10.6941 79.905 9.00084 79.905 5.6149C79.905 3.82384 79.5265 2.51471 78.7695 1.68584C78.0126 0.857519 76.8631 0.443359 75.3196 0.443359ZM77.268 8.10805C76.8481 8.64843 76.199 8.91834 75.3196 8.91834C74.4403 8.91834 73.7912 8.64843 73.3713 8.10805C72.9513 7.56768 72.7413 6.73662 72.7413 5.6149C72.7413 4.3899 72.9461 3.51842 73.3567 2.99826C73.7668 2.47864 74.4211 2.21856 75.3196 2.21856C76.2181 2.21856 76.8724 2.47864 77.2826 2.99826C77.6927 3.51787 77.8975 4.3899 77.8975 5.6149C77.8975 6.73662 77.6875 7.56768 77.2675 8.10805H77.268Z" fill="#071B42"/>
<path d="M87.6648 7.22039L83.1967 0.597656H81.4832V10.5397H83.4606V3.91695L87.9282 10.5397H89.6422V0.597656H87.6648V7.22039Z" fill="#071B42"/>
<path d="M93.4906 0.597656H91.5132V10.5391H93.4906V0.597656Z" fill="#071B42"/>
<path d="M97.3397 8.9344V0.597656H95.3623V10.5397H101.984V8.9344H97.3397Z" fill="#071B42"/>
<path d="M38.4277 19.3545L35.7571 13.5918H33.8357V23.182H35.7431V16.9428L37.8766 21.5291H38.9789L41.0984 16.9428V23.182H43.0063V13.5918H41.0984L38.4277 19.3545Z" fill="#071B42"/>
<path d="M49.0099 13.4434C47.5214 13.4434 46.4124 13.8428 45.6824 14.6421C44.9524 15.4415 44.5874 16.7047 44.5874 18.4319C44.5874 21.6976 46.0614 23.3313 49.0099 23.3313C51.9584 23.3313 53.4324 21.6981 53.4324 18.4319C53.4324 16.7042 53.0674 15.4409 52.3374 14.6421C51.6074 13.8428 50.4979 13.4434 49.0099 13.4434ZM50.8888 20.8365C50.4839 21.3578 49.8576 21.6184 49.0094 21.6184C48.1612 21.6184 47.5354 21.3578 47.13 20.8365C46.725 20.3152 46.5223 19.5137 46.5223 18.4313C46.5223 17.2495 46.7199 16.4086 47.116 15.907C47.5115 15.4054 48.1425 15.1552 49.0094 15.1552C49.8763 15.1552 50.5072 15.4054 50.9028 15.907C51.2989 16.4086 51.4965 17.2495 51.4965 18.4313C51.4965 19.5132 51.2938 20.3152 50.8888 20.8365Z" fill="#071B42"/>
<path d="M60.9765 19.9801L56.6671 13.5918H55.0137V23.182H56.9211V16.7936L61.2311 23.182H62.884V13.5918H60.9765V19.9801Z" fill="#071B42"/>
<path d="M64.1833 15.1408H66.981V23.182H68.8884V15.1408H71.6721V13.5918H64.1833V15.1408Z" fill="#071B42"/>
<path d="M72.9709 23.182H79.4989V21.6335H74.8784V19.1611H78.9763V17.6126H74.8784V15.1556H79.4989V13.5918H72.9709V23.182Z" fill="#071B42"/>
<path d="M82.9878 13.5918H81.0803V23.182H82.9878V13.5918Z" fill="#071B42"/>
<path d="M91.7824 18.4759C92.0981 18.0093 92.2557 17.4531 92.2557 16.8084C92.2557 15.7954 92.0038 15.0064 91.4998 14.4403C90.9959 13.8748 90.2353 13.5918 89.2181 13.5918H84.8521V23.182H86.7595V20.0102H88.2568C88.5114 20.0102 88.6975 20.0523 88.8152 20.1364C88.9329 20.2211 89.0392 20.3774 89.133 20.6057L90.2068 23.182H92.1852L91.083 20.5014C90.9798 20.2435 90.8828 20.0419 90.7937 19.8987C90.704 19.7545 90.5889 19.6184 90.4473 19.4895C91.0223 19.2808 91.4672 18.9431 91.7829 18.4765L91.7824 18.4759ZM89.9102 17.9771C89.6375 18.2202 89.2414 18.3421 88.7234 18.3421H86.7595V15.2594H88.8365C89.3357 15.2594 89.708 15.3834 89.9527 15.6315C90.1974 15.8801 90.3203 16.2718 90.3203 16.8084C90.3203 17.3449 90.1834 17.7339 89.9107 17.9771H89.9102Z" fill="#071B42"/>
<path d="M101.304 14.6412C100.574 13.8418 99.4649 13.4424 97.977 13.4424C96.489 13.4424 95.3794 13.8418 94.6494 14.6412C93.9189 15.4405 93.5544 16.7038 93.5544 18.4309C93.5544 21.6966 95.0284 23.3303 97.977 23.3303C100.925 23.3303 102.399 21.6972 102.399 18.4309C102.399 16.7032 102.034 15.44 101.304 14.6412ZM99.8564 20.8361C99.4515 21.3573 98.8252 21.6179 97.977 21.6179C97.1287 21.6179 96.503 21.3573 96.0975 20.8361C95.6926 20.3148 95.4899 19.5133 95.4899 18.4309C95.4899 17.249 95.6874 16.4082 96.0835 15.9066C96.4791 15.405 97.1101 15.1548 97.977 15.1548C98.8438 15.1548 99.4748 15.405 99.8704 15.9066C100.266 16.4082 100.464 17.249 100.464 18.4309C100.464 19.5127 100.261 20.3148 99.8564 20.8361Z" fill="#071B42"/>
<path fill-rule="evenodd" clip-rule="evenodd" d="M2.88818 2.99594H23.7775L25.262 1.07812H26.4052L24.1743 3.992L3.80523 3.96413V27.4418H24.2132V28.41H2.88818V2.99594Z" fill="#839797"/>
<path d="M26.3141 0.552205L26.6003 0.171875H25.4602L25.1714 0.552205" fill="#839797"/>
<path fill-rule="evenodd" clip-rule="evenodd" d="M5.33397 7.81932L6.0676 7.19043L14.8043 18.5099L28.9744 0.00327831H29.7941L29.6811 31.4472H0V0.00327831L27.2277 0L26.4552 1.03649L0.945681 1.05179V30.3987H28.7354L28.7665 1.79214L14.8167 20.0731L14.784 19.9316L14.7519 20.0212L5.33397 7.81932Z" fill="#F97D0E"/>
</g>
<defs>
<clipPath id="clip0_461_64">
<rect width="102.4" height="31.4472" fill="white"/>
</clipPath>
</defs>
</svg>
