<?xml version="1.0" encoding="UTF-8"?>
<svg xmlns="http://www.w3.org/2000/svg" version="1.1" xmlns:xlink="http://www.w3.org/1999/xlink" viewBox="0 0 117 35">
  <!-- Generator: Adobe Illustrator 30.2.1, SVG Export Plug-In . SVG Version: 2.1.1 Build 1)  -->
  <defs>
    <style>
      .st0, .st1 {
        fill: #839797;
      }

      .st1, .st2, .st3 {
        fill-rule: evenodd;
      }

      .st4, .st2 {
        fill: #fff;
      }

      .st5 {
        fill: none;
      }

      .st6 {
        display: none;
      }

      .st3 {
        fill: #f97d0e;
      }

      .st7 {
        fill: #214474;
      }

      .st8 {
        clip-path: url(#clippath);
      }
    </style>
    <clipPath id="clippath">
      <rect class="st5" width="117" height="35"/>
    </clipPath>
  </defs>
  <g id="Camada_2" class="st6">
    <rect class="st7" x="35.1" width="81.9" height="35"/>
  </g>
  <g id="Camada_1">
    <g class="st8">
      <g>
        <path class="st2" d="M113.46,32.77h1.81l-.91-1.87-.9,1.87ZM112.13,34.4l2.01-4.22h.42l2.04,4.22h-.56l-.56-1.13h-2.27l-.54,1.13h-.55Z"/>
        <path class="st4" d="M113.46,32.77h1.81l-.91-1.87-.9,1.87ZM112.13,34.4l2.01-4.22h.42l2.04,4.22h-.56l-.56-1.13h-2.27l-.54,1.13h-.55Z"/>
        <path class="st4" d="M106.44,30.15h-.52v4.24h.52v-4.24Z"/>
        <path class="st4" d="M106.44,30.15h-.52v4.24h.52v-4.24Z"/>
        <path class="st2" d="M99.51,33.05l.41.31c-.19.37-.45.65-.78.85-.33.2-.7.3-1.12.3-.61,0-1.12-.21-1.52-.62-.4-.42-.6-.94-.6-1.58s.2-1.17.6-1.59c.4-.42.91-.63,1.52-.63.38,0,.73.08,1.04.26.31.17.57.41.76.73l-.43.31c-.13-.25-.32-.45-.56-.59-.24-.14-.51-.21-.81-.21-.46,0-.84.16-1.15.49-.3.32-.45.74-.45,1.23s.15.91.45,1.23c.3.32.68.49,1.15.49.32,0,.61-.08.86-.25.25-.16.46-.4.62-.72h0Z"/>
        <path class="st4" d="M99.51,33.05l.41.31c-.19.37-.45.65-.78.85-.33.2-.7.3-1.12.3-.61,0-1.12-.21-1.52-.62-.4-.42-.6-.94-.6-1.58s.2-1.17.6-1.59c.4-.42.91-.63,1.52-.63.38,0,.73.08,1.04.26.31.17.57.41.76.73l-.43.31c-.13-.25-.32-.45-.56-.59-.24-.14-.51-.21-.81-.21-.46,0-.84.16-1.15.49-.3.32-.45.74-.45,1.23s.15.91.45,1.23c.3.32.68.49,1.15.49.32,0,.61-.08.86-.25.25-.16.46-.4.62-.72h0Z"/>
        <path class="st2" d="M87.38,32.77h1.81l-.91-1.87-.9,1.87ZM86.05,34.4l2.01-4.22h.42l2.04,4.22h-.56l-.56-1.13h-2.27l-.54,1.13h-.55Z"/>
        <path class="st4" d="M87.38,32.77h1.81l-.91-1.87-.9,1.87ZM86.05,34.4l2.01-4.22h.42l2.04,4.22h-.56l-.56-1.13h-2.27l-.54,1.13h-.55Z"/>
        <path class="st2" d="M80.26,33.05l.41.31c-.19.37-.45.65-.78.85-.33.2-.7.3-1.12.3-.61,0-1.12-.21-1.52-.62-.4-.42-.6-.94-.6-1.58s.2-1.17.6-1.59c.4-.42.91-.63,1.52-.63.38,0,.73.08,1.04.26.31.17.57.41.76.73l-.43.31c-.13-.25-.32-.45-.56-.59-.24-.14-.51-.21-.81-.21-.46,0-.84.16-1.15.49-.3.32-.45.74-.45,1.23s.15.91.45,1.23c.3.32.68.49,1.15.49.32,0,.61-.08.86-.25.25-.16.46-.4.62-.72h0Z"/>
        <path class="st4" d="M80.26,33.05l.41.31c-.19.37-.45.65-.78.85-.33.2-.7.3-1.12.3-.61,0-1.12-.21-1.52-.62-.4-.42-.6-.94-.6-1.58s.2-1.17.6-1.59c.4-.42.91-.63,1.52-.63.38,0,.73.08,1.04.26.31.17.57.41.76.73l-.43.31c-.13-.25-.32-.45-.56-.59-.24-.14-.51-.21-.81-.21-.46,0-.84.16-1.15.49-.3.32-.45.74-.45,1.23s.15.91.45,1.23c.3.32.68.49,1.15.49.32,0,.61-.08.86-.25.25-.16.46-.4.62-.72h0Z"/>
        <path class="st2" d="M68.87,34.01c.46,0,.84-.16,1.15-.49.3-.32.45-.73.45-1.23s-.15-.91-.45-1.23c-.3-.32-.68-.49-1.15-.49s-.84.16-1.15.49c-.3.32-.45.74-.45,1.23s.15.91.45,1.23c.3.32.69.49,1.15.49ZM68.87,34.51c-.62,0-1.12-.21-1.52-.62-.4-.42-.6-.94-.6-1.58s.2-1.17.6-1.59c.4-.42.91-.63,1.52-.63s1.12.21,1.53.63c.4.42.61.95.61,1.58s-.2,1.17-.6,1.58c-.4.42-.91.62-1.53.62h0Z"/>
        <path class="st4" d="M68.87,34.01c.46,0,.84-.16,1.15-.49.3-.32.45-.73.45-1.23s-.15-.91-.45-1.23c-.3-.32-.68-.49-1.15-.49s-.84.16-1.15.49c-.3.32-.45.74-.45,1.23s.15.91.45,1.23c.3.32.69.49,1.15.49ZM68.87,34.51c-.62,0-1.12-.21-1.52-.62-.4-.42-.6-.94-.6-1.58s.2-1.17.6-1.59c.4-.42.91-.63,1.52-.63s1.12.21,1.53.63c.4.42.61.95.61,1.58s-.2,1.17-.6,1.58c-.4.42-.91.62-1.53.62h0Z"/>
        <path class="st2" d="M59.44,34.4h-.32l-1.98-4.22h.56l1.59,3.38,1.59-3.38h.57l-1.99,4.22Z"/>
        <path class="st4" d="M59.44,34.4h-.32l-1.98-4.22h.56l1.59,3.38,1.59-3.38h.57l-1.99,4.22Z"/>
        <path class="st2" d="M49.68,30.66h-1.25v3.25h1.25c.51,0,.9-.15,1.19-.44.29-.29.44-.69.44-1.18s-.15-.88-.44-1.18c-.29-.3-.69-.45-1.19-.45h0ZM49.68,30.18c.65,0,1.17.2,1.56.59.4.39.59.9.59,1.53s-.19,1.14-.58,1.53c-.39.38-.91.57-1.57.57h-1.76v-4.22h1.76Z"/>
        <path class="st4" d="M49.68,30.66h-1.25v3.25h1.25c.51,0,.9-.15,1.19-.44.29-.29.44-.69.44-1.18s-.15-.88-.44-1.18c-.29-.3-.69-.45-1.19-.45h0ZM49.68,30.18c.65,0,1.17.2,1.56.59.4.39.59.9.59,1.53s-.19,1.14-.58,1.53c-.39.38-.91.57-1.57.57h-1.76v-4.22h1.76Z"/>
        <path class="st2" d="M39.06,32.77h1.81l-.91-1.87-.9,1.87ZM37.74,34.4l2.01-4.22h.42l2.04,4.22h-.56l-.56-1.13h-2.27l-.54,1.13h-.55Z"/>
        <path class="st4" d="M39.06,32.77h1.81l-.91-1.87-.9,1.87ZM37.74,34.4l2.01-4.22h.42l2.04,4.22h-.56l-.56-1.13h-2.27l-.54,1.13h-.55Z"/>
        <path class="st4" d="M41.51,9.04c-.57-.6-.86-1.51-.86-2.74,0-1.31.27-2.27.81-2.9.54-.62,1.42-.94,2.64-.94,1.08,0,2.1.2,3.05.6V1.04c-.98-.37-2.05-.55-3.21-.55-1.83,0-3.22.5-4.16,1.51-.94,1.01-1.41,2.44-1.41,4.3,0,1.75.49,3.12,1.46,4.12.97.99,2.35,1.49,4.13,1.49,1.15,0,2.22-.17,3.21-.5v-2.04c-.93.39-1.94.58-3.03.58-1.17,0-2.04-.3-2.62-.9h0Z"/>
        <path class="st4" d="M51.22.66h-2.26v11.07h7.56v-1.79h-5.31V.66Z"/>
        <path class="st4" d="M62.9.49c-1.76,0-3.08.46-3.94,1.38-.86.92-1.3,2.38-1.3,4.37,0,3.77,1.75,5.65,5.24,5.65s5.24-1.88,5.24-5.65c0-1.99-.43-3.45-1.3-4.37-.86-.92-2.18-1.38-3.94-1.38ZM65.13,9.02c-.48.6-1.22.9-2.23.9s-1.75-.3-2.23-.9c-.48-.6-.72-1.53-.72-2.77,0-1.36.23-2.33.7-2.91.47-.58,1.22-.87,2.24-.87s1.77.29,2.24.87c.47.58.7,1.55.7,2.91,0,1.25-.24,2.17-.72,2.77h0Z"/>
        <path class="st4" d="M74.46.66h-4.52v11.06h4.52c1.65,0,2.88-.44,3.68-1.33.8-.89,1.2-2.27,1.2-4.15s-.4-3.39-1.2-4.27c-.8-.88-2.03-1.31-3.68-1.31h0ZM76.73,8.52c-.22.54-.53.91-.95,1.12-.41.21-.96.31-1.64.31h-1.94V2.59h1.94c.73,0,1.29.1,1.71.3.41.2.72.56.91,1.09.2.53.29,1.28.29,2.27s-.11,1.73-.33,2.27Z"/>
        <path class="st4" d="M86.06.49c-1.76,0-3.08.46-3.94,1.38-.86.92-1.3,2.38-1.3,4.37,0,3.77,1.75,5.65,5.24,5.65s5.24-1.88,5.24-5.65c0-1.99-.43-3.45-1.3-4.37-.86-.92-2.18-1.38-3.94-1.38ZM88.28,9.02c-.48.6-1.22.9-2.23.9s-1.75-.3-2.23-.9c-.48-.6-.72-1.53-.72-2.77,0-1.36.23-2.33.7-2.91.47-.58,1.22-.87,2.24-.87s1.77.29,2.24.87c.47.58.7,1.55.7,2.91,0,1.25-.24,2.17-.72,2.77h0Z"/>
        <path class="st4" d="M100.16,8.04l-5.11-7.37h-1.96v11.07h2.26v-7.37l5.1,7.37h1.96V.66h-2.26v7.37Z"/>
        <path class="st4" d="M106.82.66h-2.26v11.06h2.26V.66Z"/>
        <path class="st4" d="M111.22,9.94V.66h-2.26v11.07h7.57v-1.79h-5.31Z"/>
        <path class="st4" d="M43.91,21.54l-3.05-6.41h-2.2v10.67h2.18v-6.94l2.44,5.1h1.26l2.42-5.1v6.94h2.18v-10.67h-2.18l-3.05,6.41Z"/>
        <path class="st4" d="M56,14.96c-1.7,0-2.97.44-3.8,1.33-.83.89-1.25,2.3-1.25,4.22,0,3.63,1.68,5.45,5.05,5.45s5.05-1.82,5.05-5.45c0-1.92-.42-3.33-1.25-4.22-.83-.89-2.1-1.33-3.8-1.33ZM58.14,23.19c-.46.58-1.18.87-2.15.87s-1.68-.29-2.15-.87c-.46-.58-.69-1.47-.69-2.68,0-1.32.23-2.25.68-2.81.45-.56,1.17-.84,2.16-.84s1.71.28,2.16.84c.45.56.68,1.49.68,2.81,0,1.2-.23,2.1-.69,2.68Z"/>
        <path class="st4" d="M69.67,22.24l-4.92-7.11h-1.89v10.67h2.18v-7.11l4.92,7.11h1.89v-10.67h-2.18v7.11Z"/>
        <path class="st4" d="M73.33,16.85h3.2v8.95h2.18v-8.95h3.18v-1.72h-8.56v1.72Z"/>
        <path class="st4" d="M83.38,25.8h7.46v-1.72h-5.28v-2.75h4.68v-1.72h-4.68v-2.73h5.28v-1.74h-7.46v10.67Z"/>
        <path class="st4" d="M94.82,15.13h-2.18v10.67h2.18v-10.67Z"/>
        <path class="st4" d="M104.87,20.56c.36-.52.54-1.14.54-1.86,0-1.13-.29-2.01-.86-2.64-.58-.63-1.44-.94-2.61-.94h-4.99v10.67h2.18v-3.53h1.71c.29,0,.5.05.64.14.14.09.26.27.36.52l1.23,2.87h2.26l-1.26-2.98c-.12-.29-.23-.51-.33-.67-.1-.16-.23-.31-.4-.46.66-.23,1.17-.61,1.53-1.13h0ZM102.73,20.01c-.31.27-.77.41-1.36.41h-2.24v-3.43h2.37c.57,0,1,.14,1.28.41.28.28.42.71.42,1.31s-.16,1.03-.47,1.3h0Z"/>
        <path class="st4" d="M115.75,16.3c-.83-.89-2.1-1.33-3.8-1.33s-2.97.44-3.8,1.33c-.83.89-1.25,2.3-1.25,4.22,0,3.63,1.68,5.45,5.05,5.45s5.05-1.82,5.05-5.45c0-1.92-.42-3.33-1.25-4.22ZM114.09,23.19c-.46.58-1.18.87-2.15.87s-1.68-.29-2.15-.87c-.46-.58-.69-1.47-.69-2.68,0-1.32.22-2.25.68-2.81.45-.56,1.17-.84,2.16-.84s1.71.28,2.16.84c.45.56.68,1.49.68,2.81,0,1.2-.23,2.1-.69,2.68Z"/>
        <path class="st1" d="M3.3,3.33h23.87l1.7-2.13h1.31l-2.55,3.24-23.27-.03v26.13h23.32v1.08H3.3V3.33Z"/>
        <path class="st0" d="M30.07.61l.33-.42h-1.3l-.33.42"/>
        <path class="st3" d="M6.09,8.7l.84-.7,9.98,12.6L33.11,0h.94l-.13,35H0V0h31.11s-.88,1.15-.88,1.15l-29.15.02v32.66h31.75l.04-31.84-15.94,20.35-.04-.16-.04.1L6.09,8.7Z"/>
      </g>
    </g>
  </g>
</svg>