<svg width="117" height="35" viewBox="0 0 117 35" fill="none" xmlns="http://www.w3.org/2000/svg">
<g clip-path="url(#clip0_629_1680)">
<path fill-rule="evenodd" clip-rule="evenodd" d="M113.458 32.7688H115.267L114.359 30.9007L113.458 32.7688ZM112.133 34.3967L114.147 30.1782H114.572L116.609 34.3967H116.054L115.496 33.262H113.225L112.681 34.3967H112.133Z" fill="#6B7488"/>
<path fill-rule="evenodd" clip-rule="evenodd" d="M113.458 32.7688H115.267L114.359 30.9007L113.458 32.7688ZM112.133 34.3967L114.147 30.1782H114.572L116.609 34.3967H116.054L115.496 33.262H113.225L112.681 34.3967H112.133Z" stroke="#6B7488" stroke-width="0.23" stroke-miterlimit="2.61"/>
<path d="M106.437 30.1546H105.919V34.3968H106.437V30.1546Z" fill="#6B7488"/>
<path d="M106.437 30.1546H105.919V34.3968H106.437V30.1546Z" stroke="#6B7488" stroke-width="0.23" stroke-miterlimit="2.61"/>
<path fill-rule="evenodd" clip-rule="evenodd" d="M99.5062 33.051L99.9179 33.3642C99.7295 33.7308 99.4707 34.0142 99.1425 34.2106C98.8161 34.4077 98.4435 34.5068 98.0252 34.5068C97.4104 34.5068 96.9021 34.2982 96.5004 33.8823C96.1 33.4663 95.8992 32.9379 95.8992 32.2975C95.8992 31.656 96.1 31.1263 96.5016 30.7097C96.9045 30.2938 97.4115 30.0846 98.0241 30.0846C98.4038 30.0846 98.7509 30.1691 99.0637 30.34C99.3765 30.5109 99.6306 30.7547 99.8261 31.0703L99.3978 31.3835C99.2693 31.1318 99.0827 30.9335 98.8398 30.7912C98.5969 30.6489 98.325 30.5772 98.0252 30.5772C97.5638 30.5772 97.1817 30.7401 96.879 31.0649C96.5769 31.3896 96.4252 31.8007 96.4252 32.2963C96.4252 32.7931 96.5763 33.2042 96.879 33.5277C97.1817 33.8513 97.5638 34.013 98.0252 34.013C98.3481 34.013 98.6342 33.9309 98.8842 33.7679C99.1348 33.605 99.3415 33.366 99.5056 33.0504L99.5062 33.051Z" fill="#6B7488"/>
<path fill-rule="evenodd" clip-rule="evenodd" d="M99.5062 33.051L99.9179 33.3642C99.7295 33.7308 99.4707 34.0142 99.1425 34.2106C98.8161 34.4077 98.4435 34.5068 98.0252 34.5068C97.4104 34.5068 96.9021 34.2982 96.5004 33.8823C96.1 33.4663 95.8992 32.9379 95.8992 32.2975C95.8992 31.6572 96.1 31.1263 96.5016 30.7097C96.9045 30.2938 97.4115 30.0846 98.0241 30.0846C98.4038 30.0846 98.7509 30.1691 99.0637 30.34C99.3765 30.5109 99.6306 30.7547 99.8261 31.0703L99.3978 31.3835C99.2693 31.1318 99.0827 30.9335 98.8398 30.7912C98.5969 30.6489 98.325 30.5772 98.0252 30.5772C97.5638 30.5772 97.1817 30.7401 96.879 31.0649C96.5769 31.3896 96.4252 31.8007 96.4252 32.2963C96.4252 32.7919 96.5763 33.2042 96.879 33.5277C97.1817 33.8513 97.5638 34.013 98.0252 34.013C98.3481 34.013 98.6342 33.9309 98.8842 33.7679C99.1348 33.605 99.3415 33.366 99.5056 33.0504L99.5062 33.051Z" stroke="#6B7488" stroke-width="0.23" stroke-miterlimit="2.61"/>
<path fill-rule="evenodd" clip-rule="evenodd" d="M87.3758 32.7688H89.1856L88.2768 30.9007L87.3758 32.7688ZM86.05 34.3967L88.0642 30.1782H88.4889L90.5261 34.3967H89.9705L89.4124 33.262H87.1418L86.598 34.3967H86.05Z" fill="#6B7488"/>
<path fill-rule="evenodd" clip-rule="evenodd" d="M87.3758 32.7688H89.1856L88.2768 30.9007L87.3758 32.7688ZM86.05 34.3967L88.0642 30.1782H88.4889L90.5261 34.3967H89.9705L89.4124 33.262H87.1418L86.598 34.3967H86.05Z" stroke="#6B7488" stroke-width="0.23" stroke-miterlimit="2.61"/>
<path fill-rule="evenodd" clip-rule="evenodd" d="M80.2631 33.051L80.6748 33.3642C80.487 33.7308 80.2275 34.0142 79.8993 34.2106C79.5729 34.4077 79.2003 34.5068 78.7821 34.5068C78.1672 34.5068 77.6589 34.2982 77.2573 33.8823C76.8574 33.4663 76.656 32.9379 76.656 32.2975C76.656 31.6572 76.8568 31.1263 77.2585 30.7097C77.6613 30.2938 78.1684 30.0846 78.7809 30.0846C79.1606 30.0846 79.5078 30.1691 79.8205 30.34C80.1333 30.5109 80.3875 30.7547 80.5829 31.0703L80.1546 31.3835C80.0261 31.1318 79.8395 30.9335 79.5966 30.7912C79.3537 30.6489 79.0818 30.5772 78.7821 30.5772C78.3212 30.5772 77.9385 30.7401 77.6358 31.0649C77.3331 31.3896 77.182 31.8007 77.182 32.2963C77.182 32.7919 77.3331 33.2042 77.6358 33.5277C77.9385 33.8513 78.3206 34.013 78.7821 34.013C79.1049 34.013 79.3911 33.9309 79.641 33.7679C79.8916 33.605 80.0984 33.366 80.2625 33.0504L80.2631 33.051Z" fill="#6B7488"/>
<path fill-rule="evenodd" clip-rule="evenodd" d="M80.2631 33.051L80.6748 33.3642C80.487 33.7308 80.2275 34.0142 79.8993 34.2106C79.5729 34.4077 79.2003 34.5068 78.7821 34.5068C78.1672 34.5068 77.6589 34.2982 77.2573 33.8823C76.8574 33.4663 76.656 32.9379 76.656 32.2975C76.656 31.6572 76.8568 31.1263 77.2585 30.7097C77.6613 30.2938 78.1684 30.0846 78.7809 30.0846C79.1606 30.0846 79.5078 30.1691 79.8205 30.34C80.1333 30.5109 80.3875 30.7547 80.5829 31.0703L80.1546 31.3835C80.0261 31.1318 79.8395 30.9335 79.5966 30.7912C79.3537 30.6489 79.0818 30.5772 78.7821 30.5772C78.3212 30.5772 77.9385 30.7401 77.6358 31.0649C77.3331 31.3896 77.182 31.8007 77.182 32.2963C77.182 32.7919 77.3331 33.2042 77.6358 33.5277C77.9385 33.8513 78.3206 34.013 78.7821 34.013C79.1049 34.013 79.3911 33.9309 79.641 33.7679C79.8916 33.605 80.0984 33.366 80.2625 33.0504L80.2631 33.051Z" stroke="#6B7488" stroke-width="0.23" stroke-miterlimit="2.61"/>
<path fill-rule="evenodd" clip-rule="evenodd" d="M68.8734 34.0136C69.3348 34.0136 69.7169 33.8519 70.0208 33.5283C70.3229 33.2048 70.4746 32.7937 70.4746 32.2969C70.4746 31.8001 70.3229 31.3866 70.022 31.0631C69.7211 30.7395 69.3372 30.5778 68.8734 30.5778C68.4095 30.5778 68.0298 30.7408 67.7259 31.0655C67.4238 31.3902 67.2721 31.8013 67.2721 32.2969C67.2721 32.7925 67.4232 33.2048 67.7259 33.5283C68.0298 33.8519 68.4119 34.0136 68.8734 34.0136ZM68.8722 34.5068C68.2561 34.5068 67.7478 34.2982 67.3474 33.8823C66.9469 33.4663 66.7461 32.9379 66.7461 32.2975C66.7461 31.6572 66.9469 31.1263 67.3497 30.7097C67.7514 30.2938 68.2585 30.0846 68.8722 30.0846C69.4859 30.0846 69.9971 30.2932 70.4023 30.7122C70.8063 31.1299 71.0083 31.6578 71.0083 32.2969C71.0083 32.936 70.8063 33.4657 70.4035 33.8817C70.0007 34.2976 69.49 34.5062 68.8722 34.5062V34.5068Z" fill="#6B7488"/>
<path fill-rule="evenodd" clip-rule="evenodd" d="M68.8734 34.0136C69.3348 34.0136 69.7169 33.8519 70.0208 33.5283C70.3229 33.2048 70.4746 32.7937 70.4746 32.2969C70.4746 31.8001 70.3229 31.3866 70.022 31.0631C69.7211 30.7395 69.3372 30.5778 68.8734 30.5778C68.4095 30.5778 68.0298 30.7408 67.7259 31.0655C67.4238 31.3902 67.2721 31.8013 67.2721 32.2969C67.2721 32.7925 67.4232 33.2048 67.7259 33.5283C68.0298 33.8519 68.4119 34.0136 68.8734 34.0136ZM68.8722 34.5068C68.2561 34.5068 67.7478 34.2982 67.3474 33.8823C66.9469 33.4663 66.7461 32.9379 66.7461 32.2975C66.7461 31.6572 66.9469 31.1263 67.3497 30.7097C67.7514 30.2938 68.2585 30.0846 68.8722 30.0846C69.4859 30.0846 69.9971 30.2932 70.4023 30.7122C70.8063 31.1299 71.0083 31.6578 71.0083 32.2969C71.0083 32.936 70.8063 33.4657 70.4035 33.8817C70.0007 34.2976 69.49 34.5062 68.8722 34.5062V34.5068Z" stroke="#6B7488" stroke-width="0.23" stroke-miterlimit="2.61"/>
<path fill-rule="evenodd" clip-rule="evenodd" d="M59.4419 34.3967H59.1221L57.1411 30.1782H57.6962L59.282 33.5593L60.8678 30.1782H61.4336L59.4419 34.3967Z" fill="#6B7488"/>
<path fill-rule="evenodd" clip-rule="evenodd" d="M59.4419 34.3967H59.1221L57.1411 30.1782H57.6962L59.282 33.5593L60.8678 30.1782H61.4336L59.4419 34.3967Z" stroke="#6B7488" stroke-width="0.23" stroke-miterlimit="2.61"/>
<path fill-rule="evenodd" clip-rule="evenodd" d="M49.6787 30.6635H48.427V33.9114H49.6787C50.1846 33.9114 50.5833 33.7655 50.873 33.4742C51.1638 33.1823 51.309 32.7882 51.309 32.2914C51.309 31.8019 51.1615 31.4084 50.8653 31.1111C50.5703 30.8125 50.174 30.6635 49.6781 30.6635H49.6787ZM49.6787 30.1782C50.3256 30.1782 50.8463 30.374 51.2414 30.7669C51.6366 31.1597 51.835 31.6699 51.835 32.2993C51.835 32.9336 51.6407 33.442 51.2515 33.8245C50.8617 34.207 50.338 34.3973 49.6781 34.3973H47.9158V30.1788H49.6781L49.6787 30.1782Z" fill="#6B7488"/>
<path fill-rule="evenodd" clip-rule="evenodd" d="M49.6787 30.6635H48.427V33.9114H49.6787C50.1846 33.9114 50.5833 33.7655 50.873 33.4742C51.1638 33.1823 51.309 32.7882 51.309 32.2914C51.309 31.7946 51.1615 31.4084 50.8653 31.1111C50.5703 30.8125 50.174 30.6635 49.6781 30.6635H49.6787ZM49.6787 30.1782C50.3256 30.1782 50.8463 30.374 51.2414 30.7669C51.6366 31.1597 51.835 31.6699 51.835 32.2993C51.835 32.9287 51.6407 33.442 51.2515 33.8245C50.8617 34.207 50.338 34.3973 49.6781 34.3973H47.9158V30.1788H49.6781L49.6787 30.1782Z" stroke="#6B7488" stroke-width="0.23" stroke-miterlimit="2.61"/>
<path fill-rule="evenodd" clip-rule="evenodd" d="M39.0643 32.7688H40.874L39.9653 30.9007L39.0643 32.7688ZM37.7385 34.3967L39.7526 30.1782H40.1768L42.214 34.3967H41.6589L41.1009 33.262H38.8303L38.2865 34.3967H37.7385Z" fill="#6B7488"/>
<path fill-rule="evenodd" clip-rule="evenodd" d="M39.0643 32.7688H40.874L39.9653 30.9007L39.0643 32.7688ZM37.7385 34.3967L39.7526 30.1782H40.1768L42.214 34.3967H41.6589L41.1009 33.262H38.8303L38.2865 34.3967H37.7385Z" stroke="#6B7488" stroke-width="0.23" stroke-miterlimit="2.61"/>
<path d="M41.5133 9.04082C40.9387 8.43939 40.6514 7.526 40.6514 6.30005C40.6514 4.99442 40.9221 4.02935 41.463 3.40481C42.0044 2.78089 42.8829 2.46832 44.0991 2.46832C45.1814 2.46832 46.1968 2.669 47.1452 3.06974V1.0429C46.1636 0.676815 45.0925 0.493164 43.9321 0.493164C42.1022 0.493164 40.7154 0.997291 39.7729 2.00494C38.8298 3.01258 38.3589 4.44469 38.3589 6.30005C38.3589 8.05263 38.844 9.42454 39.815 10.4152C40.7859 11.4058 42.1638 11.9014 43.9492 11.9014C45.0985 11.9014 46.1695 11.7354 47.1629 11.4027V9.35825C46.237 9.74805 45.227 9.94265 44.1335 9.94265C42.9617 9.94265 42.0891 9.64163 41.5139 9.04021L41.5133 9.04082Z" fill="#2B3A88"/>
<path d="M51.2249 0.664673H48.9656V11.7299H56.5304V9.94328H51.2249V0.664673Z" fill="#2B3A88"/>
<path d="M62.9033 0.493164C61.1403 0.493164 59.8264 0.954114 58.9615 1.87602C58.0966 2.79852 57.6648 4.25556 57.6648 6.24896C57.6648 10.0174 59.4112 11.902 62.9033 11.902C66.3954 11.902 68.1423 10.0174 68.1423 6.24896C68.1423 4.25556 67.7099 2.79852 66.845 1.87602C65.9801 0.954114 64.6668 0.493164 62.9033 0.493164ZM65.1289 9.02379C64.649 9.62521 63.9068 9.92562 62.9027 9.92562C61.8986 9.92562 61.1563 9.62521 60.6765 9.02379C60.1967 8.42236 59.9567 7.49742 59.9567 6.24896C59.9567 4.88557 60.1907 3.91563 60.6599 3.3367C61.1285 2.75839 61.8761 2.46893 62.9027 2.46893C63.9293 2.46893 64.6769 2.75839 65.1455 3.3367C65.614 3.91502 65.848 4.88557 65.848 6.24896C65.848 7.49742 65.6081 8.42236 65.1283 9.02379H65.1289Z" fill="#2B3A88"/>
<path d="M74.4641 0.664671H69.9448V11.7293H74.4641C76.1151 11.7293 77.3426 11.2854 78.1464 10.3975C78.9497 9.5103 79.3513 8.12684 79.3513 6.24837C79.3513 4.36991 78.9497 2.8551 78.1464 1.97881C77.3431 1.10251 76.1151 0.664062 74.4641 0.664062V0.664671ZM76.7318 8.51664C76.5144 9.05482 76.1987 9.42759 75.7864 9.63314C75.3735 9.83929 74.8267 9.94267 74.146 9.94267H72.2048V2.58935H74.146C74.8711 2.58935 75.4404 2.68969 75.8527 2.88976C76.2656 3.09044 76.5701 3.45409 76.765 3.98072C76.9605 4.50734 77.0582 5.26323 77.0582 6.24837C77.0582 7.23352 76.9492 7.97785 76.7318 8.51664Z" fill="#2B3A88"/>
<path d="M86.0585 0.493164C84.2956 0.493164 82.9817 0.954114 82.1168 1.87602C81.2519 2.79852 80.8201 4.25556 80.8201 6.24896C80.8201 10.0174 82.5664 11.902 86.0585 11.902C89.5507 11.902 91.2976 10.0174 91.2976 6.24896C91.2976 4.25556 90.8652 2.79852 90.0003 1.87602C89.1354 0.954114 87.8221 0.493164 86.0585 0.493164ZM88.2847 9.02379C87.8049 9.62521 87.0632 9.92562 86.0585 9.92562C85.0539 9.92562 84.3122 9.62521 83.8324 9.02379C83.3525 8.42236 83.1126 7.49742 83.1126 6.24896C83.1126 4.88557 83.3466 3.91563 83.8158 3.3367C84.2843 2.75839 85.0319 2.46893 86.0585 2.46893C87.0851 2.46893 87.8327 2.75839 88.3013 3.3367C88.7699 3.91502 89.0039 4.88557 89.0039 6.24896C89.0039 7.49742 88.764 8.42236 88.2841 9.02379H88.2847Z" fill="#2B3A88"/>
<path d="M100.164 8.03562L95.0587 0.664673H93.1008V11.7299H95.3602V4.35897L100.465 11.7299H102.423V0.664673H100.164V8.03562Z" fill="#2B3A88"/>
<path d="M106.82 0.664673H104.561V11.7293H106.82V0.664673Z" fill="#2B3A88"/>
<path d="M111.218 9.94328V0.664673H108.959V11.7299H116.524V9.94328H111.218Z" fill="#2B3A88"/>
<path d="M43.9067 21.5406L40.8553 15.1268H38.6599V25.8005H40.8393V18.8564L43.277 23.9609H44.5364L46.9581 18.8564V25.8005H49.1381V15.1268H46.9581L43.9067 21.5406Z" fill="#2B3A88"/>
<path d="M55.9976 14.9614C54.2969 14.9614 53.0298 15.406 52.1957 16.2956C51.3616 17.1853 50.9446 18.5913 50.9446 20.5135C50.9446 24.1482 52.6287 25.9665 55.9976 25.9665C59.3665 25.9665 61.0507 24.1488 61.0507 20.5135C61.0507 18.5907 60.6337 17.1847 59.7996 16.2956C58.9655 15.406 57.6978 14.9614 55.9976 14.9614ZM58.1445 23.1898C57.6818 23.77 56.9662 24.06 55.9971 24.06C55.0279 24.06 54.3129 23.77 53.8496 23.1898C53.387 22.6097 53.1554 21.7176 53.1554 20.5129C53.1554 19.1975 53.3811 18.2617 53.8337 17.7034C54.2856 17.1452 55.0066 16.8666 55.9971 16.8666C56.9875 16.8666 57.7085 17.1452 58.1604 17.7034C58.613 18.2617 58.8387 19.1975 58.8387 20.5129C58.8387 21.717 58.6071 22.6097 58.1445 23.1898Z" fill="#2B3A88"/>
<path d="M69.6705 22.2369L64.7465 15.1268H62.8574V25.8005H65.0368V18.6904L69.9613 25.8005H71.8499V15.1268H69.6705V22.2369Z" fill="#2B3A88"/>
<path d="M73.3345 16.8508H76.531V25.8005H78.7104V16.8508H81.8909V15.1268H73.3345V16.8508Z" fill="#2B3A88"/>
<path d="M83.375 25.8005H90.8337V24.0771H85.5544V21.3253H90.2366V19.6019H85.5544V16.8673H90.8337V15.1268H83.375V25.8005Z" fill="#2B3A88"/>
<path d="M94.8198 15.1268H92.6404V25.8005H94.8198V15.1268Z" fill="#2B3A88"/>
<path d="M104.869 20.5628C105.229 20.0434 105.409 19.4244 105.409 18.7068C105.409 17.5794 105.122 16.7012 104.546 16.0712C103.97 15.4418 103.101 15.1268 101.939 15.1268H96.9502V25.8005H99.1296V22.2703H100.84C101.131 22.2703 101.344 22.3172 101.478 22.4108C101.613 22.5051 101.734 22.679 101.842 22.9332L103.068 25.8005H105.329L104.07 22.817C103.952 22.53 103.841 22.3056 103.739 22.1463C103.636 21.9858 103.505 21.8343 103.343 21.6908C104 21.4585 104.508 21.0827 104.869 20.5634L104.869 20.5628ZM102.73 20.0076C102.418 20.2782 101.965 20.4138 101.374 20.4138H99.1296V16.9828H101.503C102.073 16.9828 102.498 17.1208 102.778 17.3969C103.058 17.6736 103.198 18.1096 103.198 18.7068C103.198 19.304 103.042 19.7369 102.73 20.0076H102.73Z" fill="#2B3A88"/>
<path d="M115.748 16.295C114.914 15.4053 113.647 14.9608 111.946 14.9608C110.246 14.9608 108.979 15.4053 108.144 16.295C107.31 17.1847 106.893 18.5906 106.893 20.5129C106.893 24.1476 108.577 25.9659 111.946 25.9659C115.315 25.9659 116.999 24.1482 116.999 20.5129C116.999 18.59 116.582 17.1841 115.748 16.295ZM114.094 23.1898C113.631 23.77 112.916 24.06 111.946 24.06C110.977 24.06 110.262 23.77 109.799 23.1898C109.336 22.6097 109.105 21.7176 109.105 20.5129C109.105 19.1975 109.33 18.2617 109.783 17.7034C110.235 17.1452 110.956 16.8666 111.946 16.8666C112.937 16.8666 113.658 17.1452 114.11 17.7034C114.562 18.2617 114.788 19.1975 114.788 20.5129C114.788 21.717 114.556 22.6097 114.094 23.1898Z" fill="#2B3A88"/>
<path fill-rule="evenodd" clip-rule="evenodd" d="M3.30005 3.33449H27.1677L28.8639 1.20001H30.17L27.6211 4.44308L4.34785 4.41207V30.5421H27.6655V31.6197H3.30005V3.33449Z" fill="#839797"/>
<path d="M30.0661 0.614412L30.3931 0.191772H29.0905L28.7605 0.614412" fill="#839797"/>
<path fill-rule="evenodd" clip-rule="evenodd" d="M6.09448 8.70272L6.93271 8.00278L16.915 20.6011L33.1055 0.00364868H34.0421L33.913 35H0V0.00364868L31.1098 0L30.2271 1.15359L1.08051 1.17062V33.833H32.8325L32.868 1.99461L16.9292 22.3409L16.8919 22.1834L16.8552 22.2831L6.09448 8.70272Z" fill="#F97D0E"/>
</g>
<defs>
<clipPath id="clip0_629_1680">
<rect width="117" height="35" fill="white"/>
</clipPath>
</defs>
</svg>
