<svg width="167" height="131" viewBox="0 0 167 131" fill="none" xmlns="http://www.w3.org/2000/svg">
<path d="M29.422 9.74416C41.7094 0.62142 58.2628 -2.11253 78.6156 1.61388L85.9288 2.95287L82.1722 23.3426L76.0778 23.4306C65.6935 23.578 58.0057 26.2005 53.2219 31.2389C50.7073 33.9644 48.9533 37.2915 48.1317 40.8943L70.6199 45.0117C72.5595 45.3668 74.2792 46.4694 75.4008 48.077C76.5224 49.6845 76.9539 51.6653 76.6005 53.5836L67.2722 104.214C65.8024 112.192 58.0471 117.479 49.9806 116.002L6.10118 107.968C4.16159 107.613 2.44184 106.511 1.32025 104.903C0.198667 103.296 -0.232876 101.315 0.120554 99.3965L6.7836 63.2317L10.6954 42.1226C10.7775 41.3077 12.8928 22.0306 29.422 9.74416ZM130.426 130.731L86.5467 122.697C84.6071 122.342 82.8874 121.24 81.7658 119.632C80.6442 118.024 80.2127 116.044 80.5661 114.125L87.2291 77.9605L91.141 56.8515C91.2231 56.0366 93.3383 36.7595 109.868 24.473C122.155 15.3503 138.708 12.6163 159.061 16.3427L166.374 17.6817L162.618 38.0715L156.523 38.1594C146.139 38.3069 138.451 40.9294 133.667 45.9678C131.153 48.6932 129.399 52.0204 128.577 55.6232L151.065 59.7406C153.005 60.0957 154.725 61.1983 155.846 62.8059C156.968 64.4134 157.399 66.3942 157.046 68.3125L147.718 118.943C146.248 126.921 138.493 132.208 130.426 130.731Z" fill="#182B66"/>
</svg>
